<svg xmlns="http://www.w3.org/2000/svg" viewBox="0 0 24 24" fill="currentColor">
  <path d="M14.051 2.751c0.638 0 1.149 0.511 1.149 1.147v10.545c0 0.638-0.511 1.149-1.149 1.149h-4.102c-0.636 0-1.147-0.511-1.147-1.149v-10.545c0-0.636 0.511-1.147 1.147-1.147h4.102m0-1.5h-4.102c-1.464 0-2.647 1.183-2.647 2.647v10.545c0 1.464 1.183 2.649 2.647 2.649h4.102c1.464 0 2.649-1.185 2.649-2.649v-10.545c0-1.464-1.185-2.647-2.649-2.647v0z"/>
  <path d="M12 17.5h0.001l7.247 4.662c0.28 0.18 0.649 0.094 0.826-0.187s0.094-0.649-0.187-0.826l-6.887-4.432v-8.467c0-0.414-0.336-0.75-0.75-0.75s-0.75 0.336-0.75 0.75v8.467l-6.887 4.432c-0.28 0.18-0.364 0.545-0.187 0.826s0.546 0.367 0.826 0.187l7.247-4.662z"/>
</svg>
