<svg xmlns="http://www.w3.org/2000/svg" viewBox="0 0 24 24" fill="currentColor">
  <path d="M23.393 13.154c0-1.68-1.359-3.036-3.04-3.036h-.026c-.236 0-.463.035-.674.099a4.454 4.454 0 0 0-1.851-1.851c.064-.211.099-.438.099-.674v-.026c0-1.68-1.359-3.04-3.04-3.04s-3.04 1.359-3.04 3.04v.026c0 .236.035.463.099.674a4.424 4.424 0 0 0-1.851 1.851 3.003 3.003 0 0 0-.674-.099H9.36c-1.681 0-3.04 1.359-3.04 3.036 0 1.68 1.359 3.04 3.04 3.04h.026c.236 0 .463-.035.674-.099a4.424 4.424 0 0 0 1.851 1.851c-.064.211-.099.438-.099.674v.026c0 1.681 1.359 3.04 3.04 3.04s3.04-1.359 3.04-3.04v-.026c0-.236-.035-.463-.099-.674a4.451 4.451 0 0 0 1.851-1.851c.211.064.438.099.674.099h.026c1.681 0 3.04-1.359 3.04-3.04z"/>
</svg>
