<?xml version="1.0" standalone="no"?>
<!DOCTYPE svg PUBLIC "-//W3C//DTD SVG 20010904//EN"
 "http://www.w3.org/TR/2001/REC-SVG-20010904/DTD/svg10.dtd">
<svg version="1.0" xmlns="http://www.w3.org/2000/svg"
 width="960.000000pt" height="1280.000000pt" viewBox="0 0 960.000000 1280.000000"
 preserveAspectRatio="xMidYMid meet">

<g transform="translate(0.000000,1280.000000) scale(0.100000,-0.100000)"
fill="#000000" stroke="none">
<path d="M3215 12774 c-16 -14 -46 -34 -65 -45 -19 -11 -57 -33 -85 -50 -27
-16 -57 -33 -65 -36 -8 -4 -17 -9 -20 -13 -8 -10 -127 -80 -136 -80 -4 0 -17
-9 -28 -19 -18 -17 -223 -147 -296 -188 -14 -8 -44 -26 -67 -41 -70 -46 -207
-133 -228 -145 -10 -7 -56 -36 -101 -64 -45 -29 -84 -53 -88 -53 -3 0 -32 -17
-64 -39 -31 -21 -73 -47 -92 -57 -19 -10 -39 -22 -45 -27 -26 -19 -86 -57 -91
-57 -4 0 -26 -13 -51 -30 -24 -16 -47 -30 -52 -30 -4 0 -16 -8 -27 -19 -11
-10 -31 -24 -45 -31 -22 -11 -125 -74 -254 -155 -54 -34 -68 -42 -135 -81 -25
-15 -56 -34 -70 -44 -15 -10 -48 -30 -75 -44 -28 -15 -70 -40 -95 -56 -25 -16
-59 -36 -76 -45 -17 -9 -46 -31 -64 -50 -27 -28 -42 -35 -72 -35 -27 0 -59
-13 -115 -47 -43 -27 -86 -52 -95 -58 -48 -28 -198 -121 -320 -198 -75 -48
-150 -92 -167 -98 l-31 -11 0 -1540 0 -1539 23 7 c54 17 97 24 162 24 39 0
107 9 153 20 46 11 108 20 138 20 31 0 63 4 72 9 9 5 64 11 121 14 95 5 106 7
130 31 l26 26 3 248 c4 313 -2 403 -31 434 -24 26 -32 26 -257 -1 -118 -14
-213 -23 -265 -25 -22 -1 -44 -4 -50 -7 -17 -11 -183 -10 -190 1 -3 5 0 10 7
10 10 0 9 3 -1 9 -12 8 -10 12 10 19 45 18 103 30 224 47 66 9 131 19 145 21
14 3 52 9 85 14 34 5 106 18 160 30 93 20 152 29 265 45 95 12 237 36 283 46
26 6 62 12 80 14 31 3 93 12 227 35 36 5 83 17 105 24 22 8 83 17 135 19 52 3
133 11 180 20 47 8 110 18 140 22 30 3 107 15 170 26 63 11 135 23 160 25 25
3 99 14 165 24 151 25 292 46 465 70 74 10 194 27 265 39 72 11 184 27 250 36
66 9 165 22 220 30 55 8 152 19 215 25 63 5 131 12 150 15 19 3 99 7 177 9 78
3 150 9 162 15 31 17 35 62 28 330 -4 135 -7 433 -7 661 0 228 -4 595 -9 815
-11 477 -20 1094 -21 1478 l0 277 -612 0 -613 -1 -30 -25z"/>
<path d="M946 12028 c-6 -22 -14 -28 -36 -28 -24 0 -29 -5 -32 -27 l-4 -28
-14 28 c-7 15 -16 27 -20 27 -4 0 -13 -12 -21 -27 l-13 -28 -4 33 c-3 30 -6
32 -45 33 -23 1 -46 0 -52 -1 -5 -2 -22 -5 -37 -8 -16 -2 -28 -11 -28 -18 0
-11 -18 -14 -80 -14 -47 0 -80 4 -80 10 0 6 -9 10 -20 10 -11 0 -20 -4 -20
-10 0 -6 -27 -10 -60 -10 -33 0 -60 -4 -60 -10 0 -5 -18 -10 -40 -10 -22 0
-40 5 -40 10 0 6 -16 10 -36 10 -27 0 -41 -7 -56 -25 -22 -28 -68 -35 -68 -10
0 11 -57 45 -76 45 -2 0 -4 -247 -4 -550 0 -302 3 -550 6 -550 4 0 21 12 39
28 66 55 93 74 230 166 230 153 344 226 354 226 5 0 11 4 13 8 4 11 135 92
148 92 5 0 10 4 10 9 0 5 14 14 30 21 17 7 30 16 30 21 0 5 4 9 9 9 5 0 38 18
72 40 35 22 71 43 79 47 8 3 28 17 43 30 16 13 35 23 43 23 8 0 14 7 14 15 0
8 6 15 14 15 7 0 19 7 26 15 10 12 10 15 -4 15 -9 0 -16 -4 -16 -10 0 -5 -5
-10 -11 -10 -16 0 -3 62 16 76 8 6 15 19 15 28 0 9 7 16 15 16 8 0 15 -7 15
-17 0 -9 3 -13 7 -10 3 4 6 53 6 110 -1 92 0 96 7 39 4 -34 10 -65 13 -68 15
-16 27 13 27 66 0 32 5 71 10 85 11 29 -2 48 -48 72 -29 15 -92 17 -92 3 0 -5
-18 -10 -40 -10 -37 0 -40 -2 -41 -27 0 -16 -3 -22 -6 -15 -2 6 -18 12 -34 12
-16 0 -30 -6 -30 -12 -1 -7 -5 5 -9 27 -6 39 -6 39 -14 13z m-596 -112 c0 -2
-7 -9 -15 -16 -12 -10 -15 -10 -15 4 0 9 7 16 15 16 8 0 15 -2 15 -4z m777
-178 c-3 -8 -6 -5 -6 6 -1 11 2 17 5 13 3 -3 4 -12 1 -19z"/>
<path d="M2 12020 c0 -14 2 -19 5 -12 2 6 2 18 0 25 -3 6 -5 1 -5 -13z"/>
<path d="M1173 11690 c4 -18 37 -27 37 -10 0 6 -5 8 -11 4 -6 -3 -16 0 -21 7
-8 12 -9 11 -5 -1z"/>
<path d="M9505 11346 c-49 -29 -128 -73 -175 -98 -82 -44 -122 -67 -201 -116
-35 -22 -36 -24 -31 -70 2 -26 6 -49 8 -51 2 -2 55 26 119 63 64 36 120 66
125 66 5 0 10 3 12 8 2 4 37 25 78 46 134 71 155 84 158 100 2 9 -1 16 -7 16
-6 0 -11 7 -11 15 0 8 4 15 8 15 5 0 9 14 10 30 0 17 0 30 -1 29 -1 0 -42 -24
-92 -53z m5 -36 c-12 -8 -13 -12 -2 -19 10 -6 8 -10 -11 -15 -14 -3 -32 -3
-40 0 -11 4 -13 -1 -10 -20 4 -22 7 -23 19 -11 15 15 53 29 59 23 3 -2 -22
-18 -55 -35 -32 -17 -56 -33 -53 -37 9 -9 -18 -6 -42 4 -18 8 -18 9 5 10 28 1
60 21 60 39 0 8 -5 9 -19 1 -34 -18 -34 -11 0 21 18 17 35 26 37 20 2 -6 11
-11 20 -10 11 0 12 2 5 6 -18 7 -16 21 5 26 30 8 37 7 22 -3z m-195 -120 c3
-5 2 -10 -4 -10 -5 0 -13 5 -16 10 -3 6 -2 10 4 10 5 0 13 -4 16 -10z m0 -30
c-3 -5 -12 -10 -18 -10 -7 0 -6 4 3 10 19 12 23 12 15 0z"/>
<path d="M8865 11131 c-54 -22 -265 -163 -265 -178 0 -9 7 -10 23 -4 12 5 21
14 20 20 -2 6 6 11 17 11 10 0 23 7 28 17 10 17 42 12 42 -6 0 -6 -8 -8 -17
-4 -17 6 -17 5 -1 -13 16 -19 16 -20 -3 -32 -11 -7 -25 -9 -31 -6 -8 5 -5 10
8 15 17 7 17 8 -5 8 -20 1 -22 -3 -17 -24 5 -18 2 -25 -9 -25 -8 0 -15 -4 -15
-9 0 -11 -59 -33 -71 -25 -5 3 -6 -2 -3 -10 3 -9 8 -16 10 -16 2 0 41 23 85
51 45 28 88 53 97 57 10 4 50 26 90 50 72 43 72 43 72 87 0 24 -3 46 -7 48 -5
2 -26 -3 -48 -12z m16 -68 c-8 -14 -10 -11 -6 17 5 46 7 49 12 23 2 -12 0 -30
-6 -40z m-25 10 c-10 -10 -19 5 -10 18 6 11 8 11 12 0 2 -7 1 -15 -2 -18z m-6
-48 c-14 -17 -30 -20 -30 -6 0 5 8 12 18 14 9 3 19 5 21 6 2 0 -2 -6 -9 -14z"/>
<path d="M8509 10903 c-13 -16 -12 -17 4 -4 16 13 21 21 13 21 -2 0 -10 -8
-17 -17z"/>
<path d="M8555 10900 c4 -6 11 -8 16 -5 14 9 11 15 -7 15 -8 0 -12 -5 -9 -10z"/>
<path d="M8470 10825 c-7 -9 -8 -15 -2 -15 5 0 12 7 16 15 3 8 4 15 2 15 -2 0
-9 -7 -16 -15z"/>
<path d="M8520 10830 c-9 -6 -10 -10 -3 -10 6 0 15 5 18 10 8 12 4 12 -15 0z"/>
<path d="M8450 10790 c-8 -5 -12 -11 -10 -14 3 -2 14 2 24 10 22 15 10 19 -14
4z"/>
<path d="M8407 10769 c7 -7 15 -10 18 -7 3 3 -2 9 -12 12 -14 6 -15 5 -6 -5z"/>
<path d="M8356 10734 c-6 -15 -4 -15 11 -3 10 7 20 15 22 16 2 2 -3 3 -11 3
-9 0 -19 -7 -22 -16z"/>
<path d="M9575 10541 c-6 -4 -233 -121 -505 -258 -272 -138 -637 -323 -810
-411 -199 -102 -332 -164 -360 -168 -25 -4 -67 -19 -93 -33 -40 -21 -47 -29
-42 -48 3 -12 16 -33 29 -46 32 -33 34 -70 41 -772 3 -319 7 -688 10 -820 3
-132 7 -472 10 -755 8 -800 26 -1700 35 -1750 9 -46 6 875 -7 2325 -4 440 -8
1031 -8 1313 l0 513 22 17 c13 9 401 206 863 437 736 369 839 423 840 443 0
23 -9 28 -25 13z"/>
<path d="M7820 10147 c0 -107 3 -197 7 -200 3 -4 12 -2 20 4 10 9 13 55 13
200 0 182 -1 189 -20 189 -19 0 -20 -7 -20 -193z"/>
<path d="M7272 9340 c-62 -33 -154 -78 -203 -100 -145 -65 -265 -150 -213
-150 9 0 30 6 47 14 18 7 57 23 87 36 62 25 57 22 183 89 50 27 122 61 160 76
37 15 72 35 77 45 11 21 3 50 -14 50 -6 -1 -62 -28 -124 -60z"/>
<path d="M7328 9253 c-32 -15 -58 -30 -58 -34 0 -9 56 11 117 42 56 29 8 22
-59 -8z"/>
<path d="M7490 9245 c0 -9 -4 -14 -9 -11 -5 3 -11 -5 -13 -18 -12 -62 16
-2671 35 -3331 11 -368 13 -390 31 -393 18 -4 18 14 12 620 -4 342 -11 1154
-16 1803 -9 1143 -14 1330 -31 1341 -5 3 -9 -2 -9 -11z"/>
<path d="M7215 9200 c-13 -6 -15 -9 -5 -9 8 0 22 4 30 9 18 12 2 12 -25 0z"/>
<path d="M4400 9085 c-113 -36 -610 -118 -935 -155 -237 -27 -263 -32 -284
-51 -14 -13 -19 -28 -16 -47 11 -75 27 -481 22 -570 l-5 -102 25 -6 c14 -4
104 -4 200 0 133 5 197 13 268 31 132 33 546 52 731 33 l72 -8 15 33 c20 44
31 331 21 605 -6 190 -9 217 -25 233 -22 22 -29 22 -89 4z"/>
<path d="M6419 8909 c-12 -23 -9 -536 14 -2239 6 -498 11 -938 10 -977 0 -40
3 -73 7 -73 5 0 10 7 12 17 3 16 -4 1023 -16 2238 -3 358 -7 721 -7 808 l-2
158 33 34 33 34 -27 11 c-38 14 -44 13 -57 -11z"/>
<path d="M2825 8860 c-47 -8 -162 -24 -335 -45 -130 -16 -475 -62 -570 -76
-59 -9 -210 -28 -275 -34 -22 -2 -87 -9 -145 -15 -58 -6 -130 -15 -160 -20
-124 -21 -255 -41 -309 -46 -62 -7 -78 -16 -92 -52 -7 -19 -5 -29 6 -42 9 -10
15 -24 14 -32 -3 -25 1 -39 10 -33 5 3 23 -31 40 -75 25 -64 31 -94 31 -155 0
-42 5 -85 11 -96 8 -16 7 -26 -5 -44 -9 -14 -16 -38 -16 -55 0 -35 -38 -100
-60 -100 -13 -1 -13 -2 0 -9 18 -10 190 -21 190 -12 0 3 35 7 78 8 95 1 302
29 362 48 25 8 87 17 138 19 51 3 96 7 100 10 4 2 50 7 102 10 52 4 138 11
190 16 52 6 142 15 200 20 58 5 132 14 165 20 33 6 96 12 140 14 125 5 298 17
320 21 45 9 51 45 54 290 3 250 -12 429 -37 458 -16 18 -72 21 -147 7z"/>
<path d="M4425 8078 c-29 -9 -46 -13 -165 -37 -55 -11 -260 -39 -335 -46 -124
-12 -146 -17 -165 -37 -11 -12 -18 -30 -15 -42 2 -12 6 -118 10 -236 9 -369
16 -474 31 -489 10 -12 62 -14 281 -13 210 1 283 -3 336 -15 55 -12 70 -13 83
-2 41 34 43 48 41 466 -2 391 -3 402 -23 430 -24 32 -37 36 -79 21z"/>
<path d="M3429 7956 c-2 -2 -67 -9 -144 -16 -77 -6 -165 -15 -195 -20 -56 -9
-162 -18 -565 -45 -126 -9 -271 -20 -320 -26 -50 -5 -124 -12 -164 -14 -40 -2
-92 -7 -115 -10 -38 -5 -157 -15 -405 -35 -77 -6 -110 -13 -129 -27 -27 -20
-48 -73 -32 -83 4 -3 11 -19 15 -35 3 -17 14 -48 24 -70 11 -22 23 -51 29 -65
5 -14 18 -43 28 -65 22 -47 25 -190 5 -270 -25 -104 -26 -98 21 -120 54 -26
67 -29 48 -15 -12 9 -7 10 24 5 23 -4 42 -2 45 4 4 6 20 7 44 2 24 -6 37 -5
37 1 0 7 24 9 63 5 68 -5 225 8 272 23 17 5 111 14 210 20 168 10 250 16 335
25 69 7 489 26 748 33 209 6 265 11 272 22 27 43 26 714 -1 758 -12 19 -22 22
-80 22 -36 0 -68 -2 -70 -4z"/>
<path d="M1115 7765 c-5 -2 -48 -6 -95 -8 -130 -8 -372 -25 -500 -37 -132 -11
-341 -23 -448 -24 l-72 -1 0 -3278 c0 -3118 1 -3278 18 -3273 20 6 680 174
732 186 80 19 381 100 465 125 50 15 169 47 265 71 96 24 193 50 215 58 22 8
85 26 140 41 55 15 136 37 180 50 44 12 103 28 130 34 54 13 287 78 810 228
181 52 345 95 364 96 33 2 36 0 42 -33 6 -34 16 -58 92 -221 20 -42 50 -113
67 -158 23 -58 36 -81 49 -81 17 0 121 28 121 33 0 1 -11 42 -24 91 -29 104
-19 102 22 -4 18 -47 34 -75 43 -74 8 1 115 26 239 57 832 205 1040 253 1063
244 11 -4 62 -82 85 -127 1 -3 -10 -6 -25 -6 -16 -1 -39 -3 -53 -7 -14 -3 -70
-13 -125 -22 -117 -19 -222 -42 -285 -61 -25 -8 -96 -25 -159 -39 -146 -32
-175 -50 -211 -131 -20 -43 -37 -66 -57 -76 -18 -8 -28 -21 -28 -35 0 -12 -3
-25 -7 -29 -24 -24 29 -144 93 -209 21 -23 39 -47 39 -54 0 -7 28 -40 63 -74
34 -34 70 -78 81 -97 19 -36 30 -52 96 -135 22 -27 40 -56 40 -65 0 -28 37
-77 141 -184 96 -98 108 -108 169 -127 80 -26 201 -49 258 -49 24 0 107 14
185 30 78 17 156 33 172 36 17 3 57 16 90 29 59 23 113 37 225 56 30 5 73 18
95 28 22 11 54 25 72 31 25 10 36 22 49 59 57 160 68 175 105 134 19 -21 62
-53 92 -68 22 -11 65 -86 66 -116 2 -48 78 -80 189 -80 37 0 81 -7 101 -16 76
-32 137 -45 220 -45 130 0 323 53 382 105 19 16 59 41 89 54 30 14 70 37 90
52 41 32 202 104 280 125 30 8 78 22 105 30 28 9 58 16 68 16 10 0 34 7 55 16
20 10 42 18 47 20 22 6 82 27 110 39 17 7 46 16 65 19 34 7 67 22 230 100 77
37 184 75 210 76 8 0 35 11 60 24 25 13 79 33 120 45 41 13 86 27 100 32 14 5
39 11 55 13 58 7 181 36 259 61 43 14 84 25 89 25 6 0 65 27 132 60 93 46 136
61 183 66 l62 7 0 1587 0 1587 -22 -3 c-32 -5 -363 -45 -418 -51 -25 -2 -133
-15 -240 -29 -1342 -169 -1429 -178 -1577 -179 l-112 0 -40 -39 c-35 -34 -40
-45 -46 -100 -3 -33 -10 -92 -15 -131 -5 -38 -12 -97 -16 -130 -6 -55 -8 -57
-15 -30 -11 38 -31 517 -23 539 3 9 10 16 14 16 4 0 10 10 13 21 5 20 11 21
50 16 24 -3 84 -18 133 -33 63 -19 113 -28 169 -28 74 -1 195 20 195 33 -1 6
-169 49 -775 201 -126 32 -284 70 -350 85 -66 15 -221 52 -344 81 -123 30
-226 53 -228 50 -3 -3 1 -24 9 -48 14 -40 18 -43 59 -49 83 -13 392 -98 400
-111 5 -7 10 -17 12 -22 2 -5 12 -3 22 3 17 11 65 1 295 -57 166 -43 279 -77
285 -86 16 -21 40 -498 32 -638 -4 -88 -2 -122 10 -153 10 -28 17 -101 22
-236 9 -253 4 -309 -32 -347 -15 -15 -27 -33 -27 -39 0 -7 -10 -19 -22 -27
-20 -14 -23 -14 -31 -1 -5 10 -16 14 -27 10 -10 -3 -37 3 -60 15 -39 20 -60
20 -60 -1 0 -5 4 -9 9 -9 6 0 39 -19 75 -41 54 -34 66 -46 66 -68 0 -14 4 -42
10 -61 15 -53 -1 -56 -72 -18 -34 19 -102 56 -149 82 l-87 46 -81 -36 c-45
-21 -78 -41 -74 -45 4 -4 44 -22 88 -39 124 -49 322 -149 355 -180 21 -19 30
-38 30 -58 0 -49 -31 -69 -140 -91 -30 -6 -97 -20 -148 -31 -51 -11 -132 -25
-180 -30 -152 -17 -353 -53 -433 -79 -15 -5 -32 -5 -39 -1 -17 10 3 22 24 14
9 -3 16 -1 16 5 0 6 8 11 18 11 13 0 14 2 4 9 -11 7 -11 9 2 14 9 4 22 4 30 1
8 -3 17 -1 21 5 3 6 -2 11 -12 12 -10 0 1 7 25 16 44 15 56 33 22 33 -11 0
-20 5 -20 11 0 8 -5 7 -16 -2 -13 -10 -17 -10 -25 2 -7 12 -9 11 -9 -2 0 -27
-30 -32 -39 -7 -8 21 -8 21 -15 -5 -3 -16 -10 -25 -15 -22 -5 2 -12 -3 -16
-13 -6 -16 -7 -16 -17 1 -5 10 -7 25 -4 33 8 20 -4 65 -15 59 -9 -6 -42 10
-72 35 -16 12 -19 12 -27 0 -7 -11 -10 -12 -10 -2 0 7 -4 11 -8 8 -4 -2 -8 4
-8 14 0 14 4 16 12 9 7 -5 24 -7 38 -3 24 6 24 7 10 29 -15 23 -12 65 5 65 4
0 13 -16 20 -36 16 -46 22 -40 11 11 -11 49 -2 66 17 31 18 -34 27 -28 14 8
-6 14 -7 26 -2 26 5 0 11 -7 15 -15 4 -12 11 -13 33 -4 23 8 26 8 16 -2 -19
-19 -16 -28 10 -22 12 3 19 2 14 -2 -4 -5 1 -17 10 -28 17 -19 17 -19 -7 -12
-24 7 -24 7 -5 -9 18 -14 18 -15 3 -16 -42 0 -8 -30 40 -36 17 -2 22 1 19 11
-3 7 3 15 14 18 11 3 23 15 26 26 3 12 9 21 14 21 18 0 8 63 -21 138 -26 65
-36 80 -65 95 -20 9 -42 17 -49 17 -7 0 -65 -34 -130 -75 -134 -86 -229 -135
-263 -135 -16 0 -24 7 -29 24 -3 14 -12 27 -20 30 -30 12 -1 76 34 76 7 0 12
5 12 10 0 6 -4 10 -9 10 -9 0 -62 -39 -73 -54 -10 -16 -200 -8 -216 9 -11 11
15 25 55 29 23 2 68 16 99 30 62 28 103 28 136 -1 21 -19 45 -11 112 35 60 43
176 143 176 153 0 16 -32 16 -77 0 -26 -10 -115 -53 -198 -95 -168 -86 -207
-94 -213 -43 -2 19 -8 27 -17 23 -10 -3 -12 0 -8 11 4 11 2 14 -5 9 -7 -4 -12
-1 -12 8 0 18 35 46 89 70 22 11 41 23 41 28 0 12 -3 11 -65 -27 -86 -51 -95
-62 -95 -111 0 -24 -4 -45 -9 -49 -5 -3 -24 20 -41 50 -29 50 -30 56 -16 71 9
8 20 23 25 33 16 30 201 75 201 49 0 -22 67 13 166 87 22 16 64 41 92 55 28
14 54 31 57 38 7 19 -16 12 -180 -53 -38 -16 -88 -34 -110 -42 -22 -8 -47 -20
-55 -28 -21 -18 -124 -65 -143 -65 -22 0 -61 84 -53 115 3 13 19 31 34 39 36
20 19 20 -19 0 -17 -8 -32 -14 -33 -12 -11 14 -27 70 -23 75 7 7 146 5 158 -3
4 -2 53 19 108 48 92 48 98 53 70 56 -17 2 -53 -6 -80 -17 -26 -12 -54 -21
-62 -21 -8 0 -35 -9 -61 -21 -28 -12 -62 -19 -84 -17 -32 3 -40 8 -58 44 -16
33 -22 38 -32 27 -17 -17 -29 -16 -36 3 -4 10 1 22 11 29 25 19 11 28 -21 14
-27 -13 -43 -8 -32 9 3 6 42 13 86 17 44 4 83 12 87 18 3 6 1 7 -6 3 -6 -4
-18 -2 -26 4 -8 7 -22 9 -31 6 -8 -3 -23 1 -31 10 -10 9 -18 11 -22 6 -9 -15
-43 17 -64 58 -10 19 -15 26 -11 15 15 -47 15 -52 0 -52 -9 0 -16 4 -16 9 0 5
-5 6 -10 3 -6 -3 -10 0 -10 7 0 9 -3 9 -10 -2 -6 -10 -10 -11 -10 -2 0 6 -6
12 -14 12 -8 0 -18 9 -21 20 -8 25 -21 26 -34 3 -6 -10 -11 -12 -11 -5 0 6 -6
12 -14 12 -8 0 -17 8 -19 18 -4 16 -5 16 -6 -1 -1 -17 -2 -17 -21 0 -10 10
-23 30 -29 43 -9 24 -10 24 -10 3 -1 -17 -5 -21 -18 -17 -10 3 -25 8 -33 10
-12 4 -12 7 -1 13 9 6 10 11 2 15 -6 4 -11 2 -11 -3 0 -20 -42 -12 -47 9 -3
11 -10 20 -15 20 -5 0 -6 -4 -3 -10 3 -6 -3 -10 -14 -10 -12 0 -21 4 -21 9 0
5 -9 7 -20 4 -12 -3 -22 1 -26 10 -3 9 -15 14 -32 12 -14 -1 -36 4 -48 12 -18
11 -23 11 -27 1 -4 -9 -6 -8 -6 4 -1 11 -7 15 -21 11 -12 -3 -20 0 -20 7 0 10
-3 10 -15 0 -13 -11 -19 -8 -40 14 -36 39 -31 55 7 20 23 -21 29 -24 24 -10
-5 16 -4 17 9 6 9 -7 18 -10 22 -7 3 4 12 2 19 -4 9 -8 11 -5 8 13 -2 13 -1
16 2 8 7 -18 34 -40 47 -40 5 0 3 7 -4 17 -13 15 -12 15 8 3 12 -8 19 -18 17
-22 -3 -4 -1 -8 5 -8 5 0 13 5 16 10 9 15 19 12 45 -10 30 -26 30 -26 17 10
-8 21 -8 33 -1 40 7 7 10 4 10 -11 -1 -12 5 -23 12 -25 7 -1 8 0 2 3 -5 2 -10
9 -10 14 0 6 4 8 9 5 5 -4 12 0 14 6 3 7 6 4 6 -7 1 -16 3 -17 11 -5 8 13 11
13 22 1 9 -10 10 -12 1 -7 -9 5 -11 2 -7 -8 3 -9 10 -16 15 -16 5 0 9 -6 9
-14 0 -14 29 -30 38 -21 3 3 1 5 -5 5 -11 0 -33 44 -33 67 0 14 2 14 15 -3 9
-12 14 -14 15 -6 0 25 44 8 59 -23 16 -36 50 -75 65 -75 6 0 5 4 -2 9 -8 4
-13 11 -13 15 3 20 0 26 -9 21 -17 -10 -33 46 -20 70 7 13 9 14 6 3 -6 -21 2
-22 27 -4 9 7 17 24 18 37 1 22 2 21 11 -6 5 -16 10 -38 10 -48 -1 -10 4 -15
10 -11 7 5 9 1 5 -9 -3 -10 -3 -17 1 -17 4 0 13 -14 21 -30 17 -39 59 -90 74
-90 7 0 0 12 -16 25 -29 26 -60 89 -71 145 -5 26 -4 31 3 20 9 -13 11 -13 11
1 0 9 6 16 14 16 8 0 12 -6 9 -14 -3 -7 0 -13 5 -13 6 0 13 17 15 38 l4 37 1
-37 c1 -21 7 -38 12 -38 6 0 10 -6 9 -12 -6 -35 86 -188 112 -188 4 0 -5 13
-21 30 -27 29 -33 41 -64 135 -21 64 -21 82 -2 66 12 -10 13 -8 9 8 -3 12 -1
21 5 21 6 0 13 -18 17 -40 4 -22 11 -42 16 -46 12 -7 11 13 -1 37 -14 25 -16
87 -4 99 6 6 8 -6 6 -33 -2 -33 -1 -39 8 -27 10 13 11 12 6 -3 -3 -10 1 -31 9
-46 8 -16 12 -31 9 -34 -3 -2 4 -20 15 -38 12 -19 21 -41 21 -50 0 -9 9 -27
20 -40 12 -15 18 -18 14 -7 -3 9 -1 26 5 37 8 14 8 22 -1 27 -6 4 -8 3 -5 -2
3 -6 2 -15 -2 -22 -4 -7 -14 8 -25 38 -18 49 -18 52 -1 70 15 17 16 24 6 42
-11 23 -11 23 -8 -3 2 -16 -1 -26 -9 -26 -9 0 -11 9 -7 27 3 16 0 31 -7 35 -9
5 -10 1 -5 -15 5 -15 4 -20 -4 -16 -6 4 -11 24 -10 44 0 22 3 31 7 22 7 -16
24 -23 58 -24 12 -1 19 -6 17 -13 -3 -6 5 -33 16 -59 12 -25 21 -53 21 -61 0
-16 59 -143 67 -143 3 0 2 12 -1 26 -5 18 -3 24 5 18 7 -4 10 -2 8 5 -3 7 -8
12 -13 11 -9 -2 -26 19 -26 33 0 5 5 5 10 2 6 -3 10 1 10 10 0 9 -4 14 -9 10
-12 -7 -34 32 -26 45 3 6 2 10 -2 10 -5 0 -15 21 -22 48 -8 26 -16 54 -18 62
-9 29 -8 45 2 48 5 2 11 -2 13 -10 2 -9 0 -8 -7 2 -9 13 -11 13 -11 -1 0 -9 7
-19 15 -23 9 -3 15 0 15 10 0 8 5 12 10 9 6 -3 10 -1 10 4 0 41 41 -30 46 -79
2 -24 60 -160 68 -160 2 0 -3 20 -12 45 -15 46 -10 72 9 45 9 -13 10 -13 6 0
-2 8 -12 14 -21 14 -9 -1 -16 6 -16 15 0 9 -9 43 -20 75 -23 69 -23 66 -11 66
5 0 11 -8 13 -17 3 -15 5 -14 10 5 3 12 3 20 -1 18 -4 -3 -13 -1 -21 4 -11 7
34 8 61 1 6 -1 7 -10 10 -57 1 -14 8 -28 15 -31 8 -3 14 -12 14 -21 0 -8 2
-13 5 -10 3 3 -1 33 -9 67 -14 58 -13 62 2 56 9 -4 24 -9 33 -12 20 -6 36 -36
44 -85 3 -21 11 -40 17 -44 8 -5 9 -1 4 12 -4 10 -10 34 -13 53 -6 30 -4 32
13 23 10 -6 28 -24 39 -41 11 -17 27 -31 35 -31 17 0 46 -30 67 -70 7 -14 13
-19 13 -10 1 8 8 -1 17 -20 l15 -35 13 29 c11 26 9 35 -14 81 -14 28 -31 50
-36 48 -6 -2 -16 10 -23 27 -8 16 -20 30 -28 30 -8 0 -14 9 -14 19 0 11 -5 23
-12 27 -7 5 -8 2 -3 -7 4 -8 -13 7 -38 34 -26 26 -47 55 -47 65 -1 15 -2 15
-15 -2 -8 -11 -15 -15 -15 -10 0 5 -13 15 -29 21 -35 13 -45 34 -104 218 -23
72 -47 136 -54 143 -7 8 -11 18 -8 23 4 5 2 9 -3 9 -6 0 -15 12 -21 28 -10 26
-41 82 -51 92 -12 12 -50 70 -50 76 0 4 -23 38 -51 75 -31 42 -49 75 -45 85 3
8 2 12 -4 9 -5 -3 -15 5 -22 19 -6 14 -16 26 -21 26 -5 0 -7 9 -4 20 3 11 0
23 -5 27 -7 4 -8 1 -3 -7 5 -9 4 -11 -3 -6 -7 4 -12 14 -12 22 0 8 -4 14 -9
14 -21 0 -20 -19 2 -51 13 -19 50 -72 82 -119 33 -47 69 -101 82 -120 12 -19
28 -41 34 -48 30 -35 124 -236 155 -331 20 -58 42 -121 51 -138 10 -22 13 -42
8 -60 -6 -20 -9 -23 -12 -11 -5 19 -36 34 -41 19 -6 -19 -19 -12 -30 17 -14
37 -53 164 -56 182 -1 8 -7 25 -14 37 -7 12 -10 28 -9 35 2 7 2 9 -1 5 -7 -14
-42 62 -36 80 5 15 4 15 -4 3 -9 -12 -13 -9 -22 14 -6 16 -8 38 -5 50 2 11 2
15 -1 8 -4 -9 -14 -3 -30 19 -13 18 -24 37 -24 41 0 5 -12 26 -26 48 -15 22
-23 44 -18 51 4 7 3 10 -3 6 -5 -3 -20 7 -31 23 -26 34 -27 41 -8 34 10 -4 14
1 13 15 -1 18 -3 19 -18 5 -15 -13 -19 -11 -39 23 -13 21 -23 49 -22 63 1 22
0 23 -7 5 -8 -19 -8 -19 -20 4 -7 12 -15 20 -18 18 -5 -5 58 -110 114 -188 38
-53 81 -129 119 -209 14 -30 45 -95 69 -145 56 -114 93 -244 73 -256 -21 -13
-28 -11 -21 9 5 15 4 15 -9 -1 -13 -18 -14 -18 -29 0 -9 10 -24 45 -33 78 -9
33 -21 68 -27 77 -12 23 -12 38 1 18 13 -21 29 25 23 68 -6 40 -19 50 -18 14
0 -22 -4 -27 -25 -27 -17 0 -26 6 -28 20 -3 17 -1 17 7 5 7 -10 11 -11 11 -2
0 6 -8 20 -17 30 -29 29 -95 162 -89 178 3 9 1 12 -4 9 -6 -3 -10 -1 -10 5 0
6 -11 28 -25 48 -23 34 -24 37 -8 45 14 6 13 7 -4 3 -23 -4 -38 17 -26 36 3 6
2 8 -4 5 -9 -6 -63 68 -63 88 0 5 -9 16 -20 23 -16 10 -20 10 -20 -2 0 -8 3
-16 8 -18 24 -11 192 -304 192 -336 0 -5 18 -46 40 -91 22 -45 40 -84 40 -87
0 -3 8 -18 18 -32 28 -41 44 -91 48 -155 3 -50 1 -56 -11 -43 -8 8 -12 23 -9
33 4 14 1 13 -12 -5 -19 -25 -39 -30 -30 -6 4 10 2 13 -6 8 -7 -5 -9 0 -6 14
4 12 2 20 -3 16 -5 -3 -9 3 -9 13 0 10 -9 37 -19 60 -17 36 -17 43 -5 54 10 8
14 8 14 0 0 -6 -6 -11 -12 -11 -9 0 -10 -3 -2 -8 6 -4 14 -14 17 -22 3 -8 6 4
6 28 1 26 -3 41 -9 37 -5 -3 -10 0 -11 7 0 7 -5 2 -10 -11 l-10 -25 -19 32
c-11 18 -20 37 -20 43 0 17 -67 177 -102 242 -11 21 -17 44 -14 52 3 8 0 14
-6 12 -6 -1 -27 23 -46 53 -19 30 -31 45 -28 34 4 -12 29 -59 56 -105 28 -45
50 -88 50 -94 0 -7 11 -37 24 -68 14 -30 22 -57 19 -61 -3 -3 -1 -12 5 -19 7
-8 9 -17 5 -20 -3 -4 -1 -7 6 -7 6 0 11 -6 10 -12 -2 -20 12 -58 22 -58 5 0 9
-9 9 -21 0 -11 5 -17 10 -14 6 3 10 -1 10 -10 0 -9 7 -26 15 -38 8 -13 16 -32
18 -42 1 -11 6 -26 10 -32 5 -8 3 -13 -5 -13 -8 0 -9 -3 -3 -8 6 -4 10 -13 9
-19 -1 -7 -3 -23 -4 -35 -2 -19 -3 -18 -9 7 -5 23 -11 29 -26 27 -11 -2 -23
-8 -26 -14 -3 -5 -9 9 -13 33 -5 30 -3 45 6 52 9 6 6 7 -9 4 -19 -4 -23 0 -29
29 -3 19 -11 34 -16 34 -6 0 -5 7 2 15 11 13 10 14 -2 10 -18 -7 -44 47 -32
67 4 7 3 10 -1 5 -5 -4 -15 5 -22 20 l-13 28 5 -33 c3 -19 23 -70 45 -115 22
-45 41 -97 42 -116 3 -30 -1 -35 -24 -42 -21 -5 -28 -3 -31 10 -4 12 -5 12 -6
-4 -1 -13 -7 -6 -16 20 -18 50 -19 85 -2 81 6 -1 9 -1 5 1 -5 3 -8 12 -8 21
-1 16 -2 16 -14 0 -12 -16 -14 -16 -26 8 -12 22 -12 27 0 35 12 8 11 9 -4 7
-15 -2 -21 5 -28 32 -13 51 -18 63 -23 58 -7 -7 24 -108 42 -134 18 -28 31
-81 37 -149 3 -34 2 -42 -3 -24 -17 53 -31 71 -47 58 -16 -13 -19 -39 -3 -39
5 0 7 -5 3 -11 -12 -21 -27 9 -27 56 0 28 -4 41 -9 33 -4 -7 -8 -11 -8 -8 0 3
-16 41 -35 85 -25 59 -35 73 -35 53 0 -16 5 -28 10 -28 6 0 10 -7 10 -15 0 -8
11 -39 24 -69 14 -32 22 -64 19 -77 -4 -15 -3 -20 5 -15 8 5 10 1 5 -10 -4
-11 -8 -13 -11 -6 -2 7 -13 12 -23 12 -11 0 -17 -4 -14 -10 3 -6 -1 -7 -9 -4
-9 3 -16 12 -16 20 0 8 -4 14 -10 14 -5 0 -10 8 -10 18 0 9 -8 31 -17 47 -9
17 -24 64 -34 105 -14 60 -17 66 -15 30 2 -25 7 -54 11 -65 4 -11 13 -37 21
-58 8 -21 11 -43 8 -49 -4 -6 -3 -8 3 -5 6 4 13 -4 15 -18 3 -15 0 -26 -9 -29
-22 -9 -25 -7 -17 7 5 8 2 7 -9 -2 -10 -8 -20 -11 -24 -7 -3 3 0 6 8 7 8 1 3
4 -11 8 -19 5 -29 21 -47 71 -16 47 -23 57 -23 37 0 -15 7 -41 15 -58 14 -26
14 -30 0 -35 -8 -4 -26 -3 -40 0 -19 5 -25 2 -26 -11 -1 -10 -5 -1 -10 21 -6
27 -6 43 2 53 7 7 9 16 5 20 -3 3 -6 1 -6 -6 0 -7 -4 -10 -10 -6 -5 3 -9 18
-9 33 1 34 -4 66 -12 72 -8 6 -64 231 -63 248 1 6 -1 12 -5 12 -4 0 -8 -23 -8
-51 0 -28 3 -46 7 -39 5 8 10 -3 15 -29 6 -35 4 -45 -12 -56 -15 -11 -19 -11
-26 1 -11 20 -30 17 -22 -3 4 -11 3 -14 -3 -8 -10 12 -43 125 -46 159 -1 5 -9
10 -18 12 -12 1 -18 -4 -18 -17 0 -12 -4 -17 -11 -14 -6 4 -8 13 -5 20 2 7 -2
16 -10 19 -8 3 -14 12 -12 19 4 19 -34 100 -54 115 -10 7 -18 19 -18 27 0 8
-7 11 -19 8 -16 -4 -21 2 -26 34 -3 21 -10 52 -15 69 -14 43 -12 51 5 28 13
-17 14 -17 15 -1 0 9 5 17 10 17 6 0 10 7 10 15 0 8 -4 15 -10 15 -5 0 -10 6
-10 13 1 6 14 -3 29 -21 29 -33 45 -88 30 -98 -5 -2 3 -25 17 -50 14 -25 28
-58 30 -72 3 -15 10 -32 16 -39 6 -7 7 -13 2 -13 -5 0 -4 -4 2 -8 5 -4 17 -17
26 -30 l16 -23 6 27 c5 19 2 32 -10 43 -15 15 -15 14 -4 -7 6 -13 9 -26 6 -29
-7 -8 -38 65 -40 94 0 11 -4 19 -7 17 -9 -5 -31 46 -35 83 -3 17 -10 49 -17
70 -11 31 -11 42 0 63 7 15 13 19 14 10 0 -10 3 -8 9 5 7 17 10 14 28 -25 l21
-45 -2 35 c-2 31 0 35 22 32 19 -2 21 0 12 12 -9 11 -8 15 3 19 11 5 18 -5 26
-36 32 -124 72 -218 84 -198 4 6 4 11 -1 11 -15 0 -49 93 -59 160 -10 70 -12
85 -7 93 5 9 32 -22 33 -38 0 -5 -4 -3 -10 5 -5 8 -12 11 -17 7 -9 -10 18 -28
30 -20 4 3 6 11 3 19 -11 28 14 23 29 -6 9 -17 11 -30 5 -30 -7 0 -7 -6 -1
-18 6 -9 13 -33 16 -52 3 -19 12 -48 21 -65 15 -31 14 -24 -4 55 -29 125 -31
135 -19 142 6 4 17 2 24 -3 7 -6 17 -8 22 -5 11 7 34 -28 24 -38 -3 -3 -1 -6
6 -6 9 0 11 -8 7 -23 -3 -13 0 -44 8 -68 l13 -44 -5 65 c-2 36 -9 73 -14 83
-7 13 -5 17 10 17 12 0 22 9 25 21 7 26 23 17 42 -24 11 -23 13 -25 9 -7 -4
14 -9 31 -12 39 -4 10 1 13 21 9 15 -3 27 -2 27 2 0 4 -11 10 -25 12 -14 3
-25 1 -25 -5 0 -6 -3 -8 -6 -4 -4 3 -4 13 -1 21 4 11 14 12 41 6 20 -4 36 -4
36 0 0 13 63 0 84 -18 19 -17 19 -17 3 8 -10 14 -23 25 -30 25 -7 0 -11 11 -9
25 2 20 0 22 -9 10 -8 -12 -10 -9 -6 13 2 15 0 27 -6 27 -5 0 -7 -16 -4 -39 4
-34 3 -38 -14 -34 -12 3 -19 14 -18 27 0 20 1 20 9 1 8 -18 9 -18 9 -2 1 20
-16 40 -38 45 -9 2 -11 -3 -6 -15 13 -31 18 -70 7 -54 -8 11 -11 11 -16 0 -3
-8 -3 -4 -1 8 3 12 3 33 -1 47 -5 20 -12 26 -34 26 -16 0 -31 -6 -33 -12 -3
-8 -6 -6 -6 4 -1 10 -4 17 -8 17 -5 -1 -17 -1 -28 0 -17 1 -18 3 -5 11 8 5 11
10 5 11 -5 1 -14 3 -20 4 -5 2 -14 3 -19 4 -5 0 -3 8 4 16 8 10 32 15 74 16
76 1 125 17 54 18 -26 1 -50 6 -53 11 -3 6 -1 10 5 10 7 0 10 6 7 14 -4 10 8
15 44 20 28 4 47 11 44 16 -4 6 -18 8 -33 4 -18 -3 -12 2 16 15 45 21 48 41 8
41 -42 0 -86 12 -86 24 0 6 -14 20 -30 31 -16 11 -30 23 -30 28 0 4 -10 7 -21
7 -18 0 -19 2 -9 15 9 10 9 15 1 15 -6 0 -11 11 -11 25 0 17 5 25 18 25 10 0
23 5 29 11 7 7 17 8 29 1 11 -5 30 -6 43 -3 26 7 41 31 19 31 -10 0 -9 3 2 10
13 9 13 11 0 20 -8 5 -33 12 -55 16 -94 15 -81 48 22 52 86 4 172 -13 191 -36
19 -25 39 0 24 32 -8 18 -16 23 -32 19 -13 -3 -38 3 -62 17 -45 25 -96 29
-110 8 -7 -10 -11 -9 -19 5 -6 10 -22 17 -42 17 -22 0 -36 7 -46 21 -12 20
-11 21 8 16 15 -4 21 0 21 11 0 10 7 26 15 36 14 19 16 19 34 2 19 -17 20 -17
33 3 15 24 33 27 41 7 7 -17 58 -7 65 12 6 20 -44 37 -73 24 -32 -15 -78 -17
-55 -2 23 14 -25 52 -57 43 -21 -5 -24 -3 -20 13 3 11 9 35 12 54 4 19 11 40
17 47 5 6 11 33 14 60 3 26 10 64 16 83 5 19 12 50 14 68 4 26 1 32 -15 32
-10 0 -24 7 -31 15 -7 8 -18 15 -26 15 -7 0 -28 6 -46 14 -49 21 -72 29 -80
28 -5 -1 -8 9 -8 23 0 20 6 27 30 32 16 3 30 12 30 19 0 8 7 14 15 14 8 0 15
5 15 10 0 6 -5 10 -12 10 -6 0 -8 3 -5 6 4 4 13 1 22 -6 9 -7 19 -9 23 -5 4 4
1 10 -5 12 -7 3 -13 9 -13 15 0 6 6 6 15 -2 11 -9 22 -9 52 1 21 7 44 17 51
23 9 6 11 4 6 -10 -5 -18 -5 -18 9 -2 8 10 18 14 22 10 4 -4 5 10 1 31 -5 27
-4 37 3 32 6 -3 21 1 33 9 12 9 30 16 38 16 26 0 70 24 70 38 0 7 4 10 10 7 5
-3 10 -1 10 6 0 8 7 5 20 -6 13 -11 25 -15 37 -10 10 5 23 7 29 6 6 0 15 8 20
19 9 21 9 21 31 1 25 -23 89 -52 97 -43 3 3 6 3 7 1 0 -2 4 -38 9 -79 5 -41
14 -95 19 -120 5 -25 11 -83 13 -128 2 -46 6 -86 9 -88 3 -2 16 36 29 84 12
48 31 107 41 131 11 24 19 61 19 83 0 21 9 56 20 78 16 31 18 44 9 68 -5 16
-9 33 -8 38 4 21 -2 34 -26 60 -14 15 -25 37 -25 50 0 25 -17 76 -29 84 -4 3
-15 28 -26 55 -10 28 -32 64 -49 81 -17 17 -38 43 -46 58 -17 33 -58 56 -97
56 -16 0 -39 7 -52 17 -19 13 -28 14 -42 4 -23 -13 -85 -2 -120 23 -13 9 -33
16 -46 16 -12 0 -25 5 -28 11 -10 15 -84 8 -126 -12 -25 -12 -54 -17 -97 -15
-34 2 -59 -1 -56 -5 3 -5 -6 -9 -19 -9 -14 0 -27 7 -31 15 -3 8 -10 15 -16 15
-6 0 -9 -4 -6 -9 9 -14 -19 -21 -59 -14 -33 5 -41 2 -78 -35 l-42 -41 -140 -5
c-1020 -41 -1137 -45 -1500 -56 -192 -5 -388 -12 -435 -15 -273 -17 -923 -40
-1142 -40 -47 0 -84 -3 -81 -7 4 -8 -126 -14 -157 -8 -8 1 -84 2 -167 1 -130
-1 -153 1 -153 14 0 11 11 15 40 15 22 0 40 4 40 9 0 12 61 23 135 25 33 1 67
6 74 10 8 5 53 10 100 12 112 5 113 5 131 11 28 11 159 20 302 23 25 0 30 55
29 314 -1 361 -9 434 -45 458 -11 8 -72 9 -91 3z m-798 -887 c-3 -7 -5 -2 -5
12 0 14 2 19 5 13 2 -7 2 -19 0 -25z m-157 -3 c0 -8 -7 -15 -15 -15 -8 0 -15
7 -15 15 0 8 7 15 15 15 8 0 15 -7 15 -15z m110 11 c0 -2 -7 -6 -15 -10 -8 -3
-15 -1 -15 4 0 6 7 10 15 10 8 0 15 -2 15 -4z m-50 -16 c0 -5 -12 -10 -27 -10
-22 0 -25 2 -13 10 20 13 40 13 40 0z m4286 -751 c3 -6 0 -15 -7 -20 -21 -13
-33 -11 -20 4 6 8 8 17 4 20 -3 4 -1 7 5 7 6 0 14 -5 18 -11z m54 -43 c0 -9
-30 -14 -35 -6 -4 6 3 10 14 10 12 0 21 -2 21 -4z m-290 -26 c-20 -13 -33 -13
-25 0 3 6 14 10 23 10 15 0 15 -2 2 -10z m100 -32 c25 -7 48 -17 51 -22 4 -5
21 -7 38 -4 36 5 36 5 14 -17 -14 -14 -14 -18 -2 -26 12 -8 11 -11 -3 -20 -10
-5 -18 -21 -18 -34 0 -15 -5 -24 -12 -22 -7 1 -12 -6 -11 -16 0 -11 -4 -16
-11 -14 -7 3 -19 -3 -26 -14 -14 -19 -54 -17 -75 3 -7 7 -1 8 15 4 23 -6 24
-6 5 6 -37 24 -74 69 -68 84 3 7 1 14 -5 14 -19 0 -23 32 -5 46 15 11 15 14 3
15 -8 1 -19 1 -23 0 -5 -1 -7 4 -5 11 3 8 16 12 31 10 16 -2 27 1 27 8 0 7 7
10 18 7 9 -4 37 -12 62 -19z m209 -160 c5 -14 5 -26 -2 -29 -5 -4 -2 -9 9 -12
14 -4 12 -5 -5 -4 -28 2 -47 27 -38 51 9 23 26 20 36 -6z m181 -224 c0 -2 -9
-4 -20 -4 -11 0 -20 4 -20 9 0 5 9 7 20 4 11 -3 20 -7 20 -9z m-3303 -526 c35
-38 35 -75 1 -103 -37 -31 -53 -31 -83 0 -46 46 -24 125 35 125 15 0 36 -10
47 -22z m313 -29 c37 -44 3 -104 -54 -94 -16 3 -52 5 -81 5 -46 0 -53 3 -63
25 -31 68 -7 90 97 89 72 -1 83 -4 101 -25z m1520 -33 c0 -5 -100 -66 -109
-66 -4 0 -20 -20 -36 -45 -15 -25 -29 -44 -30 -43 -1 2 -5 16 -9 32 -6 25 -5
28 11 22 17 -6 17 -5 1 8 -21 16 -23 49 -5 64 7 6 39 12 70 13 30 1 62 6 69
10 13 9 38 12 38 5z m1407 -48 c-3 -7 -5 -2 -5 12 0 14 2 19 5 13 2 -7 2 -19
0 -25z m20 10 c-3 -8 -6 -5 -6 6 -1 11 2 17 5 13 3 -3 4 -12 1 -19z m-167 -8
c0 -5 -4 -10 -10 -10 -5 0 -10 5 -10 10 0 6 5 10 10 10 6 0 10 -4 10 -10z m68
-6 c15 -3 35 -15 44 -27 16 -20 16 -23 1 -34 -9 -7 -19 -10 -22 -7 -3 4 0 9 7
11 9 4 6 10 -10 21 -13 9 -25 17 -28 18 -18 3 -40 18 -40 26 0 5 5 6 10 3 6
-4 23 -9 38 -11z m76 -16 c7 -5 4 -8 -6 -8 -12 0 -18 7 -17 23 0 15 2 17 6 7
3 -8 11 -18 17 -22z m-137 -20 c-3 -8 -6 -5 -6 6 -1 11 2 17 5 13 3 -3 4 -12
1 -19z m-253 -47 c14 -26 14 -30 0 -35 -22 -9 -31 -7 -16 2 9 7 10 15 3 35
-14 36 -5 34 13 -2z m-164 -33 c18 -29 44 -63 58 -74 20 -18 25 -32 28 -89 2
-37 7 -73 11 -79 4 -7 0 -3 -9 7 -10 11 -18 27 -18 36 -1 11 -8 8 -25 -14 -21
-25 -25 -27 -31 -12 -3 10 -4 20 -1 23 3 4 2 17 -3 30 -8 19 -4 27 21 48 l30
26 -33 42 c-34 44 -73 108 -65 108 3 0 20 -24 37 -52z m96 -1 l15 -32 -25 28
c-15 15 -26 33 -26 38 0 18 20 -1 36 -34z m156 11 c-7 -7 -12 -8 -12 -2 0 6 3
14 7 17 3 4 9 5 12 2 2 -3 -1 -11 -7 -17z m-861 -85 c12 -38 28 -81 36 -98 13
-27 12 -28 -1 -11 -9 10 -25 49 -37 85 -12 36 -24 72 -27 79 -2 6 -2 12 1 12
3 0 15 -30 28 -67z m504 -120 c5 -18 3 -22 -10 -17 -9 4 -13 9 -10 12 3 3 -2
13 -10 22 -8 9 -16 26 -18 39 -2 12 -10 30 -18 39 -9 10 -14 23 -12 29 2 6 -1
14 -6 18 -6 3 -11 14 -11 23 0 18 83 -127 95 -165z m-338 135 c-3 -7 -5 -2 -5
12 0 14 2 19 5 13 2 -7 2 -19 0 -25z m3 -57 c0 -6 -4 -13 -10 -16 -5 -3 -10 1
-10 9 0 9 5 16 10 16 6 0 10 -4 10 -9z m430 -88 c0 -13 -5 -33 -11 -44 -10
-20 -11 -20 -34 3 -29 27 -31 43 -9 52 13 5 14 3 6 -6 -7 -10 -5 -20 10 -38
l20 -25 -7 48 c-6 41 -5 46 9 41 9 -3 16 -17 16 -31z m-444 -28 c9 -39 0 -30
-15 15 -6 19 -7 30 -2 25 5 -6 13 -23 17 -40z m-36 -62 c0 -2 -4 -3 -10 -3 -5
0 -10 5 -10 11 0 6 -7 17 -15 25 -8 9 -15 20 -15 27 0 6 11 -4 25 -23 14 -19
25 -35 25 -37z m434 14 c4 -19 3 -26 -4 -22 -5 3 -10 18 -10 32 0 32 5 28 14
-10z m242 5 c1 -7 0 -8 -3 -2 -8 16 -26 11 -19 -6 3 -8 2 -12 -4 -9 -6 3 -10
13 -10 21 0 18 32 15 36 -4z m-76 -2 c0 -5 -2 -10 -4 -10 -3 0 -8 5 -11 10 -3
6 -1 10 4 10 6 0 11 -4 11 -10z m-197 -19 c5 -19 -14 -23 -30 -7 -6 5 12 25
23 26 1 0 4 -9 7 -19z m211 -16 c3 -8 1 -15 -3 -15 -5 0 -11 7 -15 15 -3 8 -1
15 3 15 5 0 11 -7 15 -15z m88 -50 c2 -20 -1 -36 -8 -39 -6 -2 -11 1 -11 7 1
37 -4 57 -13 52 -5 -3 -10 -1 -10 4 0 6 9 11 19 11 14 0 20 -9 23 -35z m-50
-27 c-13 -13 -24 5 -16 27 7 16 8 16 17 0 6 -11 6 -20 -1 -27z m137 -129 c1
-9 -5 -16 -11 -16 -9 0 -14 18 -14 51 l-2 51 13 -35 c8 -19 14 -42 14 -51z
m-34 11 c-3 -5 -12 -10 -18 -10 -7 0 -6 4 3 10 19 12 23 12 15 0z m-78 -22
c-3 -8 -6 -5 -6 6 -1 11 2 17 5 13 3 -3 4 -12 1 -19z m977 -22 c-6 -15 -28
-16 -41 -1 -4 4 -3 6 2 2 6 -3 17 -2 25 4 20 12 20 11 14 -5z m-734 -6 c0 -5
-8 -10 -17 -10 -15 0 -16 2 -3 10 19 12 20 12 20 0z m-3 -79 c-3 -10 -5 -7 -6
7 0 13 -5 20 -11 17 -12 -7 -12 -3 -3 21 6 15 8 14 15 -6 5 -13 7 -31 5 -39z
m4 -30 c6 10 9 5 9 -16 0 -18 3 -25 8 -18 5 8 8 -3 9 -25 0 -20 2 -44 4 -52 2
-8 0 -16 -5 -17 -5 -1 -13 -7 -17 -15 -5 -7 -6 4 -2 26 6 36 4 39 -14 34 -13
-3 -20 0 -20 9 0 9 7 11 21 7 16 -5 18 -4 9 6 -6 7 -9 18 -7 25 3 6 -2 18 -11
25 -8 7 -15 18 -15 24 0 6 5 3 11 -8 9 -15 13 -16 20 -5z m-21 -31 c0 -5 -5
-10 -11 -10 -5 0 -7 5 -4 10 3 6 8 10 11 10 2 0 4 -4 4 -10z m-60 -65 c0 -5
-5 -3 -10 5 -5 8 -10 20 -10 25 0 6 5 3 10 -5 5 -8 10 -19 10 -25z m497 -57
c-3 -8 -6 -5 -6 6 -1 11 2 17 5 13 3 -3 4 -12 1 -19z m-490 -10 c-3 -8 -6 -5
-6 6 -1 11 2 17 5 13 3 -3 4 -12 1 -19z m823 -93 c0 -23 -3 -27 -10 -15 -5 8
-10 29 -10 45 0 23 3 27 10 15 5 -8 10 -28 10 -45z m-885 -93 c-7 -8 -35 7
-35 18 0 6 7 6 20 -2 10 -7 17 -14 15 -16z m32 -4 c-3 -8 -6 -5 -6 6 -1 11 2
17 5 13 3 -3 4 -12 1 -19z m273 -8 c0 -5 -5 -10 -11 -10 -5 0 -7 5 -4 10 3 6
8 10 11 10 2 0 4 -4 4 -10z m-233 -185 c20 -8 34 -18 30 -21 -3 -3 -22 4 -44
15 -45 24 -37 27 14 6z m128 -36 c35 -13 48 -36 20 -36 -8 0 -15 4 -15 9 0 5
-8 8 -17 6 -11 -2 -17 2 -15 11 2 10 -4 12 -23 7 -16 -4 -24 -3 -21 3 3 5 0
12 -6 15 -25 10 42 -3 77 -15z m110 -29 c11 -5 35 -13 54 -19 29 -9 32 -9 27
6 -4 9 5 5 20 -11 19 -19 30 -23 35 -15 5 9 11 8 23 -4 9 -9 24 -13 32 -10 8
3 28 -4 44 -16 20 -14 28 -16 24 -7 -4 10 1 14 14 13 12 0 20 -5 19 -10 -1 -5
4 -12 11 -14 6 -3 12 1 12 8 0 6 14 -2 30 -19 23 -25 30 -28 30 -14 0 10 3 13
8 6 4 -6 14 -13 22 -16 10 -4 4 -11 -20 -21 -30 -13 -36 -13 -43 -1 -11 19
-38 18 -31 -1 4 -11 -6 -9 -45 7 -28 12 -53 30 -56 39 -5 15 -11 16 -41 7 -20
-5 -38 -7 -42 -4 -3 3 2 6 11 6 21 0 22 16 2 24 -8 3 -15 0 -15 -6 0 -7 -7 -3
-16 8 -8 10 -13 13 -9 7 10 -20 -13 -15 -24 5 -6 9 -11 11 -11 5 0 -16 -21
-12 -36 6 -9 11 -13 12 -19 1 -6 -10 -12 -7 -26 11 -17 22 -19 23 -19 4 -1
-18 -2 -17 -15 5 -8 14 -14 28 -15 32 0 7 34 1 65 -12z m95 -370 c-8 -5 -24
-9 -35 -9 -16 1 -16 2 5 9 35 11 48 11 30 0z m-1440 -14 c0 -2 -7 -9 -15 -16
-13 -11 -14 -10 -9 4 5 14 24 23 24 12z m1378 -13 c-2 -12 3 -17 14 -15 9 1
19 -2 23 -8 3 -5 1 -10 -4 -10 -20 0 -12 -66 9 -85 11 -10 20 -23 20 -29 0
-10 25 -24 73 -40 24 -8 22 -26 -4 -26 -37 0 -57 -17 -52 -45 3 -14 0 -39 -7
-55 -10 -25 -15 -28 -31 -19 -11 5 -24 7 -30 4 -5 -4 -16 -1 -24 5 -18 15 -31
7 -40 -27 -14 -57 -49 -71 -65 -27 -6 14 -14 23 -18 20 -5 -3 -21 6 -37 20
-15 13 -31 24 -35 24 -4 0 -10 9 -13 21 -3 11 -15 23 -26 26 -12 3 -21 10 -21
15 0 6 -7 5 -15 -2 -12 -10 -15 -10 -15 4 0 12 -10 16 -39 16 -29 0 -41 5 -44
18 -2 9 -3 7 -2 -6 1 -12 -2 -25 -6 -28 -5 -3 -9 2 -9 10 0 9 -4 16 -10 16 -5
0 -10 -4 -10 -10 0 -5 -7 -10 -15 -10 -8 0 -15 7 -15 17 0 22 -10 11 -15 -17
-6 -32 -12 -35 -25 -11 -8 17 -17 20 -38 15 -15 -4 -33 -11 -40 -17 -10 -8
-16 -7 -22 3 -7 11 -11 10 -25 -3 -22 -22 -53 -24 -35 -2 10 12 9 15 -4 15
-24 0 -49 -27 -42 -46 4 -11 1 -14 -13 -9 -11 3 -22 1 -26 -5 -3 -5 -15 -10
-26 -10 -14 0 -18 -4 -13 -12 5 -8 0 -7 -11 2 -11 9 -16 10 -11 3 4 -7 3 -13
-3 -13 -5 0 -15 8 -20 18 -6 9 -11 11 -11 5 0 -7 -5 -13 -11 -13 -7 0 -8 12
-4 33 9 42 -10 25 -24 -23 -10 -34 -10 -34 -5 10 10 79 44 175 76 214 29 36
31 36 55 21 20 -13 39 -15 101 -10 237 20 594 69 621 85 22 13 22 13 19 -7z
m-1471 -18 c-19 -18 -40 -20 -34 -2 2 6 9 12 15 12 5 0 14 3 18 8 4 4 9 5 12
2 2 -2 -3 -11 -11 -20z m259 -2 c-1 -18 -14 -33 -29 -33 -4 0 0 11 9 25 19 30
22 31 20 8z m-175 -23 c10 0 19 -4 19 -10 0 -5 -4 -10 -9 -10 -17 0 -71 22
-71 29 0 17 13 19 27 6 8 -8 23 -15 34 -15z m258 23 c-10 -2 -20 -12 -23 -21
-3 -9 -9 -23 -12 -30 -5 -10 6 -12 51 -10 31 2 59 0 61 -4 3 -4 -26 -8 -65 -8
-63 0 -70 -2 -77 -22 -4 -13 -12 -26 -18 -30 -8 -6 -6 -11 4 -18 11 -7 11 -10
2 -10 -7 0 -22 -19 -33 -42 -20 -43 -20 -43 -13 -8 4 19 7 42 8 50 1 8 10 31
21 50 10 19 18 41 16 49 -2 9 3 12 14 7 10 -3 14 -2 10 4 -8 13 34 50 55 49
12 -1 11 -2 -1 -6z m71 -11 c0 -4 -9 -8 -20 -8 -11 0 -20 4 -20 8 0 4 9 8 20
8 11 0 20 -4 20 -8z m51 -11 c-8 -5 -20 -7 -28 -4 -21 8 -15 13 15 13 20 0 23
-3 13 -9z m65 -6 c14 -13 13 -15 -5 -15 -22 0 -41 -20 -19 -20 9 -1 8 -4 -3
-10 -9 -5 -22 -24 -30 -42 -7 -18 -23 -50 -36 -70 -13 -21 -23 -44 -23 -53 0
-8 -4 -15 -10 -15 -13 0 -12 10 5 40 8 14 14 36 15 50 0 40 60 147 83 149 5 1
15 -6 23 -14z m38 6 c4 -5 -3 -7 -14 -4 -23 6 -26 13 -6 13 8 0 17 -4 20 -9z
m-436 -54 c-15 -17 -28 -39 -30 -50 -3 -22 -28 -37 -28 -17 0 6 14 31 30 56
17 24 28 44 25 44 -3 0 -3 4 0 10 4 6 11 6 18 -2 10 -9 7 -18 -15 -41z m-98
38 c0 -3 -9 -14 -20 -25 -23 -23 -26 -19 -8 10 12 18 28 27 28 15z m161 -46
c-17 -17 -31 -40 -31 -50 0 -11 -6 -19 -13 -19 -27 0 -26 13 4 43 17 17 35 42
40 55 7 18 13 22 20 15 8 -8 2 -21 -20 -44z m462 44 c-7 -2 -21 -2 -30 0 -10
3 -4 5 12 5 17 0 24 -2 18 -5z m-783 -28 c-7 -9 -15 -13 -17 -11 -7 7 7 26 19
26 6 0 6 -6 -2 -15z m700 5 c0 -5 -7 -10 -16 -10 -8 0 -12 5 -9 10 3 6 10 10
16 10 5 0 9 -4 9 -10z m80 -6 c0 -2 -17 -4 -37 -4 -24 0 -33 3 -25 9 12 7 62
4 62 -5z m-660 -39 c0 -8 -7 -15 -15 -15 -16 0 -20 12 -8 23 11 12 23 8 23 -8z
m50 -15 c0 -5 -4 -10 -10 -10 -5 0 -10 5 -10 10 0 6 5 10 10 10 6 0 10 -4 10
-10z m570 -11 c0 -8 -83 -16 -100 -11 -6 2 -8 7 -6 10 5 9 106 9 106 1z m-285
-9 c3 -5 -3 -10 -15 -10 -12 0 -18 5 -15 10 3 6 10 10 15 10 5 0 12 -4 15 -10z
m2149 -24 c3 -23 1 -25 -23 -19 -37 9 -39 12 -11 33 29 22 31 21 34 -14z
m-2101 17 c-7 -2 -19 -2 -25 0 -7 3 -2 5 12 5 14 0 19 -2 13 -5z m5810 -65 c6
-41 3 -44 -28 -28 -27 15 -34 40 -10 40 8 0 15 5 15 10 0 25 18 7 23 -22z
m-5063 -23 c0 -8 -2 -15 -4 -15 -2 0 -6 7 -10 15 -3 8 -1 15 4 15 6 0 10 -7
10 -15z m840 -5 c0 -5 -7 -10 -16 -10 -8 0 -12 5 -9 10 3 6 10 10 16 10 5 0 9
-4 9 -10z m50 -45 c0 -9 -49 -5 -55 5 -3 5 0 16 7 24 11 12 16 11 31 -5 9 -10
17 -21 17 -24z m70 -115 c-8 -5 -22 -9 -30 -9 -10 0 -8 3 5 9 27 12 43 12 25
0z m635 -251 c0 -23 -4 -33 -14 -31 -7 1 -19 -2 -26 -8 -11 -9 -16 -3 -24 27
-6 21 -11 40 -11 43 0 3 17 5 37 4 36 -1 38 -3 38 -35z m-84 4 c5 -13 9 -34 9
-47 0 -18 -6 -22 -34 -23 -19 -1 -41 -5 -48 -9 -7 -4 -27 -7 -45 -5 -23 2 -35
-2 -39 -13 -3 -9 -14 -16 -23 -16 -9 0 -22 -5 -29 -12 -6 -6 -15 -8 -19 -4 -9
8 35 45 54 46 7 0 28 7 47 17 30 14 33 19 25 35 -9 17 -8 18 10 6 12 -7 21
-17 21 -23 0 -5 7 1 16 14 12 17 13 26 5 34 -17 17 -13 25 15 25 18 0 28 -8
35 -25z m3439 -42 c0 -6 -4 -13 -10 -16 -5 -3 -10 1 -10 9 0 9 5 16 10 16 6 0
10 -4 10 -9z m-2428 -46 c-13 -153 -17 -170 -39 -173 -14 -2 -23 2 -23 10 0
10 -3 9 -10 -2 -8 -12 -14 -10 -38 13 -15 15 -33 27 -40 27 -6 0 -14 16 -18
35 -3 19 -14 40 -23 45 -14 8 -13 9 6 10 29 0 53 10 53 22 0 6 -7 8 -15 4 -8
-3 -15 -1 -15 4 0 5 10 12 23 14 12 3 40 9 62 15 65 15 80 11 77 -24z m-1262
-52 c0 -26 -1 -26 -17 -10 -16 16 -16 19 -3 27 20 13 20 13 20 -17z m-50 -13
c0 -5 -5 -10 -11 -10 -5 0 -7 5 -4 10 3 6 8 10 11 10 2 0 4 -4 4 -10z m3730
-67 c48 -28 44 -73 -5 -73 -46 0 -82 59 -48 79 23 13 20 14 53 -6z m-5679
-225 c0 -24 4 -95 8 -158 4 -80 3 -126 -6 -150 l-12 -35 -16 40 c-16 39 -69
146 -121 243 -30 55 -24 64 56 85 89 23 90 23 91 -25z m3062 -49 c4 -15 12
-20 31 -17 46 6 31 -17 -17 -26 -39 -7 -51 -5 -66 8 -10 9 -23 16 -29 16 -16
0 -15 27 1 33 6 3 26 6 43 6 24 1 33 -4 37 -20z m-120 -59 c7 0 27 -13 43 -30
16 -16 40 -30 54 -30 24 -1 24 -1 6 -15 -29 -22 -56 -18 -106 15 -25 16 -51
30 -57 30 -7 0 -13 5 -13 10 0 6 -11 15 -24 21 -14 7 -22 17 -19 25 8 22 37
21 70 -3 17 -13 38 -23 46 -23z m304 44 c-3 -3 -12 -4 -19 -1 -8 3 -5 6 6 6
11 1 17 -2 13 -5z m-492 -65 c11 -32 -9 -45 -39 -25 -14 9 -32 16 -41 16 -21
0 -19 17 3 23 44 12 71 7 77 -14z m418 -99 c14 -12 -22 -32 -68 -38 -35 -3
-46 -1 -51 12 -14 36 3 47 58 40 29 -4 57 -10 61 -14z m-585 -17 c4 -30 -36
-43 -55 -17 -23 31 -16 46 20 42 24 -2 33 -8 35 -25z m202 -68 c13 -15 6 -35
-12 -35 -14 0 -48 30 -48 42 0 14 47 9 60 -7z m426 -21 c8 -33 -4 -44 -55 -51
-36 -5 -41 -3 -41 14 0 55 84 87 96 37z m-591 -18 c23 -16 14 -46 -14 -46 -21
0 -54 38 -45 52 8 12 38 10 59 -6z m-435 -18 c0 -7 -4 -19 -9 -27 -12 -19 -51
-4 -51 20 0 14 7 19 30 19 17 0 30 -5 30 -12z m255 -20 c30 -14 32 -33 4 -48
-16 -9 -25 -8 -40 6 -10 9 -19 23 -19 30 0 10 5 15 27 23 1 1 14 -4 28 -11z
m499 -28 c13 -13 -1 -40 -20 -40 -22 0 -54 29 -54 48 0 11 8 13 32 8 18 -3 36
-10 42 -16z m-165 -39 c21 -14 5 -41 -24 -41 -29 0 -45 27 -24 41 8 5 19 9 24
9 6 0 16 -4 24 -9z m-185 -41 c31 -12 33 -26 5 -40 -28 -16 -77 14 -58 36 14
17 19 17 53 4z m491 -14 c22 -16 14 -46 -12 -46 -20 0 -66 44 -56 54 11 11 48
7 68 -8z m-153 -54 c15 -15 -3 -42 -28 -42 -31 0 -68 39 -53 56 10 13 63 4 81
-14z m-187 -63 c0 -33 -38 -38 -59 -7 -15 21 -15 24 0 35 24 17 59 1 59 -28z
m422 -155 c-3 -3 -12 -4 -19 -1 -8 3 -5 6 6 6 11 1 17 -2 13 -5z m-164 -51
c-7 -2 -19 -2 -25 0 -7 3 -2 5 12 5 14 0 19 -2 13 -5z m-193 -53 c0 -5 -4 -10
-10 -10 -5 0 -10 5 -10 10 0 6 5 10 10 10 6 0 10 -4 10 -10z"/>
<path d="M4370 5960 c0 -5 5 -10 11 -10 5 0 7 5 4 10 -3 6 -8 10 -11 10 -2 0
-4 -4 -4 -10z"/>
<path d="M4290 5924 c0 -8 5 -12 10 -9 6 4 8 11 5 16 -9 14 -15 11 -15 -7z"/>
<path d="M4211 4714 c0 -11 3 -14 6 -6 3 7 2 16 -1 19 -3 4 -6 -2 -5 -13z"/>
<path d="M4177 4707 c-11 -29 -9 -43 4 -30 6 6 9 19 7 29 -3 18 -4 18 -11 1z"/>
<path d="M0 7720 c0 -5 7 -7 15 -4 19 8 19 14 0 14 -8 0 -15 -4 -15 -10z"/>
<path d="M4556 6353 c-11 -11 -6 -23 9 -23 8 0 15 4 15 9 0 13 -16 22 -24 14z"/>
<path d="M4863 6239 c-74 -9 -83 -14 -83 -40 0 -10 -7 -19 -15 -19 -14 0 -20
-13 -15 -35 1 -5 4 -23 6 -39 3 -29 14 -49 14 -28 0 7 5 12 11 12 6 0 8 -8 4
-19 -9 -28 30 -51 85 -51 28 0 40 3 32 9 -8 4 -13 12 -11 17 1 5 -9 15 -22 22
-23 13 -23 13 11 9 19 -3 52 2 73 10 20 9 46 13 57 10 53 -14 1 17 -75 44 -31
12 -41 18 -27 19 12 0 40 -9 62 -20 50 -25 62 -25 30 0 -14 11 -39 22 -57 26
-34 7 -54 33 -25 35 94 5 120 4 135 -3 24 -12 33 -3 17 18 -8 9 -23 14 -37 11
-13 -2 -26 0 -29 5 -3 5 -14 6 -24 3 -10 -3 -21 -1 -25 5 -3 5 -12 9 -18 9 -7
-1 -40 -5 -74 -10z m87 -124 c10 -12 8 -16 -11 -24 -29 -11 -33 -8 -24 18 8
25 18 27 35 6z"/>
<path d="M5181 6043 c1 -39 2 -43 9 -23 12 36 12 70 0 70 -5 0 -10 -21 -9 -47z"/>
<path d="M4820 5897 c0 -10 49 -87 55 -87 7 0 -19 49 -39 75 -8 11 -16 17 -16
12z"/>
<path d="M5102 5624 c-13 -31 -20 -59 -18 -61 5 -6 121 -20 229 -28 107 -9
106 -8 110 -221 1 -98 6 -172 12 -176 6 -4 18 -8 28 -8 15 0 17 15 17 169 0
186 2 193 63 196 75 4 735 -91 1172 -169 187 -33 352 -58 705 -106 162 -22
358 -49 435 -60 295 -43 395 -56 395 -53 0 2 -10 8 -22 13 -30 13 51 9 327
-19 116 -11 359 -35 540 -52 182 -17 362 -35 400 -39 115 -15 105 -24 105 95
0 100 -1 105 -22 109 -13 3 -180 19 -373 36 -192 17 -465 42 -605 55 -140 13
-379 36 -530 50 -358 32 -601 58 -950 100 -157 19 -373 44 -480 55 -107 11
-274 29 -370 40 -96 11 -227 24 -290 30 -63 6 -128 13 -145 15 -16 2 -118 14
-225 25 -208 22 -412 47 -458 56 -27 5 -30 2 -50 -52z"/>
<path d="M6448 5300 c-6 -18 7 -458 14 -465 4 -4 15 -5 24 -1 16 6 17 25 10
233 -7 218 -10 242 -38 243 -3 0 -8 -4 -10 -10z"/>
<path d="M4992 5201 c1 -16 -9 -46 -21 -66 l-22 -38 22 -23 c26 -28 15 -32
-14 -6 -19 16 -19 16 -15 -3 2 -14 -5 -26 -24 -37 -34 -21 -58 -14 -58 18 0
13 -4 24 -9 24 -6 0 -6 -12 0 -32 11 -39 38 -63 53 -48 15 15 46 12 46 -5 0
-8 5 -15 10 -15 7 0 7 7 0 20 -7 14 -8 26 -1 38 10 16 10 16 11 0 0 -12 5 -15
16 -11 13 5 13 7 2 14 -10 7 -9 9 4 9 9 0 20 -5 23 -10 4 -6 12 -5 21 4 19 19
18 32 -1 16 -9 -8 -15 -9 -15 -2 0 14 20 26 44 27 11 0 20 6 22 13 1 7 0 8 -3
2 -7 -15 -23 -12 -23 6 0 14 -2 14 -22 0 -16 -12 -25 -13 -35 -4 -11 9 -12 7
-7 -8 7 -18 6 -18 -12 -1 -12 11 -15 20 -9 25 27 19 46 104 26 117 -5 3 -9 -8
-9 -24z"/>
<path d="M5050 5204 c0 -3 11 -20 26 -36 14 -17 23 -37 20 -45 -4 -9 -1 -13 6
-11 19 7 16 41 -6 61 -14 12 -15 17 -5 18 8 0 6 4 -6 9 -25 11 -35 12 -35 4z"/>
<path d="M7527 5163 c-7 -7 0 -434 9 -520 3 -29 10 -53 16 -53 7 0 8 91 4 278
-3 152 -6 283 -6 290 0 13 -13 16 -23 5z"/>
<path d="M5156 5148 c21 -34 93 -102 138 -130 54 -33 49 -19 -14 38 -51 46
-133 108 -124 92z"/>
<path d="M5224 5121 c3 -4 20 -14 38 -21 35 -14 161 -99 166 -112 2 -4 8 -8
13 -8 17 0 -1 19 -54 58 -91 67 -181 112 -163 83z"/>
<path d="M7895 4924 c4 -110 9 -201 11 -203 2 -2 5 75 6 172 1 98 2 187 2 199
1 12 -5 23 -12 26 -12 4 -13 -30 -7 -194z"/>
<path d="M5331 5107 c16 -12 79 -45 79 -42 0 7 -63 45 -74 45 -5 0 -7 -1 -5
-3z"/>
<path d="M5434 5088 c27 -15 69 -53 134 -118 54 -54 54 -54 -9 19 -60 69 -111
111 -134 111 -5 0 -1 -6 9 -12z"/>
<path d="M5556 5048 c74 -77 94 -101 94 -112 0 -5 3 -7 6 -3 13 13 -116 167
-140 167 -6 0 12 -24 40 -52z"/>
<path d="M5601 5083 c9 -20 78 -111 122 -160 26 -29 47 -58 47 -64 0 -6 -9 -1
-19 12 l-20 24 6 -22 c6 -27 -4 -30 -24 -5 -8 9 -6 2 3 -15 10 -18 27 -43 39
-55 11 -13 33 -40 49 -60 15 -21 32 -35 37 -32 5 3 9 0 9 -5 0 -6 7 -11 15
-11 14 0 14 4 -1 31 -8 17 -31 53 -50 79 -19 26 -34 51 -34 55 0 8 60 -55 86
-90 10 -15 10 -11 -2 15 -25 52 -143 210 -189 253 -41 39 -80 65 -74 50z m159
-261 c0 -15 -2 -15 -10 -2 -13 20 -13 33 0 25 6 -3 10 -14 10 -23z m79 -105
c1 -5 -3 -5 -9 -2 -5 3 -10 16 -9 28 0 21 1 21 9 2 5 -11 9 -24 9 -28z"/>
<path d="M5130 5070 c0 -37 107 -215 175 -290 12 -14 41 -54 63 -90 23 -36 45
-69 50 -75 4 -5 11 -17 16 -25 4 -8 16 -31 27 -50 15 -27 18 -29 13 -10 -3 14
-21 49 -40 77 -19 29 -34 55 -34 58 0 4 -17 32 -39 63 -21 31 -38 59 -38 62 1
3 -10 17 -23 31 -58 61 -126 157 -147 209 -12 30 -23 48 -23 40z"/>
<path d="M4877 5050 c-3 -11 -1 -18 3 -15 5 3 11 -1 13 -7 3 -7 6 -3 6 9 1 29
-15 38 -22 13z"/>
<path d="M4910 5061 c0 -5 5 -13 10 -16 6 -3 10 -2 10 4 0 5 -4 13 -10 16 -5
3 -10 2 -10 -4z"/>
<path d="M5200 5025 c8 -11 41 -48 74 -82 33 -34 64 -70 70 -80 5 -10 31 -45
57 -78 25 -33 54 -75 63 -93 10 -19 19 -32 22 -29 6 6 -39 82 -81 137 -57 74
-87 129 -81 146 4 10 2 13 -6 8 -8 -5 -9 -2 -5 9 4 11 -2 22 -16 32 -26 18
-51 20 -41 3 5 -7 -10 0 -32 17 -25 19 -34 22 -24 10z"/>
<path d="M5776 4970 c20 -41 53 -100 73 -130 33 -50 70 -120 84 -160 5 -13 5
-13 6 0 1 30 -48 180 -73 222 -14 24 -48 65 -76 93 l-50 50 36 -75z"/>
<path d="M5786 5028 c4 -6 23 -25 42 -42 31 -27 101 -157 131 -241 10 -28 10
-27 4 10 -6 45 -55 173 -79 209 -24 37 -120 99 -98 64z"/>
<path d="M5110 5005 c0 -5 5 -17 10 -25 5 -8 10 -10 10 -5 0 6 -5 17 -10 25
-5 8 -10 11 -10 5z"/>
<path d="M5535 4944 c87 -86 135 -125 75 -60 -25 26 -67 66 -95 89 -40 32 -35
26 20 -29z"/>
<path d="M5021 4964 c0 -11 3 -14 6 -6 3 7 2 16 -1 19 -3 4 -6 -2 -5 -13z"/>
<path d="M4835 4950 c3 -5 8 -10 11 -10 2 0 4 5 4 10 0 6 -5 10 -11 10 -5 0
-7 -4 -4 -10z"/>
<path d="M5423 4940 c14 -11 47 -44 73 -72 31 -34 42 -42 30 -23 -19 33 -105
115 -120 115 -5 0 3 -9 17 -20z"/>
<path d="M4962 4910 c0 -19 2 -27 5 -17 2 9 2 25 0 35 -3 9 -5 1 -5 -18z"/>
<path d="M5370 4936 c0 -2 8 -10 18 -17 15 -13 16 -12 3 4 -13 16 -21 21 -21
13z"/>
<path d="M4891 4914 c0 -11 3 -14 6 -6 3 7 2 16 -1 19 -3 4 -6 -2 -5 -13z"/>
<path d="M5270 4896 c0 -9 4 -16 8 -16 5 0 14 -10 21 -22 11 -23 11 -23 5 2
-9 32 -34 59 -34 36z"/>
<path d="M5412 4885 c23 -36 100 -135 105 -135 6 0 -54 83 -89 122 -16 18 -23
24 -16 13z"/>
<path d="M4888 4858 c2 -15 5 -28 7 -28 2 0 5 13 7 28 2 17 -1 29 -7 29 -6 0
-9 -12 -7 -29z"/>
<path d="M4733 4835 c0 -22 2 -30 4 -17 2 12 2 30 0 40 -3 9 -5 -1 -4 -23z"/>
<path d="M5100 4835 c7 -8 17 -12 23 -8 7 4 8 0 3 -12 -5 -15 -4 -16 8 -6 12
10 13 16 3 26 -9 9 -14 10 -19 1 -6 -8 -8 -8 -8 2 0 6 -5 12 -11 12 -8 0 -8
-5 1 -15z"/>
<path d="M4821 4811 c-1 -23 67 -157 75 -148 5 5 -12 38 -40 80 -10 15 -22 42
-26 60 -7 26 -8 28 -9 8z"/>
<path d="M5024 4812 c1 -17 19 -17 24 0 3 10 1 10 -6 -1 -9 -12 -11 -12 -14 0
-3 9 -5 10 -4 1z"/>
<path d="M4900 4810 c0 -8 9 -28 20 -45 26 -39 26 -26 0 22 -11 21 -20 31 -20
23z"/>
<path d="M5688 4772 c11 -24 27 -51 36 -60 10 -11 7 3 -9 33 -35 65 -52 82
-27 27z"/>
<path d="M4416 4740 c3 -19 15 -48 25 -65 25 -40 24 -31 -7 40 -19 45 -23 51
-18 25z"/>
<path d="M5165 4759 c-6 -8 -4 -10 5 -4 10 6 12 4 6 -11 -6 -15 -5 -17 5 -6 9
9 10 15 2 23 -8 8 -13 7 -18 -2z"/>
<path d="M4758 4738 c10 -13 51 -87 119 -218 19 -36 31 -54 27 -40 -4 14 -25
59 -47 100 -22 41 -51 96 -65 123 -14 26 -29 47 -35 47 -6 0 -6 -5 1 -12z"/>
<path d="M5590 4743 c0 -6 8 -17 18 -24 16 -13 16 -13 2 6 -8 11 -16 22 -17
24 -2 2 -3 0 -3 -6z"/>
<path d="M4260 4719 c0 -5 5 -7 10 -4 6 3 10 8 10 11 0 2 -4 4 -10 4 -5 0 -10
-5 -10 -11z"/>
<path d="M4701 4678 c13 -26 28 -48 32 -48 5 0 -1 17 -14 38 -34 57 -44 63
-18 10z"/>
<path d="M5670 4711 c0 -26 69 -171 82 -171 12 0 10 10 -13 81 -20 62 -43 99
-61 99 -4 0 -8 -4 -8 -9z"/>
<path d="M5134 4669 c-3 -6 -2 -15 3 -20 5 -5 9 -1 9 11 0 23 -2 24 -12 9z"/>
<path d="M4406 4655 c-9 -26 -7 -32 5 -12 6 10 9 21 6 23 -2 3 -7 -2 -11 -11z"/>
<path d="M4545 4640 c3 -5 8 -10 11 -10 2 0 4 5 4 10 0 6 -5 10 -11 10 -5 0
-7 -4 -4 -10z"/>
<path d="M4921 4613 c36 -61 64 -124 84 -185 10 -32 21 -56 23 -54 2 2 -8 40
-23 85 -15 44 -23 85 -19 92 4 7 3 9 -4 5 -5 -3 -20 9 -31 28 -24 38 -26 50
-8 40 7 -4 9 -3 4 2 -5 5 -12 9 -15 9 -4 0 -13 4 -20 8 -7 5 -3 -9 9 -30z"/>
<path d="M5858 4635 c-5 -10 8 -129 16 -150 7 -16 4 107 -4 135 -3 13 -9 20
-12 15z"/>
<path d="M5988 4625 c-20 -65 -29 -154 -20 -205 l10 -55 1 54 c0 30 6 82 12
117 11 65 9 128 -3 89z"/>
<path d="M4471 4623 c0 -4 4 -17 9 -28 8 -19 9 -19 9 2 1 12 -3 25 -9 28 -5 3
-10 3 -9 -2z"/>
<path d="M4740 4619 c-1 -13 51 -121 56 -116 3 3 -8 31 -25 63 -16 33 -30 56
-31 53z"/>
<path d="M4571 4594 c0 -11 3 -14 6 -6 3 7 2 16 -1 19 -3 4 -6 -2 -5 -13z"/>
<path d="M5197 4570 c6 -23 33 -49 33 -31 0 6 -4 11 -10 11 -5 0 -10 6 -10 14
0 8 -4 17 -9 20 -5 4 -7 -3 -4 -14z"/>
<path d="M5545 4546 c10 -14 19 -26 22 -26 7 0 -17 39 -28 46 -6 3 -3 -5 6
-20z"/>
<path d="M5181 4533 c0 -4 4 -17 8 -27 6 -15 9 -16 13 -5 3 8 -1 20 -8 27 -8
7 -14 9 -13 5z"/>
<path d="M4510 4520 c0 -5 5 -10 10 -10 6 0 10 5 10 10 0 6 -4 10 -10 10 -5 0
-10 -4 -10 -10z"/>
<path d="M4445 4500 c3 -5 8 -10 11 -10 2 0 4 5 4 10 0 6 -5 10 -11 10 -5 0
-7 -4 -4 -10z"/>
<path d="M4616 4497 c3 -10 9 -15 12 -12 3 3 0 11 -7 18 -10 9 -11 8 -5 -6z"/>
<path d="M5210 4490 c0 -5 5 -10 11 -10 5 0 7 5 4 10 -3 6 -8 10 -11 10 -2 0
-4 -4 -4 -10z"/>
<path d="M5480 4498 c0 -3 13 -35 30 -70 16 -34 30 -58 30 -52 0 20 -59 140
-60 122z"/>
<path d="M5931 4450 c1 -55 1 -55 11 -18 7 25 6 43 -1 55 -8 14 -10 6 -10 -37z"/>
<path d="M4819 4445 c8 -24 17 -42 19 -40 6 5 -18 74 -27 80 -5 2 -1 -15 8
-40z"/>
<path d="M4721 4464 c0 -11 3 -14 6 -6 3 7 2 16 -1 19 -3 4 -6 -2 -5 -13z"/>
<path d="M5353 4446 c12 -18 24 -32 25 -30 6 4 -31 64 -40 64 -4 0 3 -15 15
-34z"/>
<path d="M4466 4462 c-4 -7 -3 -19 2 -28 5 -9 7 -25 5 -35 -3 -11 0 -19 6 -19
6 0 11 11 11 24 0 13 6 26 13 29 10 4 10 7 0 18 -11 11 -13 11 -14 -1 0 -10
-3 -8 -8 4 -5 14 -10 16 -15 8z"/>
<path d="M4630 4456 c0 -9 5 -16 10 -16 6 0 10 4 10 9 0 6 -4 13 -10 16 -5 3
-10 -1 -10 -9z"/>
<path d="M4640 4425 c0 -6 9 -35 19 -65 10 -30 16 -70 14 -87 -3 -21 -1 -33 6
-33 7 0 9 -9 5 -25 -4 -16 -2 -25 6 -25 14 0 5 91 -18 170 -15 51 -32 87 -32
65z"/>
<path d="M5130 4423 c1 -21 28 -55 34 -44 4 6 1 11 -6 11 -10 0 -10 2 -1 8 9
6 7 11 -7 20 -11 7 -20 9 -20 5z"/>
<path d="M4740 4404 c0 -10 5 -26 10 -34 8 -11 9 -7 4 15 -8 37 -14 45 -14 19z"/>
<path d="M5840 4405 c-7 -9 -8 -15 -2 -15 5 0 12 7 16 15 3 8 4 15 2 15 -2 0
-9 -7 -16 -15z"/>
<path d="M6000 4405 c-1 -5 -1 -14 0 -20 12 -57 16 -112 10 -125 -26 -52 -40
-94 -40 -117 0 -14 -3 -23 -7 -19 -4 3 -6 30 -5 59 l3 52 -21 -25 c-16 -18
-19 -20 -12 -5 15 32 23 105 12 105 -5 0 -10 9 -10 20 0 21 -33 60 -50 60 -13
0 -12 -13 5 -88 19 -80 47 -296 51 -389 4 -115 14 -184 35 -241 10 -29 19 -66
19 -82 0 -23 10 -37 46 -65 26 -19 56 -35 68 -35 57 -1 165 -84 218 -169 22
-35 33 -115 23 -167 -6 -36 -21 -55 -118 -154 l-27 -28 33 -21 c52 -32 113
-42 186 -29 58 10 68 15 126 72 74 73 103 126 111 203 10 93 -16 165 -85 234
-72 72 -132 94 -237 87 -62 -4 -71 -3 -56 8 9 7 28 14 42 14 14 1 34 6 45 11
14 6 7 7 -25 4 l-45 -6 33 19 c18 10 30 21 26 25 -4 4 -2 7 4 7 6 0 14 -5 18
-11 8 -13 51 -3 71 17 21 20 14 24 -27 14 -19 -4 -26 -8 -15 -9 17 -1 17 -3 5
-11 -10 -6 -16 -6 -18 0 -2 6 -16 10 -30 11 -19 0 -9 6 33 20 87 29 182 23
263 -17 34 -17 56 -24 50 -16 -22 26 -107 62 -163 68 -30 4 -54 8 -53 10 2 1
32 7 68 13 46 8 67 7 77 -1 17 -14 31 -2 16 13 -12 12 -124 8 -155 -6 -11 -4
-18 -3 -18 4 0 6 11 13 25 17 26 6 35 24 12 24 -26 0 -50 -26 -44 -49 6 -26
-17 -29 -31 -4 -7 12 -3 23 19 42 l28 26 -24 1 c-13 1 -26 -4 -29 -12 -7 -19
-36 -6 -36 16 0 9 -11 30 -25 46 -22 25 -23 29 -8 38 9 5 54 9 100 9 61 0 81
3 73 11 -6 6 -50 11 -106 11 -78 0 -91 2 -77 13 9 6 22 12 29 12 14 0 41 30
28 31 -5 0 -17 2 -26 4 -10 2 -18 -3 -18 -10 0 -16 -28 -28 -42 -18 -6 3 -8 1
-5 -4 7 -11 -17 -26 -26 -16 -7 6 5 22 48 67 17 17 41 43 54 58 l24 27 -33 -9
c-18 -5 -37 -8 -42 -7 -6 1 -13 -4 -16 -12 -3 -10 0 -12 12 -8 25 10 19 -3
-16 -35 -41 -36 -64 -33 -59 7 1 17 8 33 15 38 8 5 7 10 -4 17 -13 8 -12 10 3
10 9 0 17 5 17 10 0 11 -15 12 -46 4 -15 -4 -20 -12 -17 -29 3 -12 0 -26 -6
-29 -7 -5 -8 -1 -4 10 4 12 3 15 -5 10 -7 -4 -12 -2 -12 4 0 7 -7 9 -16 6 -31
-12 -7 19 29 38 20 11 37 23 37 28 0 5 -4 7 -10 3 -5 -3 -19 4 -30 15 l-21 21
7 -25 c8 -33 -13 -43 -27 -13 -10 22 -7 28 21 56 38 36 36 51 -2 21 -14 -10
-28 -16 -32 -13 -3 3 -6 2 -6 -4 0 -6 -8 -10 -17 -9 -12 0 -19 -7 -21 -21 -2
-13 -8 -23 -13 -23 -6 0 -8 4 -5 9 4 5 -3 7 -13 4 -21 -5 -35 -29 -26 -43 3
-5 1 -11 -4 -14 -5 -3 -11 3 -14 14 -5 20 37 70 86 103 25 16 40 46 16 31 -6
-3 -15 0 -20 7 -6 10 -9 8 -9 -8 0 -14 -6 -23 -15 -23 -9 0 -27 -12 -40 -26
-22 -24 -24 -24 -22 -5 1 11 7 23 13 25 24 9 -2 236 -26 236 -5 0 -7 -7 -4
-15 4 -8 1 -15 -4 -15 -6 0 -13 8 -15 18 -3 9 -6 13 -7 7z m250 -456 c0 -6 -4
-7 -10 -4 -5 3 -10 11 -10 16 0 6 5 7 10 4 6 -3 10 -11 10 -16z m50 -83 c0 -2
-7 -9 -15 -16 -13 -11 -14 -10 -9 4 5 14 24 23 24 12z m137 -370 c124 -33 203
-135 203 -264 0 -76 -22 -126 -87 -201 -73 -84 -172 -120 -248 -91 -24 9 -25
11 -11 26 20 19 20 29 1 48 -13 13 -11 19 20 52 84 89 69 224 -38 335 -28 31
-63 63 -77 72 -25 16 -25 16 30 17 30 1 66 6 80 10 38 12 70 11 127 -4z"/>
<path d="M5270 4376 c0 -9 5 -16 10 -16 6 0 10 4 10 9 0 6 -4 13 -10 16 -5 3
-10 -1 -10 -9z"/>
<path d="M4932 4360 c0 -14 2 -19 5 -12 2 6 2 18 0 25 -3 6 -5 1 -5 -13z"/>
<path d="M5170 4355 c0 -16 16 -20 24 -6 3 5 -1 11 -9 15 -9 3 -15 0 -15 -9z"/>
<path d="M4591 4344 c0 -11 3 -14 6 -6 3 7 2 16 -1 19 -3 4 -6 -2 -5 -13z"/>
<path d="M4611 4333 c-1 -17 16 -25 25 -12 4 7 3 9 -4 5 -5 -3 -13 0 -15 6 -4
9 -6 10 -6 1z"/>
<path d="M4851 4324 c0 -11 3 -14 6 -6 3 7 2 16 -1 19 -3 4 -6 -2 -5 -13z"/>
<path d="M6261 4324 c0 -11 3 -14 6 -6 3 7 2 16 -1 19 -3 4 -6 -2 -5 -13z"/>
<path d="M5160 4324 c0 -5 7 -17 14 -27 13 -16 14 -16 19 5 4 12 4 24 2 27 -3
2 -5 -1 -5 -9 0 -10 -3 -10 -15 0 -8 7 -15 9 -15 4z"/>
<path d="M5551 4320 c0 -8 4 -24 9 -35 5 -13 9 -14 9 -5 0 8 -4 24 -9 35 -5
13 -9 14 -9 5z"/>
<path d="M4601 4303 c-1 -6 4 -24 11 -40 6 -15 10 -34 9 -40 -1 -8 4 -10 14
-7 16 7 21 24 6 24 -4 0 -15 17 -24 38 -8 20 -15 32 -16 25z"/>
<path d="M5968 4286 c-3 -14 -1 -31 3 -38 6 -8 9 1 9 25 0 42 -6 48 -12 13z"/>
<path d="M5577 4230 c3 -11 7 -20 9 -20 2 0 4 9 4 20 0 11 -4 20 -9 20 -5 0
-7 -9 -4 -20z"/>
<path d="M6190 4235 c-8 -9 -8 -15 -2 -15 12 0 26 19 19 26 -2 2 -10 -2 -17
-11z"/>
<path d="M5150 4200 c0 -5 5 -10 11 -10 5 0 7 5 4 10 -3 6 -8 10 -11 10 -2 0
-4 -4 -4 -10z"/>
<path d="M6430 4181 c0 -12 5 -21 10 -21 6 0 10 6 10 14 0 8 -4 18 -10 21 -5
3 -10 -3 -10 -14z"/>
<path d="M5045 4140 c-3 -5 -1 -10 4 -10 6 0 11 5 11 10 0 6 -2 10 -4 10 -3 0
-8 -4 -11 -10z"/>
<path d="M6220 4131 c0 -5 5 -13 10 -16 6 -3 10 -2 10 4 0 5 -4 13 -10 16 -5
3 -10 2 -10 -4z"/>
<path d="M5702 4075 c0 -16 2 -22 5 -12 2 9 2 23 0 30 -3 6 -5 -1 -5 -18z"/>
<path d="M5758 4075 c-6 -30 -3 -43 8 -33 3 4 4 19 2 35 l-3 28 -7 -30z"/>
<path d="M5085 4080 c-3 -5 1 -10 9 -10 9 0 16 5 16 10 0 6 -4 10 -9 10 -6 0
-13 -4 -16 -10z"/>
<path d="M4890 4069 c0 -5 -4 -8 -8 -5 -5 3 -9 -1 -9 -8 0 -8 8 -11 18 -9 10
3 15 11 12 19 -6 17 -13 18 -13 3z"/>
<path d="M5818 4034 c-3 -5 -9 -24 -13 -41 -5 -27 -4 -33 10 -33 12 0 15 5 11
17 -4 9 -3 19 2 22 5 3 6 15 2 25 -3 11 -9 15 -12 10z"/>
<path d="M6443 3953 c-23 -9 -14 -25 10 -17 12 4 40 11 62 15 l40 6 -50 1
c-27 0 -56 -2 -62 -5z"/>
<path d="M5856 3928 c-6 -20 -4 -32 8 -43 9 -9 16 -21 16 -26 0 -6 11 -27 25
-47 14 -20 25 -31 25 -24 0 8 -7 20 -15 29 -9 9 -13 23 -9 35 4 12 -1 25 -14
36 -11 10 -22 29 -24 42 l-4 25 -8 -27z"/>
<path d="M5381 3905 c1 -19 18 -51 18 -35 0 8 -4 22 -9 30 -5 8 -9 11 -9 5z"/>
<path d="M5410 3890 c0 -5 5 -10 10 -10 6 0 10 5 10 10 0 6 -4 10 -10 10 -5 0
-10 -4 -10 -10z"/>
<path d="M5650 3841 c0 -5 5 -13 10 -16 6 -3 10 -2 10 4 0 5 -4 13 -10 16 -5
3 -10 2 -10 -4z"/>
<path d="M5570 3816 c0 -24 34 -106 44 -106 5 0 -33 122 -39 129 -3 2 -5 -8
-5 -23z"/>
<path d="M5100 3815 c-7 -9 -8 -15 -2 -15 5 0 12 7 16 15 3 8 4 15 2 15 -2 0
-9 -7 -16 -15z"/>
<path d="M5290 3819 c0 -5 5 -7 10 -4 6 3 10 8 10 11 0 2 -4 4 -10 4 -5 0 -10
-5 -10 -11z"/>
<path d="M5326 3817 c3 -10 9 -15 12 -12 3 3 0 11 -7 18 -10 9 -11 8 -5 -6z"/>
<path d="M6426 3801 c-4 -7 -5 -15 -2 -18 9 -9 19 4 14 18 -4 11 -6 11 -12 0z"/>
<path d="M5864 3785 c-8 -14 -8 -33 0 -65 l10 -45 4 34 c3 26 6 31 13 20 7
-11 9 -11 9 4 0 9 -4 17 -9 17 -5 0 -11 12 -13 28 -3 25 -4 26 -14 7z"/>
<path d="M5676 3748 c3 -13 11 -30 16 -38 8 -12 8 -11 4 3 -3 10 -6 27 -6 38
0 10 -5 19 -11 19 -6 0 -8 -9 -3 -22z"/>
<path d="M6545 3740 c-4 -6 8 -10 29 -10 19 0 38 5 41 10 4 6 -8 10 -29 10
-19 0 -38 -4 -41 -10z"/>
<path d="M6640 3736 c0 -2 9 -6 20 -9 11 -3 18 -1 14 4 -5 9 -34 13 -34 5z"/>
<path d="M5522 3689 c1 -20 9 -47 19 -60 l19 -24 -1 25 c0 14 -8 41 -19 60
l-19 35 1 -36z"/>
<path d="M6493 3613 c9 -2 23 -2 30 0 6 3 -1 5 -18 5 -16 0 -22 -2 -12 -5z"/>
<path d="M6548 3603 c7 -3 16 -2 19 1 4 3 -2 6 -13 5 -11 0 -14 -3 -6 -6z"/>
<path d="M6458 3553 c6 -2 18 -2 25 0 6 3 1 5 -13 5 -14 0 -19 -2 -12 -5z"/>
<path d="M5365 3500 c3 -5 11 -10 16 -10 6 0 7 5 4 10 -3 6 -11 10 -16 10 -6
0 -7 -4 -4 -10z"/>
<path d="M5420 3286 l-24 -14 24 -4 c21 -2 25 -9 25 -36 0 -41 19 -36 23 6 2
22 -2 34 -12 38 -9 3 -13 10 -10 15 7 12 4 11 -26 -5z"/>
<path d="M6005 3184 c-16 -8 -32 -18 -35 -21 -9 -10 44 9 65 23 26 19 7 18
-30 -2z"/>
<path d="M5514 3078 c-4 -7 -4 -10 0 -6 5 4 19 3 32 -2 13 -5 24 -6 24 -1 0 9
-24 21 -40 21 -5 0 -12 -6 -16 -12z"/>
<path d="M6472 2813 c5 -59 10 -109 13 -111 2 -2 3 44 2 104 -1 63 -6 109 -12
111 -7 2 -8 -32 -3 -104z"/>
<path d="M5725 2880 c-3 -5 -2 -10 4 -10 5 0 13 5 16 10 3 6 2 10 -4 10 -5 0
-13 -4 -16 -10z"/>
<path d="M5730 2830 c-12 -23 -3 -25 23 -6 15 12 15 14 2 19 -9 4 -19 -2 -25
-13z"/>
<path d="M6270 2683 c0 -10 -9 -33 -20 -51 -11 -18 -20 -37 -20 -42 0 -19 66
-11 85 10 10 11 13 20 7 20 -7 0 -11 3 -10 8 2 8 -30 72 -37 72 -3 0 -5 -8 -5
-17z"/>
<path d="M2050 1600 l-25 -8 28 -1 c15 -1 27 4 27 9 0 6 -1 10 -2 9 -2 -1 -14
-5 -28 -9z"/>
<path d="M2328 1603 c6 -2 18 -2 25 0 6 3 1 5 -13 5 -14 0 -19 -2 -12 -5z"/>
<path d="M1840 1540 c0 -5 4 -10 9 -10 6 0 13 5 16 10 3 6 -1 10 -9 10 -9 0
-16 -4 -16 -10z"/>
<path d="M1675 1504 c-79 -23 -80 -23 -25 -18 30 4 75 15 100 25 64 26 20 22
-75 -7z"/>
<path d="M1558 1463 c7 -3 16 -2 19 1 4 3 -2 6 -13 5 -11 0 -14 -3 -6 -6z"/>
<path d="M1510 1450 c-9 -6 -10 -10 -3 -10 6 0 15 5 18 10 8 12 4 12 -15 0z"/>
<path d="M1596 1451 c-4 -5 -3 -16 0 -25 7 -19 -19 -21 -81 -6 -42 10 -95 -2
-126 -27 -18 -15 -49 -17 -49 -4 0 5 10 15 23 24 27 18 15 34 -16 20 -12 -6
-83 -25 -157 -43 -74 -17 -148 -37 -165 -43 l-30 -12 45 -5 c25 -3 45 -9 45
-15 0 -5 -20 -11 -45 -13 -72 -4 -108 -12 -112 -25 -2 -8 -16 -10 -43 -6 -22
3 -31 7 -20 8 24 1 96 36 90 43 -8 8 -176 -19 -187 -30 -7 -7 -22 -12 -34 -12
-13 0 -26 -4 -29 -10 -3 -5 -17 -10 -29 -10 -49 0 -191 -41 -207 -60 -13 -15
-25 -18 -52 -13 -20 3 -56 -1 -83 -10 -45 -13 -155 -39 -179 -42 -5 0 -43 -7
-82 -14 l-73 -14 0 -200 0 -199 23 5 c76 19 162 37 232 50 44 9 94 21 110 28
17 7 41 14 55 16 41 7 310 62 380 78 81 19 168 49 183 64 6 6 21 11 34 11 l23
0 -26 29 c-16 19 -38 31 -58 33 l-31 3 46 23 c54 26 57 27 81 5 14 -12 21 -14
30 -5 8 8 15 7 25 -4 19 -19 47 -18 39 1 -4 10 1 15 16 15 17 0 18 -2 8 -15
-10 -12 -10 -15 0 -15 10 0 10 -3 0 -15 -10 -12 -10 -15 1 -15 8 -1 1 -7 -16
-15 -30 -15 -30 -15 21 -10 28 3 74 13 102 23 56 20 74 31 46 28 -14 -1 -17 8
-17 44 l-1 46 -53 1 c-29 1 -53 -2 -53 -7 0 -13 -37 -22 -60 -15 -30 10 -24
25 8 19 19 -4 32 -1 41 10 8 9 23 16 34 16 26 0 87 22 87 31 0 4 -7 12 -15 19
-14 12 -13 16 6 37 13 12 33 23 46 23 13 0 23 6 23 13 0 19 80 61 93 48 15
-15 44 -14 71 4 30 20 75 17 69 -5 -7 -26 89 -10 124 21 16 13 31 26 35 29 4
3 -6 5 -23 6 -17 1 -29 -4 -29 -11 0 -18 -39 -25 -82 -16 -20 5 -39 6 -42 3
-3 -2 -12 0 -20 7 -21 17 -71 -6 -54 -26 10 -12 7 -13 -18 -7 -39 9 -42 13
-21 28 9 7 17 18 17 23 0 6 21 16 48 23 73 19 74 19 69 33 -2 6 3 17 12 24 15
11 14 12 -1 13 -9 0 -19 -4 -22 -9z m-126 -55 c0 -2 -9 -6 -20 -9 -11 -3 -18
-1 -14 4 5 9 34 13 34 5z m-185 -47 c4 -5 8 -20 9 -32 2 -12 6 -32 10 -45 6
-19 2 -25 -28 -37 -51 -21 -65 -19 -84 15 -19 34 -27 37 -36 14 -4 -10 1 -22
11 -30 29 -22 -5 -17 -42 6 -28 17 -34 18 -51 5 -27 -20 -48 -18 -70 6 l-19
22 37 -7 c22 -4 39 -2 43 4 3 5 16 10 27 10 12 0 29 7 39 16 10 9 37 18 61 21
51 7 81 20 73 34 -4 5 -2 9 4 9 5 0 13 -5 16 -11z m-510 -99 c-3 -5 -13 -10
-21 -10 -8 0 -12 5 -9 10 3 6 13 10 21 10 8 0 12 -4 9 -10z m115 -10 c22 -7
21 -8 -12 -9 -20 -1 -40 4 -43 9 -7 12 19 12 55 0z m-170 -10 c0 -5 -5 -10
-11 -10 -5 0 -7 -4 -4 -10 3 -5 1 -10 -4 -10 -6 0 -11 9 -11 20 0 11 7 20 15
20 8 0 15 -4 15 -10z m266 0 c8 0 14 -7 14 -15 0 -17 -23 -19 -51 -4 -22 11
-15 34 8 25 8 -3 21 -6 29 -6z m-176 -22 c0 -12 -3 -18 -7 -14 -11 10 -12 36
-2 36 5 0 9 -10 9 -22z m415 -18 c3 -5 -1 -10 -9 -10 -9 0 -16 5 -16 10 0 6 4
10 9 10 6 0 13 -4 16 -10z m-179 -84 c8 -8 11 -17 6 -20 -4 -2 -13 4 -20 15
-14 22 -7 25 14 5z m-77 -16 c-8 -4 -31 -10 -51 -14 -34 -6 -43 -15 -40 -37 1
-4 -9 -4 -21 -1 -19 4 -33 17 -40 38 -1 3 27 8 63 10 35 3 69 9 74 14 5 5 14
7 19 3 5 -3 4 -9 -4 -13z m-186 -31 c6 -22 0 -23 -36 -6 -35 16 -34 22 2 23
21 1 31 -4 34 -17z m25 -53 c7 8 23 14 34 14 28 0 138 -42 138 -53 0 -5 -9 -5
-20 -2 -11 3 -20 2 -20 -3 0 -14 -80 -20 -115 -9 -52 17 -75 30 -75 43 0 18
23 24 35 9 8 -10 13 -10 23 1z m-438 -61 c0 -8 -9 -15 -20 -15 -11 0 -20 7
-20 15 0 8 9 15 20 15 11 0 20 -7 20 -15z m160 -25 c0 -5 -7 -10 -15 -10 -8 0
-15 5 -15 10 0 6 7 10 15 10 8 0 15 -4 15 -10z m160 0 c0 -5 -7 -10 -16 -10
-8 0 -12 5 -9 10 3 6 10 10 16 10 5 0 9 -4 9 -10z"/>
<path d="M1660 1440 c-21 -7 -21 -8 -5 -9 11 0 27 4 35 9 18 11 5 11 -30 0z"/>
<path d="M2168 1423 c7 -3 16 -2 19 1 4 3 -2 6 -13 5 -11 0 -14 -3 -6 -6z"/>
<path d="M1865 1410 c-8 -13 5 -13 25 0 13 8 13 10 -2 10 -9 0 -20 -4 -23 -10z"/>
<path d="M1780 1380 c0 -5 7 -10 15 -10 8 0 15 5 15 10 0 6 -7 10 -15 10 -8 0
-15 -4 -15 -10z"/>
<path d="M1928 1353 c7 -3 16 -2 19 1 4 3 -2 6 -13 5 -11 0 -14 -3 -6 -6z"/>
<path d="M1570 1290 c0 -5 5 -10 10 -10 6 0 10 5 10 10 0 6 -4 10 -10 10 -5 0
-10 -4 -10 -10z"/>
<path d="M1550 1270 c0 -5 5 -10 11 -10 5 0 7 5 4 10 -3 6 -8 10 -11 10 -2 0
-4 -4 -4 -10z"/>
<path d="M1470 1216 c-14 -8 -28 -12 -32 -10 -4 3 -5 -2 -2 -10 7 -18 16 -20
30 -7 5 5 22 11 37 13 15 2 29 8 30 13 3 16 -35 16 -63 1z"/>
<path d="M1438 1043 c7 -3 16 -2 19 1 4 3 -2 6 -13 5 -11 0 -14 -3 -6 -6z"/>
<path d="M1063 1024 c-25 -11 -12 -24 23 -24 24 0 34 4 32 13 -5 13 -35 19
-55 11z"/>
</g>
</svg>
