<?xml version="1.0" encoding="UTF-8"?>
<!DOCTYPE svg PUBLIC "-//W3C//DTD SVG 1.1//EN" "http://www.w3.org/Graphics/SVG/1.1/DTD/svg11.dtd">
<svg xmlns="http://www.w3.org/2000/svg" version="1.1" width="360px" height="360px" style="shape-rendering:geometricPrecision; text-rendering:geometricPrecision; image-rendering:optimizeQuality; fill-rule:evenodd; clip-rule:evenodd" xmlns:xlink="http://www.w3.org/1999/xlink">
<g><path style="opacity:1" fill="#ededed" d="M -0.5,-0.5 C 7.5,-0.5 15.5,-0.5 23.5,-0.5C 23.5,7.5 23.5,15.5 23.5,23.5C 15.5,23.5 7.5,23.5 -0.5,23.5C -0.5,15.5 -0.5,7.5 -0.5,-0.5 Z"/></g>
<g><path style="opacity:1" fill="#fefffe" d="M 23.5,-0.5 C 31.5,-0.5 39.5,-0.5 47.5,-0.5C 47.5,7.5 47.5,15.5 47.5,23.5C 39.5,23.5 31.5,23.5 23.5,23.5C 23.5,15.5 23.5,7.5 23.5,-0.5 Z"/></g>
<g><path style="opacity:1" fill="#ededed" d="M 47.5,-0.5 C 55.5,-0.5 63.5,-0.5 71.5,-0.5C 71.5,7.5 71.5,15.5 71.5,23.5C 63.5,23.5 55.5,23.5 47.5,23.5C 47.5,15.5 47.5,7.5 47.5,-0.5 Z"/></g>
<g><path style="opacity:1" fill="#fefffe" d="M 71.5,-0.5 C 79.5,-0.5 87.5,-0.5 95.5,-0.5C 95.5,7.5 95.5,15.5 95.5,23.5C 87.5,23.5 79.5,23.5 71.5,23.5C 71.5,15.5 71.5,7.5 71.5,-0.5 Z"/></g>
<g><path style="opacity:1" fill="#ededed" d="M 95.5,-0.5 C 103.5,-0.5 111.5,-0.5 119.5,-0.5C 119.5,7.5 119.5,15.5 119.5,23.5C 111.5,23.5 103.5,23.5 95.5,23.5C 95.5,15.5 95.5,7.5 95.5,-0.5 Z"/></g>
<g><path style="opacity:1" fill="#fefffe" d="M 119.5,-0.5 C 127.5,-0.5 135.5,-0.5 143.5,-0.5C 143.5,7.5 143.5,15.5 143.5,23.5C 135.5,23.5 127.5,23.5 119.5,23.5C 119.5,15.5 119.5,7.5 119.5,-0.5 Z"/></g>
<g><path style="opacity:1" fill="#ededed" d="M 143.5,-0.5 C 151.5,-0.5 159.5,-0.5 167.5,-0.5C 167.5,7.5 167.5,15.5 167.5,23.5C 159.5,23.5 151.5,23.5 143.5,23.5C 143.5,15.5 143.5,7.5 143.5,-0.5 Z"/></g>
<g><path style="opacity:1" fill="#fefffe" d="M 167.5,-0.5 C 175.5,-0.5 183.5,-0.5 191.5,-0.5C 191.5,7.5 191.5,15.5 191.5,23.5C 183.5,23.5 175.5,23.5 167.5,23.5C 167.5,15.5 167.5,7.5 167.5,-0.5 Z"/></g>
<g><path style="opacity:1" fill="#ededed" d="M 191.5,-0.5 C 199.5,-0.5 207.5,-0.5 215.5,-0.5C 215.5,7.5 215.5,15.5 215.5,23.5C 207.5,23.5 199.5,23.5 191.5,23.5C 191.5,15.5 191.5,7.5 191.5,-0.5 Z"/></g>
<g><path style="opacity:1" fill="#fefffe" d="M 215.5,-0.5 C 223.5,-0.5 231.5,-0.5 239.5,-0.5C 239.5,7.5 239.5,15.5 239.5,23.5C 231.5,23.5 223.5,23.5 215.5,23.5C 215.5,15.5 215.5,7.5 215.5,-0.5 Z"/></g>
<g><path style="opacity:1" fill="#ededed" d="M 239.5,-0.5 C 247.5,-0.5 255.5,-0.5 263.5,-0.5C 263.5,7.5 263.5,15.5 263.5,23.5C 255.5,23.5 247.5,23.5 239.5,23.5C 239.5,15.5 239.5,7.5 239.5,-0.5 Z"/></g>
<g><path style="opacity:1" fill="#fefffe" d="M 263.5,-0.5 C 271.5,-0.5 279.5,-0.5 287.5,-0.5C 287.5,7.5 287.5,15.5 287.5,23.5C 279.5,23.5 271.5,23.5 263.5,23.5C 263.5,15.5 263.5,7.5 263.5,-0.5 Z"/></g>
<g><path style="opacity:1" fill="#ededed" d="M 287.5,-0.5 C 295.5,-0.5 303.5,-0.5 311.5,-0.5C 311.5,7.5 311.5,15.5 311.5,23.5C 303.5,23.5 295.5,23.5 287.5,23.5C 287.5,15.5 287.5,7.5 287.5,-0.5 Z"/></g>
<g><path style="opacity:1" fill="#fefffe" d="M 311.5,-0.5 C 319.5,-0.5 327.5,-0.5 335.5,-0.5C 335.5,7.5 335.5,15.5 335.5,23.5C 327.5,23.5 319.5,23.5 311.5,23.5C 311.5,15.5 311.5,7.5 311.5,-0.5 Z"/></g>
<g><path style="opacity:1" fill="#ededed" d="M 335.5,-0.5 C 343.5,-0.5 351.5,-0.5 359.5,-0.5C 359.5,7.5 359.5,15.5 359.5,23.5C 351.5,23.5 343.5,23.5 335.5,23.5C 335.5,15.5 335.5,7.5 335.5,-0.5 Z"/></g>
<g><path style="opacity:1" fill="#fefffe" d="M -0.5,23.5 C 7.5,23.5 15.5,23.5 23.5,23.5C 23.5,31.5 23.5,39.5 23.5,47.5C 15.5,47.5 7.5,47.5 -0.5,47.5C -0.5,39.5 -0.5,31.5 -0.5,23.5 Z"/></g>
<g><path style="opacity:1" fill="#fefffe" d="M 47.5,23.5 C 55.5,23.5 63.5,23.5 71.5,23.5C 71.5,31.5 71.5,39.5 71.5,47.5C 63.5,47.5 55.5,47.5 47.5,47.5C 47.5,39.5 47.5,31.5 47.5,23.5 Z"/></g>
<g><path style="opacity:1" fill="#fefffe" d="M 95.5,23.5 C 103.5,23.5 111.5,23.5 119.5,23.5C 119.5,31.5 119.5,39.5 119.5,47.5C 111.5,47.5 103.5,47.5 95.5,47.5C 95.5,39.5 95.5,31.5 95.5,23.5 Z"/></g>
<g><path style="opacity:1" fill="#fefffe" d="M 143.5,23.5 C 151.5,23.5 159.5,23.5 167.5,23.5C 167.5,31.5 167.5,39.5 167.5,47.5C 159.5,47.5 151.5,47.5 143.5,47.5C 143.5,39.5 143.5,31.5 143.5,23.5 Z"/></g>
<g><path style="opacity:1" fill="#fefffe" d="M 191.5,23.5 C 199.5,23.5 207.5,23.5 215.5,23.5C 215.5,31.5 215.5,39.5 215.5,47.5C 207.5,47.5 199.5,47.5 191.5,47.5C 191.5,39.5 191.5,31.5 191.5,23.5 Z"/></g>
<g><path style="opacity:1" fill="#fefffe" d="M 239.5,23.5 C 247.5,23.5 255.5,23.5 263.5,23.5C 263.5,31.5 263.5,39.5 263.5,47.5C 255.5,47.5 247.5,47.5 239.5,47.5C 239.5,39.5 239.5,31.5 239.5,23.5 Z"/></g>
<g><path style="opacity:1" fill="#fefffe" d="M 287.5,23.5 C 295.5,23.5 303.5,23.5 311.5,23.5C 311.5,31.5 311.5,39.5 311.5,47.5C 303.5,47.5 295.5,47.5 287.5,47.5C 287.5,39.5 287.5,31.5 287.5,23.5 Z"/></g>
<g><path style="opacity:1" fill="#fefffe" d="M 335.5,23.5 C 343.5,23.5 351.5,23.5 359.5,23.5C 359.5,31.5 359.5,39.5 359.5,47.5C 351.5,47.5 343.5,47.5 335.5,47.5C 335.5,39.5 335.5,31.5 335.5,23.5 Z"/></g>
<g><path style="opacity:1" fill="#ededed" d="M 23.5,23.5 C 31.5,23.5 39.5,23.5 47.5,23.5C 47.5,31.5 47.5,39.5 47.5,47.5C 39.5,47.5 31.5,47.5 23.5,47.5C 23.5,39.5 23.5,31.5 23.5,23.5 Z"/></g>
<g><path style="opacity:1" fill="#ededed" d="M 71.5,23.5 C 79.5,23.5 87.5,23.5 95.5,23.5C 95.5,31.5 95.5,39.5 95.5,47.5C 87.5,47.5 79.5,47.5 71.5,47.5C 71.5,39.5 71.5,31.5 71.5,23.5 Z"/></g>
<g><path style="opacity:1" fill="#ededed" d="M 119.5,23.5 C 127.5,23.5 135.5,23.5 143.5,23.5C 143.5,31.5 143.5,39.5 143.5,47.5C 135.5,47.5 127.5,47.5 119.5,47.5C 119.5,39.5 119.5,31.5 119.5,23.5 Z"/></g>
<g><path style="opacity:1" fill="#ededed" d="M 167.5,23.5 C 175.5,23.5 183.5,23.5 191.5,23.5C 191.5,31.5 191.5,39.5 191.5,47.5C 183.5,47.5 175.5,47.5 167.5,47.5C 167.5,39.5 167.5,31.5 167.5,23.5 Z"/></g>
<g><path style="opacity:1" fill="#ededed" d="M 215.5,23.5 C 223.5,23.5 231.5,23.5 239.5,23.5C 239.5,31.5 239.5,39.5 239.5,47.5C 231.5,47.5 223.5,47.5 215.5,47.5C 215.5,39.5 215.5,31.5 215.5,23.5 Z"/></g>
<g><path style="opacity:1" fill="#ededed" d="M 263.5,23.5 C 271.5,23.5 279.5,23.5 287.5,23.5C 287.5,31.5 287.5,39.5 287.5,47.5C 279.5,47.5 271.5,47.5 263.5,47.5C 263.5,39.5 263.5,31.5 263.5,23.5 Z"/></g>
<g><path style="opacity:1" fill="#ededed" d="M 311.5,23.5 C 319.5,23.5 327.5,23.5 335.5,23.5C 335.5,31.5 335.5,39.5 335.5,47.5C 327.5,47.5 319.5,47.5 311.5,47.5C 311.5,39.5 311.5,31.5 311.5,23.5 Z"/></g>
<g><path style="opacity:1" fill="#fefffe" d="M 23.5,47.5 C 31.5,47.5 39.5,47.5 47.5,47.5C 47.5,55.5 47.5,63.5 47.5,71.5C 39.5,71.5 31.5,71.5 23.5,71.5C 23.5,63.5 23.5,55.5 23.5,47.5 Z"/></g>
<g><path style="opacity:1" fill="#fefffe" d="M 71.5,47.5 C 79.5,47.5 87.5,47.5 95.5,47.5C 95.5,55.5 95.5,63.5 95.5,71.5C 87.5,71.5 79.5,71.5 71.5,71.5C 71.5,63.5 71.5,55.5 71.5,47.5 Z"/></g>
<g><path style="opacity:1" fill="#fefffe" d="M 119.5,47.5 C 127.5,47.5 135.5,47.5 143.5,47.5C 143.5,55.5 143.5,63.5 143.5,71.5C 135.5,71.5 127.5,71.5 119.5,71.5C 119.5,63.5 119.5,55.5 119.5,47.5 Z"/></g>
<g><path style="opacity:1" fill="#fefffe" d="M 167.5,47.5 C 175.5,47.5 183.5,47.5 191.5,47.5C 191.5,55.5 191.5,63.5 191.5,71.5C 183.5,71.5 175.5,71.5 167.5,71.5C 167.5,63.5 167.5,55.5 167.5,47.5 Z"/></g>
<g><path style="opacity:1" fill="#fefffe" d="M 215.5,47.5 C 223.5,47.5 231.5,47.5 239.5,47.5C 239.5,55.5 239.5,63.5 239.5,71.5C 231.5,71.5 223.5,71.5 215.5,71.5C 215.5,63.5 215.5,55.5 215.5,47.5 Z"/></g>
<g><path style="opacity:1" fill="#fefffe" d="M 263.5,47.5 C 271.5,47.5 279.5,47.5 287.5,47.5C 287.5,55.5 287.5,63.5 287.5,71.5C 279.5,71.5 271.5,71.5 263.5,71.5C 263.5,63.5 263.5,55.5 263.5,47.5 Z"/></g>
<g><path style="opacity:1" fill="#fefffe" d="M 311.5,47.5 C 319.5,47.5 327.5,47.5 335.5,47.5C 335.5,55.5 335.5,63.5 335.5,71.5C 327.5,71.5 319.5,71.5 311.5,71.5C 311.5,63.5 311.5,55.5 311.5,47.5 Z"/></g>
<g><path style="opacity:1" fill="#ededed" d="M 47.5,47.5 C 55.5,47.5 63.5,47.5 71.5,47.5C 71.5,55.5 71.5,63.5 71.5,71.5C 63.5,71.5 55.5,71.5 47.5,71.5C 47.5,63.5 47.5,55.5 47.5,47.5 Z"/></g>
<g><path style="opacity:1" fill="#ededed" d="M 95.5,47.5 C 103.5,47.5 111.5,47.5 119.5,47.5C 119.5,55.5 119.5,63.5 119.5,71.5C 111.5,71.5 103.5,71.5 95.5,71.5C 95.5,63.5 95.5,55.5 95.5,47.5 Z"/></g>
<g><path style="opacity:1" fill="#ededed" d="M 143.5,47.5 C 151.5,47.5 159.5,47.5 167.5,47.5C 167.5,55.5 167.5,63.5 167.5,71.5C 159.5,71.5 151.5,71.5 143.5,71.5C 143.5,63.5 143.5,55.5 143.5,47.5 Z"/></g>
<g><path style="opacity:1" fill="#ededed" d="M 191.5,47.5 C 199.5,47.5 207.5,47.5 215.5,47.5C 215.5,55.5 215.5,63.5 215.5,71.5C 207.5,71.5 199.5,71.5 191.5,71.5C 191.5,63.5 191.5,55.5 191.5,47.5 Z"/></g>
<g><path style="opacity:1" fill="#ededed" d="M 239.5,47.5 C 247.5,47.5 255.5,47.5 263.5,47.5C 263.5,55.5 263.5,63.5 263.5,71.5C 255.5,71.5 247.5,71.5 239.5,71.5C 239.5,63.5 239.5,55.5 239.5,47.5 Z"/></g>
<g><path style="opacity:1" fill="#ededed" d="M 287.5,47.5 C 295.5,47.5 303.5,47.5 311.5,47.5C 311.5,55.5 311.5,63.5 311.5,71.5C 303.5,71.5 295.5,71.5 287.5,71.5C 287.5,63.5 287.5,55.5 287.5,47.5 Z"/></g>
<g><path style="opacity:1" fill="#ededed" d="M -0.5,47.5 C 7.5,47.5 15.5,47.5 23.5,47.5C 23.5,55.5 23.5,63.5 23.5,71.5C 15.5,71.5 7.5,71.5 -0.5,71.5C -0.5,63.5 -0.5,55.5 -0.5,47.5 Z"/></g>
<g><path style="opacity:1" fill="#ededed" d="M 335.5,47.5 C 343.5,47.5 351.5,47.5 359.5,47.5C 359.5,55.5 359.5,63.5 359.5,71.5C 351.5,71.5 343.5,71.5 335.5,71.5C 335.5,63.5 335.5,55.5 335.5,47.5 Z"/></g>
<g><path style="opacity:1" fill="#fefffe" d="M -0.5,71.5 C 7.5,71.5 15.5,71.5 23.5,71.5C 23.5,79.5 23.5,87.5 23.5,95.5C 15.5,95.5 7.5,95.5 -0.5,95.5C -0.5,87.5 -0.5,79.5 -0.5,71.5 Z"/></g>
<g><path style="opacity:1" fill="#fefffe" d="M 47.5,71.5 C 55.5,71.5 63.5,71.5 71.5,71.5C 71.5,79.5 71.5,87.5 71.5,95.5C 63.5,95.5 55.5,95.5 47.5,95.5C 47.5,87.5 47.5,79.5 47.5,71.5 Z"/></g>
<g><path style="opacity:1" fill="#fefffe" d="M 95.5,71.5 C 103.5,71.5 111.5,71.5 119.5,71.5C 119.5,79.5 119.5,87.5 119.5,95.5C 111.5,95.5 103.5,95.5 95.5,95.5C 95.5,87.5 95.5,79.5 95.5,71.5 Z"/></g>
<g><path style="opacity:1" fill="#f6f6f6" d="M 119.5,71.5 C 127.5,71.5 135.5,71.5 143.5,71.5C 151.5,71.5 159.5,71.5 167.5,71.5C 175.5,71.5 183.5,71.5 191.5,71.5C 199.5,71.5 207.5,71.5 215.5,71.5C 215.5,76.8333 215.5,82.1667 215.5,87.5C 218.016,87.7553 220.35,88.5886 222.5,90C 221.906,90.4643 221.239,90.631 220.5,90.5C 213.223,89.0976 205.89,87.931 198.5,87C 193.882,84.0496 189.548,80.7162 185.5,77C 179.647,74.1235 173.647,73.7902 167.5,76C 163.12,80.048 158.454,83.7147 153.5,87C 147.581,88.1956 141.581,88.8622 135.5,89C 131.362,90.9779 128.029,93.8112 125.5,97.5C 124.082,95.6921 122.082,95.0254 119.5,95.5C 119.5,87.5 119.5,79.5 119.5,71.5 Z"/></g>
<g><path style="opacity:1" fill="#fefffe" d="M 239.5,71.5 C 247.5,71.5 255.5,71.5 263.5,71.5C 263.5,79.5 263.5,87.5 263.5,95.5C 255.5,95.5 247.5,95.5 239.5,95.5C 239.5,87.5 239.5,79.5 239.5,71.5 Z"/></g>
<g><path style="opacity:1" fill="#fefffe" d="M 287.5,71.5 C 295.5,71.5 303.5,71.5 311.5,71.5C 311.5,79.5 311.5,87.5 311.5,95.5C 303.5,95.5 295.5,95.5 287.5,95.5C 287.5,87.5 287.5,79.5 287.5,71.5 Z"/></g>
<g><path style="opacity:1" fill="#fefffe" d="M 335.5,71.5 C 343.5,71.5 351.5,71.5 359.5,71.5C 359.5,79.5 359.5,87.5 359.5,95.5C 351.5,95.5 343.5,95.5 335.5,95.5C 335.5,87.5 335.5,79.5 335.5,71.5 Z"/></g>
<g><path style="opacity:1" fill="#ededed" d="M 23.5,71.5 C 31.5,71.5 39.5,71.5 47.5,71.5C 47.5,79.5 47.5,87.5 47.5,95.5C 39.5,95.5 31.5,95.5 23.5,95.5C 23.5,87.5 23.5,79.5 23.5,71.5 Z"/></g>
<g><path style="opacity:1" fill="#ededed" d="M 71.5,71.5 C 79.5,71.5 87.5,71.5 95.5,71.5C 95.5,79.5 95.5,87.5 95.5,95.5C 87.5,95.5 79.5,95.5 71.5,95.5C 71.5,87.5 71.5,79.5 71.5,71.5 Z"/></g>
<g><path style="opacity:1" fill="#ededed" d="M 263.5,71.5 C 271.5,71.5 279.5,71.5 287.5,71.5C 287.5,79.5 287.5,87.5 287.5,95.5C 279.5,95.5 271.5,95.5 263.5,95.5C 263.5,87.5 263.5,79.5 263.5,71.5 Z"/></g>
<g><path style="opacity:1" fill="#ededed" d="M 311.5,71.5 C 319.5,71.5 327.5,71.5 335.5,71.5C 335.5,79.5 335.5,87.5 335.5,95.5C 327.5,95.5 319.5,95.5 311.5,95.5C 311.5,87.5 311.5,79.5 311.5,71.5 Z"/></g>
<g><path style="opacity:1" fill="#ededed" d="M 215.5,71.5 C 223.5,71.5 231.5,71.5 239.5,71.5C 239.5,79.5 239.5,87.5 239.5,95.5C 234.678,96.0653 230.178,95.3987 226,93.5C 225.536,94.0944 225.369,94.7611 225.5,95.5C 223.833,93.8333 222.167,92.1667 220.5,90.5C 221.239,90.631 221.906,90.4643 222.5,90C 220.35,88.5886 218.016,87.7553 215.5,87.5C 215.5,82.1667 215.5,76.8333 215.5,71.5 Z"/></g>
<g><path style="opacity:1" fill="#fefffe" d="M 23.5,95.5 C 31.5,95.5 39.5,95.5 47.5,95.5C 47.5,103.5 47.5,111.5 47.5,119.5C 39.5,119.5 31.5,119.5 23.5,119.5C 23.5,111.5 23.5,103.5 23.5,95.5 Z"/></g>
<g><path style="opacity:1" fill="#fefffe" d="M 71.5,95.5 C 79.5,95.5 87.5,95.5 95.5,95.5C 95.5,103.5 95.5,111.5 95.5,119.5C 87.5,119.5 79.5,119.5 71.5,119.5C 71.5,111.5 71.5,103.5 71.5,95.5 Z"/></g>
<g><path style="opacity:1" fill="#fefffe" d="M 263.5,95.5 C 271.5,95.5 279.5,95.5 287.5,95.5C 287.5,103.5 287.5,111.5 287.5,119.5C 279.5,119.5 271.5,119.5 263.5,119.5C 263.5,111.5 263.5,103.5 263.5,95.5 Z"/></g>
<g><path style="opacity:1" fill="#fefffe" d="M 311.5,95.5 C 319.5,95.5 327.5,95.5 335.5,95.5C 335.5,103.5 335.5,111.5 335.5,119.5C 327.5,119.5 319.5,119.5 311.5,119.5C 311.5,111.5 311.5,103.5 311.5,95.5 Z"/></g>
<g><path style="opacity:1" fill="#ededed" d="M 47.5,95.5 C 55.5,95.5 63.5,95.5 71.5,95.5C 71.5,103.5 71.5,111.5 71.5,119.5C 63.5,119.5 55.5,119.5 47.5,119.5C 47.5,111.5 47.5,103.5 47.5,95.5 Z"/></g>
<g><path style="opacity:1" fill="#ededed" d="M 95.5,95.5 C 103.5,95.5 111.5,95.5 119.5,95.5C 119.5,103.5 119.5,111.5 119.5,119.5C 111.667,119.65 103.667,119.65 95.5,119.5C 95.5,111.5 95.5,103.5 95.5,95.5 Z"/></g>
<g><path style="opacity:1" fill="#ededed" d="M 239.5,95.5 C 247.5,95.5 255.5,95.5 263.5,95.5C 263.5,103.5 263.5,111.5 263.5,119.5C 255.5,119.5 247.5,119.5 239.5,119.5C 239.5,111.5 239.5,103.5 239.5,95.5 Z"/></g>
<g><path style="opacity:1" fill="#ededed" d="M 287.5,95.5 C 295.5,95.5 303.5,95.5 311.5,95.5C 311.5,103.5 311.5,111.5 311.5,119.5C 303.5,119.5 295.5,119.5 287.5,119.5C 287.5,111.5 287.5,103.5 287.5,95.5 Z"/></g>
<g><path style="opacity:1" fill="#1b1b1b" d="M 220.5,90.5 C 222.167,92.1667 223.833,93.8333 225.5,95.5C 228.38,102.899 230.213,110.566 231,118.5C 233.171,122.844 235.837,126.844 239,130.5C 243.734,137.205 244.401,144.205 241,151.5C 236.965,155.2 233.298,159.2 230,163.5C 229.825,169.619 228.992,175.619 227.5,181.5C 223.237,190.137 216.237,194.47 206.5,194.5C 199.296,194.435 193.296,197.101 188.5,202.5C 186.738,204.7 184.404,205.867 181.5,206C 177.5,206.667 173.5,206.667 169.5,206C 163.892,202.724 158.558,199.057 153.5,195C 145.659,195.501 138.326,194.001 131.5,190.5C 124.738,183.614 121.905,175.281 123,165.5C 122.529,163.754 121.862,162.087 121,160.5C 115.844,157.187 112.011,152.854 109.5,147.5C 109.335,144.15 109.502,140.817 110,137.5C 113.165,131.166 116.831,125.166 121,119.5C 122.665,112.158 124.165,104.824 125.5,97.5C 128.029,93.8112 131.362,90.9779 135.5,89C 141.581,88.8622 147.581,88.1956 153.5,87C 158.454,83.7147 163.12,80.048 167.5,76C 173.647,73.7902 179.647,74.1235 185.5,77C 189.548,80.7162 193.882,84.0496 198.5,87C 205.89,87.931 213.223,89.0976 220.5,90.5 Z"/></g>
<g><path style="opacity:1" fill="#f1f1f1" d="M 228.5,120.5 C 228.141,122.831 227.474,122.665 226.5,120C 222.848,119.501 219.182,119.335 215.5,119.5C 215.5,111.5 215.5,103.5 215.5,95.5C 207.5,95.5 199.5,95.5 191.5,95.5C 191.5,96.5 191.5,97.5 191.5,98.5C 194.049,98.6126 196.382,97.9459 198.5,96.5C 203.592,97.7144 208.592,98.0477 213.5,97.5C 213.67,98.8221 213.337,99.9887 212.5,101C 213.626,106.093 214.126,111.26 214,116.5C 213.586,116.957 213.086,117.291 212.5,117.5C 211.41,116.273 210.076,115.44 208.5,115C 208.833,114.667 209.167,114.333 209.5,114C 207.697,113.363 206.364,112.197 205.5,110.5C 204.311,109.571 202.978,109.238 201.5,109.5C 181.499,96.3668 162.833,98.0335 145.5,114.5C 145.607,112.621 145.107,112.288 144,113.5C 143.501,107.509 143.334,101.509 143.5,95.5C 151.5,95.5 159.5,95.5 167.5,95.5C 167.311,91.6518 167.311,87.9851 167.5,84.5C 166.995,83.0815 165.995,82.4148 164.5,82.5C 171.3,75.2467 178.633,74.7467 186.5,81C 194.079,89.787 203.746,93.4537 215.5,92C 220.333,93.5 223.5,96.6667 225,101.5C 225.925,107.922 227.092,114.256 228.5,120.5 Z"/></g>
<g><path style="opacity:1" fill="#f9f9f9" d="M 164.5,82.5 C 165.995,82.4148 166.995,83.0815 167.5,84.5C 167.311,87.9851 167.311,91.6518 167.5,95.5C 159.5,95.5 151.5,95.5 143.5,95.5C 143.334,101.509 143.501,107.509 144,113.5C 145.107,112.288 145.607,112.621 145.5,114.5C 143.467,117.523 141.467,120.523 139.5,123.5C 139.5,122.167 139.5,120.833 139.5,119.5C 134.786,119.173 130.12,119.507 125.5,120.5C 124.586,122.664 123.419,124.664 122,126.5C 121.536,125.906 121.369,125.239 121.5,124.5C 124.813,117.26 126.646,109.594 127,101.5C 128.4,98.0976 130.567,95.2643 133.5,93C 140.864,91.9947 148.197,90.6614 155.5,89C 158.883,87.3137 161.883,85.147 164.5,82.5 Z"/></g>
<g><path style="opacity:1" fill="#ededed" d="M -0.5,95.5 C 7.5,95.5 15.5,95.5 23.5,95.5C 23.5,103.5 23.5,111.5 23.5,119.5C 15.5,119.5 7.5,119.5 -0.5,119.5C -0.5,111.5 -0.5,103.5 -0.5,95.5 Z"/></g>
<g><path style="opacity:1" fill="#ededed" d="M 335.5,95.5 C 343.5,95.5 351.5,95.5 359.5,95.5C 359.5,103.5 359.5,111.5 359.5,119.5C 351.5,119.5 343.5,119.5 335.5,119.5C 335.5,111.5 335.5,103.5 335.5,95.5 Z"/></g>
<g><path style="opacity:1" fill="#fefffe" d="M -0.5,119.5 C 7.5,119.5 15.5,119.5 23.5,119.5C 23.5,127.5 23.5,135.5 23.5,143.5C 15.5,143.5 7.5,143.5 -0.5,143.5C -0.5,135.5 -0.5,127.5 -0.5,119.5 Z"/></g>
<g><path style="opacity:1" fill="#fefffe" d="M 47.5,119.5 C 55.5,119.5 63.5,119.5 71.5,119.5C 71.5,127.5 71.5,135.5 71.5,143.5C 63.5,143.5 55.5,143.5 47.5,143.5C 47.5,135.5 47.5,127.5 47.5,119.5 Z"/></g>
<g><path style="opacity:1" fill="#fbfbfb" d="M 119.5,95.5 C 122.082,95.0254 124.082,95.6921 125.5,97.5C 124.165,104.824 122.665,112.158 121,119.5C 116.831,125.166 113.165,131.166 110,137.5C 109.502,140.817 109.335,144.15 109.5,147.5C 108.448,147.649 107.448,147.483 106.5,147C 107.337,145.989 107.67,144.822 107.5,143.5C 103.5,143.5 99.5,143.5 95.5,143.5C 95.5,135.5 95.5,127.5 95.5,119.5C 103.667,119.65 111.667,119.65 119.5,119.5C 119.5,111.5 119.5,103.5 119.5,95.5 Z"/></g>
<g><path style="opacity:1" fill="#fcfcfc" d="M 239.5,95.5 C 239.5,103.5 239.5,111.5 239.5,119.5C 247.5,119.5 255.5,119.5 263.5,119.5C 263.5,127.5 263.5,135.5 263.5,143.5C 257.5,143.5 251.5,143.5 245.5,143.5C 245.02,148.126 243.187,152.126 240,155.5C 239.501,159.486 239.334,163.486 239.5,167.5C 236.753,167.187 234.086,167.52 231.5,168.5C 231.57,171.798 230.903,175.131 229.5,178.5C 229.833,179.167 230.167,179.833 230.5,180.5C 229.469,181.7 228.635,183.034 228,184.5C 227.517,183.552 227.351,182.552 227.5,181.5C 228.992,175.619 229.825,169.619 230,163.5C 233.298,159.2 236.965,155.2 241,151.5C 244.401,144.205 243.734,137.205 239,130.5C 235.837,126.844 233.171,122.844 231,118.5C 230.213,110.566 228.38,102.899 225.5,95.5C 225.369,94.7611 225.536,94.0944 226,93.5C 230.178,95.3987 234.678,96.0653 239.5,95.5 Z"/></g>
<g><path style="opacity:1" fill="#fefffe" d="M 287.5,119.5 C 295.5,119.5 303.5,119.5 311.5,119.5C 311.5,127.5 311.5,135.5 311.5,143.5C 303.5,143.5 295.5,143.5 287.5,143.5C 287.5,135.5 287.5,127.5 287.5,119.5 Z"/></g>
<g><path style="opacity:1" fill="#fefffe" d="M 335.5,119.5 C 343.5,119.5 351.5,119.5 359.5,119.5C 359.5,127.5 359.5,135.5 359.5,143.5C 351.5,143.5 343.5,143.5 335.5,143.5C 335.5,135.5 335.5,127.5 335.5,119.5 Z"/></g>
<g><path style="opacity:1" fill="#ededed" d="M 23.5,119.5 C 31.5,119.5 39.5,119.5 47.5,119.5C 47.5,127.5 47.5,135.5 47.5,143.5C 39.5,143.5 31.5,143.5 23.5,143.5C 23.5,135.5 23.5,127.5 23.5,119.5 Z"/></g>
<g><path style="opacity:1" fill="#ededed" d="M 71.5,119.5 C 79.5,119.5 87.5,119.5 95.5,119.5C 95.5,127.5 95.5,135.5 95.5,143.5C 87.5,143.5 79.5,143.5 71.5,143.5C 71.5,135.5 71.5,127.5 71.5,119.5 Z"/></g>
<g><path style="opacity:1" fill="#ececec" d="M 228.5,120.5 C 230.581,124.328 232.914,127.994 235.5,131.5C 234.903,131.735 234.57,132.235 234.5,133C 236.51,135.859 237.843,139.025 238.5,142.5C 231.532,143.497 224.532,143.83 217.5,143.5C 217.664,140.813 217.497,138.146 217,135.5C 216.817,138.365 216.317,141.031 215.5,143.5C 216.346,129.863 211.679,118.53 201.5,109.5C 202.978,109.238 204.311,109.571 205.5,110.5C 206.364,112.197 207.697,113.363 209.5,114C 209.167,114.333 208.833,114.667 208.5,115C 210.076,115.44 211.41,116.273 212.5,117.5C 213.086,117.291 213.586,116.957 214,116.5C 214.126,111.26 213.626,106.093 212.5,101C 213.337,99.9887 213.67,98.8221 213.5,97.5C 208.592,98.0477 203.592,97.7144 198.5,96.5C 196.382,97.9459 194.049,98.6126 191.5,98.5C 191.5,97.5 191.5,96.5 191.5,95.5C 199.5,95.5 207.5,95.5 215.5,95.5C 215.5,103.5 215.5,111.5 215.5,119.5C 219.182,119.335 222.848,119.501 226.5,120C 227.474,122.665 228.141,122.831 228.5,120.5 Z"/></g>
<g><path style="opacity:1" fill="#ededed" d="M 263.5,119.5 C 271.5,119.5 279.5,119.5 287.5,119.5C 287.5,127.5 287.5,135.5 287.5,143.5C 279.5,143.5 271.5,143.5 263.5,143.5C 263.5,135.5 263.5,127.5 263.5,119.5 Z"/></g>
<g><path style="opacity:1" fill="#ededed" d="M 311.5,119.5 C 319.5,119.5 327.5,119.5 335.5,119.5C 335.5,127.5 335.5,135.5 335.5,143.5C 327.5,143.5 319.5,143.5 311.5,143.5C 311.5,135.5 311.5,127.5 311.5,119.5 Z"/></g>
<g><path style="opacity:1" fill="#eeeeee" d="M 139.5,123.5 C 138.669,126.659 137.669,129.659 136.5,132.5C 136.649,131.448 136.483,130.448 136,129.5C 135.006,134.118 134.506,138.785 134.5,143.5C 129.5,143.5 124.5,143.5 119.5,143.5C 119.756,147.269 119.423,150.936 118.5,154.5C 112.912,150.181 111.079,144.514 113,137.5C 115.303,132.721 118.136,128.387 121.5,124.5C 121.369,125.239 121.536,125.906 122,126.5C 123.419,124.664 124.586,122.664 125.5,120.5C 130.12,119.507 134.786,119.173 139.5,119.5C 139.5,120.833 139.5,122.167 139.5,123.5 Z"/></g>
<g><path style="opacity:1" fill="#fafafa" d="M 136.5,132.5 C 135.208,145.072 138.208,156.405 145.5,166.5C 139.591,167.455 133.591,167.789 127.5,167.5C 127.012,170.711 127.679,173.544 129.5,176C 128.244,176.417 127.577,177.25 127.5,178.5C 128.06,169.182 125.06,161.182 118.5,154.5C 119.423,150.936 119.756,147.269 119.5,143.5C 124.5,143.5 129.5,143.5 134.5,143.5C 134.506,138.785 135.006,134.118 136,129.5C 136.483,130.448 136.649,131.448 136.5,132.5 Z"/></g>
<g><path style="opacity:1" fill="#f5f5f5" d="M 235.5,131.5 C 240.866,137.227 241.699,143.56 238,150.5C 234.667,153.833 231.333,157.167 228,160.5C 227,166.833 226,173.167 225,179.5C 223.389,183.275 220.889,186.275 217.5,188.5C 215.595,181.781 214.929,174.781 215.5,167.5C 212.813,167.664 210.146,167.497 207.5,167C 208.738,166.31 208.738,165.81 207.5,165.5C 212.341,158.977 215.008,151.644 215.5,143.5C 216.317,141.031 216.817,138.365 217,135.5C 217.497,138.146 217.664,140.813 217.5,143.5C 224.532,143.83 231.532,143.497 238.5,142.5C 237.843,139.025 236.51,135.859 234.5,133C 234.57,132.235 234.903,131.735 235.5,131.5 Z"/></g>
<g><path style="opacity:1" fill="#fefffe" d="M 23.5,143.5 C 31.5,143.5 39.5,143.5 47.5,143.5C 47.5,151.5 47.5,159.5 47.5,167.5C 39.5,167.5 31.5,167.5 23.5,167.5C 23.5,159.5 23.5,151.5 23.5,143.5 Z"/></g>
<g><path style="opacity:1" fill="#fefffe" d="M 71.5,143.5 C 79.5,143.5 87.5,143.5 95.5,143.5C 95.5,151.5 95.5,159.5 95.5,167.5C 87.5,167.5 79.5,167.5 71.5,167.5C 71.5,159.5 71.5,151.5 71.5,143.5 Z"/></g>
<g><path style="opacity:1" fill="#ececec" d="M 95.5,143.5 C 99.5,143.5 103.5,143.5 107.5,143.5C 107.67,144.822 107.337,145.989 106.5,147C 107.448,147.483 108.448,147.649 109.5,147.5C 112.011,152.854 115.844,157.187 121,160.5C 121.862,162.087 122.529,163.754 123,165.5C 121.905,175.281 124.738,183.614 131.5,190.5C 127.865,191.229 123.865,191.562 119.5,191.5C 119.5,183.5 119.5,175.5 119.5,167.5C 111.5,167.5 103.5,167.5 95.5,167.5C 95.5,159.5 95.5,151.5 95.5,143.5 Z"/></g>
<g><path style="opacity:1" fill="#fefffe" d="M 263.5,143.5 C 271.5,143.5 279.5,143.5 287.5,143.5C 287.5,151.5 287.5,159.5 287.5,167.5C 279.5,167.5 271.5,167.5 263.5,167.5C 263.5,159.5 263.5,151.5 263.5,143.5 Z"/></g>
<g><path style="opacity:1" fill="#fefffe" d="M 311.5,143.5 C 319.5,143.5 327.5,143.5 335.5,143.5C 335.5,151.5 335.5,159.5 335.5,167.5C 327.5,167.5 319.5,167.5 311.5,167.5C 311.5,159.5 311.5,151.5 311.5,143.5 Z"/></g>
<g><path style="opacity:1" fill="#ededed" d="M 47.5,143.5 C 55.5,143.5 63.5,143.5 71.5,143.5C 71.5,151.5 71.5,159.5 71.5,167.5C 63.5,167.5 55.5,167.5 47.5,167.5C 47.5,159.5 47.5,151.5 47.5,143.5 Z"/></g>
<g><path style="opacity:1" fill="#ededed" d="M 263.5,143.5 C 263.5,151.5 263.5,159.5 263.5,167.5C 255.5,167.5 247.5,167.5 239.5,167.5C 239.334,163.486 239.501,159.486 240,155.5C 243.187,152.126 245.02,148.126 245.5,143.5C 251.5,143.5 257.5,143.5 263.5,143.5 Z"/></g>
<g><path style="opacity:1" fill="#ededed" d="M 287.5,143.5 C 295.5,143.5 303.5,143.5 311.5,143.5C 311.5,151.5 311.5,159.5 311.5,167.5C 303.5,167.5 295.5,167.5 287.5,167.5C 287.5,159.5 287.5,151.5 287.5,143.5 Z"/></g>
<g><path style="opacity:1" fill="#ededed" d="M -0.5,143.5 C 7.5,143.5 15.5,143.5 23.5,143.5C 23.5,151.5 23.5,159.5 23.5,167.5C 15.5,167.5 7.5,167.5 -0.5,167.5C -0.5,159.5 -0.5,151.5 -0.5,143.5 Z"/></g>
<g><path style="opacity:1" fill="#ededed" d="M 335.5,143.5 C 343.5,143.5 351.5,143.5 359.5,143.5C 359.5,151.5 359.5,159.5 359.5,167.5C 351.5,167.5 343.5,167.5 335.5,167.5C 335.5,159.5 335.5,151.5 335.5,143.5 Z"/></g>
<g><path style="opacity:1" fill="#f6f6f6" d="M 207.5,165.5 C 208.738,165.81 208.738,166.31 207.5,167C 210.146,167.497 212.813,167.664 215.5,167.5C 214.929,174.781 215.595,181.781 217.5,188.5C 216.158,189.793 214.491,190.626 212.5,191C 207.833,191.333 203.167,191.667 198.5,192C 192.833,195.667 187.167,199.333 181.5,203C 177.5,203.667 173.5,203.667 169.5,203C 164.442,198.943 159.108,195.276 153.5,192C 143.764,193.312 135.597,190.478 129,183.5C 127.991,181.975 127.491,180.308 127.5,178.5C 127.577,177.25 128.244,176.417 129.5,176C 127.679,173.544 127.012,170.711 127.5,167.5C 133.591,167.789 139.591,167.455 145.5,166.5C 166.397,185.373 187.064,185.04 207.5,165.5 Z"/></g>
<g><path style="opacity:1" fill="#fefffe" d="M -0.5,167.5 C 7.5,167.5 15.5,167.5 23.5,167.5C 23.5,175.5 23.5,183.5 23.5,191.5C 15.5,191.5 7.5,191.5 -0.5,191.5C -0.5,183.5 -0.5,175.5 -0.5,167.5 Z"/></g>
<g><path style="opacity:1" fill="#fefffe" d="M 47.5,167.5 C 55.5,167.5 63.5,167.5 71.5,167.5C 71.5,175.5 71.5,183.5 71.5,191.5C 63.5,191.5 55.5,191.5 47.5,191.5C 47.5,183.5 47.5,175.5 47.5,167.5 Z"/></g>
<g><path style="opacity:1" fill="#fefffe" d="M 95.5,167.5 C 103.5,167.5 111.5,167.5 119.5,167.5C 119.5,175.5 119.5,183.5 119.5,191.5C 111.5,191.5 103.5,191.5 95.5,191.5C 95.5,183.5 95.5,175.5 95.5,167.5 Z"/></g>
<g><path style="opacity:1" fill="#fefffe" d="M 239.5,167.5 C 247.5,167.5 255.5,167.5 263.5,167.5C 263.5,175.5 263.5,183.5 263.5,191.5C 255.5,191.5 247.5,191.5 239.5,191.5C 239.5,183.5 239.5,175.5 239.5,167.5 Z"/></g>
<g><path style="opacity:1" fill="#fefffe" d="M 287.5,167.5 C 295.5,167.5 303.5,167.5 311.5,167.5C 311.5,175.5 311.5,183.5 311.5,191.5C 303.5,191.5 295.5,191.5 287.5,191.5C 287.5,183.5 287.5,175.5 287.5,167.5 Z"/></g>
<g><path style="opacity:1" fill="#fefffe" d="M 335.5,167.5 C 343.5,167.5 351.5,167.5 359.5,167.5C 359.5,175.5 359.5,183.5 359.5,191.5C 351.5,191.5 343.5,191.5 335.5,191.5C 335.5,183.5 335.5,175.5 335.5,167.5 Z"/></g>
<g><path style="opacity:1" fill="#ededed" d="M 23.5,167.5 C 31.5,167.5 39.5,167.5 47.5,167.5C 47.5,175.5 47.5,183.5 47.5,191.5C 39.5,191.5 31.5,191.5 23.5,191.5C 23.5,183.5 23.5,175.5 23.5,167.5 Z"/></g>
<g><path style="opacity:1" fill="#ededed" d="M 71.5,167.5 C 79.5,167.5 87.5,167.5 95.5,167.5C 95.5,175.5 95.5,183.5 95.5,191.5C 87.5,191.5 79.5,191.5 71.5,191.5C 71.5,183.5 71.5,175.5 71.5,167.5 Z"/></g>
<g><path style="opacity:1" fill="#ededed" d="M 263.5,167.5 C 271.5,167.5 279.5,167.5 287.5,167.5C 287.5,175.5 287.5,183.5 287.5,191.5C 279.5,191.5 271.5,191.5 263.5,191.5C 263.5,183.5 263.5,175.5 263.5,167.5 Z"/></g>
<g><path style="opacity:1" fill="#ededed" d="M 311.5,167.5 C 319.5,167.5 327.5,167.5 335.5,167.5C 335.5,175.5 335.5,183.5 335.5,191.5C 327.5,191.5 319.5,191.5 311.5,191.5C 311.5,183.5 311.5,175.5 311.5,167.5 Z"/></g>
<g><path style="opacity:1" fill="#1b1b1b" d="M 201.5,109.5 C 211.679,118.53 216.346,129.863 215.5,143.5C 215.008,151.644 212.341,158.977 207.5,165.5C 187.064,185.04 166.397,185.373 145.5,166.5C 138.208,156.405 135.208,145.072 136.5,132.5C 137.669,129.659 138.669,126.659 139.5,123.5C 141.467,120.523 143.467,117.523 145.5,114.5C 162.833,98.0335 181.499,96.3668 201.5,109.5 Z"/></g>
<g><path style="opacity:1" fill="#eeeeee" d="M 211.5,151.5 C 202.946,171.94 187.946,179.94 166.5,175.5C 167.473,173.052 167.806,170.385 167.5,167.5C 175.32,167.388 183.32,167.388 191.5,167.5C 191.208,159.347 191.208,151.347 191.5,143.5C 198.2,143.17 204.866,143.503 211.5,144.5C 210.735,146.295 210.068,148.128 209.5,150C 209.836,151.03 210.503,151.53 211.5,151.5 Z"/></g>
<g><path style="opacity:1" fill="#efefef" d="M 142.5,125.5 C 143.413,131.441 143.746,137.441 143.5,143.5C 148.849,142.461 153.349,143.795 157,147.5C 157.464,146.906 157.631,146.239 157.5,145.5C 160.833,148.167 163.833,151.167 166.5,154.5C 165.287,155.497 165.454,156.497 167,157.5C 167.498,160.817 167.665,164.15 167.5,167.5C 167.806,170.385 167.473,173.052 166.5,175.5C 155.243,172.754 147.076,166.087 142,155.5C 138.521,145.299 138.688,135.299 142.5,125.5 Z"/></g>
<g><path style="opacity:1" fill="#1a1a1a" d="M 166.5,154.5 C 163.833,151.167 160.833,148.167 157.5,145.5C 156.315,144.143 155.315,142.643 154.5,141C 156.774,136.697 160.107,134.031 164.5,133C 166.24,134.517 167.906,136.017 169.5,137.5C 170.191,139.022 171.358,140.022 173,140.5C 178.329,134.838 183.996,129.505 190,124.5C 193.634,126.967 196.801,129.967 199.5,133.5C 191.348,142.152 183.014,150.652 174.5,159C 173.5,159.667 172.5,159.667 171.5,159C 169.963,157.293 168.296,155.793 166.5,154.5 Z"/></g>
<g><path style="opacity:1" fill="#f0f0f0" d="M 189.5,127.5 C 191.133,128.945 192.966,130.279 195,131.5C 195.667,132.5 195.667,133.5 195,134.5C 187.679,141.987 180.179,149.321 172.5,156.5C 167.833,151.167 162.833,146.167 157.5,141.5C 159.167,139.167 161.167,137.167 163.5,135.5C 166.258,138.929 169.591,141.595 173.5,143.5C 179.254,138.616 184.587,133.283 189.5,127.5 Z"/></g>
<g><path style="opacity:1" fill="#f5f5f5" d="M 193.5,108.5 C 210.142,118.142 216.142,132.475 211.5,151.5C 210.503,151.53 209.836,151.03 209.5,150C 210.068,148.128 210.735,146.295 211.5,144.5C 204.866,143.503 198.2,143.17 191.5,143.5C 191.208,151.347 191.208,159.347 191.5,167.5C 183.32,167.388 175.32,167.388 167.5,167.5C 167.665,164.15 167.498,160.817 167,157.5C 165.454,156.497 165.287,155.497 166.5,154.5C 168.296,155.793 169.963,157.293 171.5,159C 172.5,159.667 173.5,159.667 174.5,159C 183.014,150.652 191.348,142.152 199.5,133.5C 196.801,129.967 193.634,126.967 190,124.5C 183.996,129.505 178.329,134.838 173,140.5C 171.358,140.022 170.191,139.022 169.5,137.5C 170.559,135.93 170.059,134.597 168,133.5C 167.501,128.845 167.334,124.179 167.5,119.5C 175.5,119.5 183.5,119.5 191.5,119.5C 190.92,115.351 191.586,111.684 193.5,108.5 Z"/></g>
<g><path style="opacity:1" fill="#f8f8f8" d="M 193.5,108.5 C 191.586,111.684 190.92,115.351 191.5,119.5C 183.5,119.5 175.5,119.5 167.5,119.5C 167.334,124.179 167.501,128.845 168,133.5C 170.059,134.597 170.559,135.93 169.5,137.5C 167.906,136.017 166.24,134.517 164.5,133C 160.107,134.031 156.774,136.697 154.5,141C 155.315,142.643 156.315,144.143 157.5,145.5C 157.631,146.239 157.464,146.906 157,147.5C 153.349,143.795 148.849,142.461 143.5,143.5C 143.746,137.441 143.413,131.441 142.5,125.5C 152.535,105.867 168.202,99.3675 189.5,106C 191.066,106.608 192.4,107.442 193.5,108.5 Z"/></g>
<g><path style="opacity:1" fill="#f5f5f5" d="M 131.5,190.5 C 138.326,194.001 145.659,195.501 153.5,195C 158.558,199.057 163.892,202.724 169.5,206C 173.5,206.667 177.5,206.667 181.5,206C 184.404,205.867 186.738,204.7 188.5,202.5C 189.496,202.414 190.329,202.748 191,203.5C 191.499,207.486 191.666,211.486 191.5,215.5C 183.5,215.5 175.5,215.5 167.5,215.5C 167.5,223.5 167.5,231.5 167.5,239.5C 167.5,247.5 167.5,255.5 167.5,263.5C 160.745,263.793 154.078,263.46 147.5,262.5C 153.684,251.297 159.684,239.964 165.5,228.5C 160.415,225.585 155.749,222.085 151.5,218C 140.601,218.815 131.434,215.315 124,207.5C 122.053,209.063 120.886,211.063 120.5,213.5C 119.508,206.352 119.175,199.019 119.5,191.5C 123.865,191.562 127.865,191.229 131.5,190.5 Z"/></g>
<g><path style="opacity:1" fill="#f8f8f8" d="M 239.5,167.5 C 239.5,175.5 239.5,183.5 239.5,191.5C 239.5,199.5 239.5,207.5 239.5,215.5C 239.747,218.939 239.414,222.272 238.5,225.5C 235.19,219.553 231.857,213.553 228.5,207.5C 224.902,211.461 220.569,214.128 215.5,215.5C 214.761,215.631 214.094,215.464 213.5,215C 214.5,214.667 215.5,214.333 216.5,214C 215.852,207.888 215.185,201.721 214.5,195.5C 211.35,197.189 208.683,196.856 206.5,194.5C 216.237,194.47 223.237,190.137 227.5,181.5C 227.351,182.552 227.517,183.552 228,184.5C 228.635,183.034 229.469,181.7 230.5,180.5C 230.167,179.833 229.833,179.167 229.5,178.5C 230.903,175.131 231.57,171.798 231.5,168.5C 234.086,167.52 236.753,167.187 239.5,167.5 Z"/></g>
<g><path style="opacity:1" fill="#fefffe" d="M 23.5,191.5 C 31.5,191.5 39.5,191.5 47.5,191.5C 47.5,199.5 47.5,207.5 47.5,215.5C 39.5,215.5 31.5,215.5 23.5,215.5C 23.5,207.5 23.5,199.5 23.5,191.5 Z"/></g>
<g><path style="opacity:1" fill="#fefffe" d="M 71.5,191.5 C 79.5,191.5 87.5,191.5 95.5,191.5C 95.5,199.5 95.5,207.5 95.5,215.5C 87.5,215.5 79.5,215.5 71.5,215.5C 71.5,207.5 71.5,199.5 71.5,191.5 Z"/></g>
<g><path style="opacity:1" fill="#fefffe" d="M 263.5,191.5 C 271.5,191.5 279.5,191.5 287.5,191.5C 287.5,199.5 287.5,207.5 287.5,215.5C 279.5,215.5 271.5,215.5 263.5,215.5C 263.5,207.5 263.5,199.5 263.5,191.5 Z"/></g>
<g><path style="opacity:1" fill="#fefffe" d="M 311.5,191.5 C 319.5,191.5 327.5,191.5 335.5,191.5C 335.5,199.5 335.5,207.5 335.5,215.5C 327.5,215.5 319.5,215.5 311.5,215.5C 311.5,207.5 311.5,199.5 311.5,191.5 Z"/></g>
<g><path style="opacity:1" fill="#ededed" d="M 47.5,191.5 C 55.5,191.5 63.5,191.5 71.5,191.5C 71.5,199.5 71.5,207.5 71.5,215.5C 63.5,215.5 55.5,215.5 47.5,215.5C 47.5,207.5 47.5,199.5 47.5,191.5 Z"/></g>
<g><path style="opacity:1" fill="#ededed" d="M 95.5,191.5 C 103.5,191.5 111.5,191.5 119.5,191.5C 119.175,199.019 119.508,206.352 120.5,213.5C 120.068,214.71 119.401,215.71 118.5,216.5C 118.649,215.448 118.483,214.448 118,213.5C 117.581,214.672 116.915,215.672 116,216.5C 109.256,215.521 102.422,215.188 95.5,215.5C 95.5,207.5 95.5,199.5 95.5,191.5 Z"/></g>
<g><path style="opacity:1" fill="#ededed" d="M 239.5,191.5 C 247.5,191.5 255.5,191.5 263.5,191.5C 263.5,199.5 263.5,207.5 263.5,215.5C 255.5,215.5 247.5,215.5 239.5,215.5C 239.5,207.5 239.5,199.5 239.5,191.5 Z"/></g>
<g><path style="opacity:1" fill="#ededed" d="M 287.5,191.5 C 295.5,191.5 303.5,191.5 311.5,191.5C 311.5,199.5 311.5,207.5 311.5,215.5C 303.5,215.5 295.5,215.5 287.5,215.5C 287.5,207.5 287.5,199.5 287.5,191.5 Z"/></g>
<g><path style="opacity:1" fill="#ededed" d="M -0.5,191.5 C 7.5,191.5 15.5,191.5 23.5,191.5C 23.5,199.5 23.5,207.5 23.5,215.5C 15.5,215.5 7.5,215.5 -0.5,215.5C -0.5,207.5 -0.5,199.5 -0.5,191.5 Z"/></g>
<g><path style="opacity:1" fill="#ededed" d="M 335.5,191.5 C 343.5,191.5 351.5,191.5 359.5,191.5C 359.5,199.5 359.5,207.5 359.5,215.5C 351.5,215.5 343.5,215.5 335.5,215.5C 335.5,207.5 335.5,199.5 335.5,191.5 Z"/></g>
<g><path style="opacity:1" fill="#1a1a1a" d="M 147.5,262.5 C 145.74,265.689 144.24,269.022 143,272.5C 141.961,273.71 140.794,274.71 139.5,275.5C 137.097,275.607 135.264,274.607 134,272.5C 131.025,267.382 128.192,262.215 125.5,257C 117.848,257.775 110.181,258.442 102.5,259C 100.522,256.503 100.022,253.669 101,250.5C 103.038,247.757 104.538,244.757 105.5,241.5C 110.072,233.358 114.405,225.025 118.5,216.5C 119.401,215.71 120.068,214.71 120.5,213.5C 120.886,211.063 122.053,209.063 124,207.5C 131.434,215.315 140.601,218.815 151.5,218C 155.749,222.085 160.415,225.585 165.5,228.5C 159.684,239.964 153.684,251.297 147.5,262.5 Z"/></g>
<g><path style="opacity:1" fill="#fefffe" d="M -0.5,215.5 C 7.5,215.5 15.5,215.5 23.5,215.5C 23.5,223.5 23.5,231.5 23.5,239.5C 15.5,239.5 7.5,239.5 -0.5,239.5C -0.5,231.5 -0.5,223.5 -0.5,215.5 Z"/></g>
<g><path style="opacity:1" fill="#fefffe" d="M 47.5,215.5 C 55.5,215.5 63.5,215.5 71.5,215.5C 71.5,223.5 71.5,231.5 71.5,239.5C 63.5,239.5 55.5,239.5 47.5,239.5C 47.5,231.5 47.5,223.5 47.5,215.5 Z"/></g>
<g><path style="opacity:1" fill="#fdfdfd" d="M 239.5,215.5 C 247.5,215.5 255.5,215.5 263.5,215.5C 263.5,223.5 263.5,231.5 263.5,239.5C 258.156,239.334 252.823,239.501 247.5,240C 248.38,241.356 248.714,242.856 248.5,244.5C 244.421,238.68 241.088,232.347 238.5,225.5C 239.414,222.272 239.747,218.939 239.5,215.5 Z"/></g>
<g><path style="opacity:1" fill="#fefffe" d="M 287.5,215.5 C 295.5,215.5 303.5,215.5 311.5,215.5C 311.5,223.5 311.5,231.5 311.5,239.5C 303.5,239.5 295.5,239.5 287.5,239.5C 287.5,231.5 287.5,223.5 287.5,215.5 Z"/></g>
<g><path style="opacity:1" fill="#fefffe" d="M 335.5,215.5 C 343.5,215.5 351.5,215.5 359.5,215.5C 359.5,223.5 359.5,231.5 359.5,239.5C 351.5,239.5 343.5,239.5 335.5,239.5C 335.5,231.5 335.5,223.5 335.5,215.5 Z"/></g>
<g><path style="opacity:1" fill="#ededed" d="M 23.5,215.5 C 31.5,215.5 39.5,215.5 47.5,215.5C 47.5,223.5 47.5,231.5 47.5,239.5C 39.5,239.5 31.5,239.5 23.5,239.5C 23.5,231.5 23.5,223.5 23.5,215.5 Z"/></g>
<g><path style="opacity:1" fill="#f2f2f2" d="M 118.5,216.5 C 114.405,225.025 110.072,233.358 105.5,241.5C 105.389,240.883 105.056,240.383 104.5,240C 101.518,239.502 98.5184,239.335 95.5,239.5C 87.5,239.5 79.5,239.5 71.5,239.5C 71.5,231.5 71.5,223.5 71.5,215.5C 79.5,215.5 87.5,215.5 95.5,215.5C 102.422,215.188 109.256,215.521 116,216.5C 116.915,215.672 117.581,214.672 118,213.5C 118.483,214.448 118.649,215.448 118.5,216.5 Z"/></g>
<g><path style="opacity:1" fill="#eeeeee" d="M 206.5,194.5 C 208.683,196.856 211.35,197.189 214.5,195.5C 215.185,201.721 215.852,207.888 216.5,214C 215.5,214.333 214.5,214.667 213.5,215C 214.094,215.464 214.761,215.631 215.5,215.5C 210.788,217.155 205.788,217.988 200.5,218C 196.36,222.233 191.693,225.733 186.5,228.5C 188.038,230.243 189.038,232.243 189.5,234.5C 188.201,236.153 188.534,237.653 190.5,239C 189.833,239.167 189.167,239.333 188.5,239.5C 181.661,239.371 174.661,239.371 167.5,239.5C 167.5,231.5 167.5,223.5 167.5,215.5C 175.5,215.5 183.5,215.5 191.5,215.5C 191.666,211.486 191.499,207.486 191,203.5C 190.329,202.748 189.496,202.414 188.5,202.5C 193.296,197.101 199.296,194.435 206.5,194.5 Z"/></g>
<g><path style="opacity:1" fill="#ededed" d="M 263.5,215.5 C 271.5,215.5 279.5,215.5 287.5,215.5C 287.5,223.5 287.5,231.5 287.5,239.5C 279.5,239.5 271.5,239.5 263.5,239.5C 263.5,231.5 263.5,223.5 263.5,215.5 Z"/></g>
<g><path style="opacity:1" fill="#ededed" d="M 311.5,215.5 C 319.5,215.5 327.5,215.5 335.5,215.5C 335.5,223.5 335.5,231.5 335.5,239.5C 327.5,239.5 319.5,239.5 311.5,239.5C 311.5,231.5 311.5,223.5 311.5,215.5 Z"/></g>
<g><path style="opacity:1" fill="#ededed" d="M 133.5,218.5 C 132.761,218.369 132.094,218.536 131.5,219C 133.392,219.973 135.392,220.64 137.5,221C 136.833,221.333 136.167,221.667 135.5,222C 137.874,221.598 140.207,221.764 142.5,222.5C 143.495,228.128 143.829,233.794 143.5,239.5C 135.5,239.5 127.5,239.5 119.5,239.5C 119.5,243.833 119.5,248.167 119.5,252.5C 116.008,252.446 113.008,253.446 110.5,255.5C 108.393,256.468 106.059,256.802 103.5,256.5C 103.34,254.801 103.506,253.134 104,251.5C 110.309,238.216 117.142,225.216 124.5,212.5C 127.393,214.772 130.393,216.772 133.5,218.5 Z"/></g>
<g><path style="opacity:1" fill="#1b1b1b" d="M 238.5,225.5 C 241.088,232.347 244.421,238.68 248.5,244.5C 248.504,246.842 249.337,248.842 251,250.5C 251.777,253.429 251.61,256.263 250.5,259C 243.272,258.992 236.106,258.158 229,256.5C 224.023,261.093 220.523,266.76 218.5,273.5C 216.844,274.146 215.177,274.813 213.5,275.5C 211.971,275.471 210.804,274.804 210,273.5C 205.741,264.646 201.241,255.98 196.5,247.5C 194.417,243 192.084,238.666 189.5,234.5C 189.038,232.243 188.038,230.243 186.5,228.5C 191.693,225.733 196.36,222.233 200.5,218C 205.788,217.988 210.788,217.155 215.5,215.5C 220.569,214.128 224.902,211.461 228.5,207.5C 231.857,213.553 235.19,219.553 238.5,225.5 Z"/></g>
<g><path style="opacity:1" fill="#ededed" d="M 235.5,254.5 C 236.833,254.5 238.167,254.5 239.5,254.5C 239.5,249.5 239.5,244.5 239.5,239.5C 231.5,239.5 223.5,239.5 215.5,239.5C 215.5,233.167 215.5,226.833 215.5,220.5C 219.5,220.167 219.5,219.833 215.5,219.5C 219.733,217.712 223.733,215.378 227.5,212.5C 234.858,225.216 241.691,238.216 248,251.5C 248.494,253.134 248.66,254.801 248.5,256.5C 243.924,256.562 239.591,255.895 235.5,254.5 Z"/></g>
<g><path style="opacity:1" fill="#fdfdfd" d="M 189.5,234.5 C 192.084,238.666 194.417,243 196.5,247.5C 194.112,246.781 192.612,245.115 192,242.5C 191.5,249.492 191.334,256.492 191.5,263.5C 183.5,263.5 175.5,263.5 167.5,263.5C 167.5,255.5 167.5,247.5 167.5,239.5C 174.661,239.371 181.661,239.371 188.5,239.5C 189.167,239.333 189.833,239.167 190.5,239C 188.534,237.653 188.201,236.153 189.5,234.5 Z"/></g>
<g><path style="opacity:1" fill="#fefffe" d="M 23.5,239.5 C 31.5,239.5 39.5,239.5 47.5,239.5C 47.5,247.5 47.5,255.5 47.5,263.5C 39.5,263.5 31.5,263.5 23.5,263.5C 23.5,255.5 23.5,247.5 23.5,239.5 Z"/></g>
<g><path style="opacity:1" fill="#fefffe" d="M 71.5,239.5 C 79.5,239.5 87.5,239.5 95.5,239.5C 95.5,247.5 95.5,255.5 95.5,263.5C 87.5,263.5 79.5,263.5 71.5,263.5C 71.5,255.5 71.5,247.5 71.5,239.5 Z"/></g>
<g><path style="opacity:1" fill="#fafafa" d="M 133.5,218.5 C 139.048,219.96 144.715,220.794 150.5,221C 154.187,224.024 157.853,227.024 161.5,230C 154.035,243.095 147.202,256.595 141,270.5C 139.333,273.167 137.667,273.167 136,270.5C 132.96,264.918 129.793,259.418 126.5,254C 121.167,254.164 115.834,254.664 110.5,255.5C 113.008,253.446 116.008,252.446 119.5,252.5C 119.5,248.167 119.5,243.833 119.5,239.5C 127.5,239.5 135.5,239.5 143.5,239.5C 143.829,233.794 143.495,228.128 142.5,222.5C 140.207,221.764 137.874,221.598 135.5,222C 136.167,221.667 136.833,221.333 137.5,221C 135.392,220.64 133.392,219.973 131.5,219C 132.094,218.536 132.761,218.369 133.5,218.5 Z"/></g>
<g><path style="opacity:1" fill="#fefffe" d="M 263.5,239.5 C 271.5,239.5 279.5,239.5 287.5,239.5C 287.5,247.5 287.5,255.5 287.5,263.5C 279.5,263.5 271.5,263.5 263.5,263.5C 263.5,255.5 263.5,247.5 263.5,239.5 Z"/></g>
<g><path style="opacity:1" fill="#fefffe" d="M 311.5,239.5 C 319.5,239.5 327.5,239.5 335.5,239.5C 335.5,247.5 335.5,255.5 335.5,263.5C 327.5,263.5 319.5,263.5 311.5,263.5C 311.5,255.5 311.5,247.5 311.5,239.5 Z"/></g>
<g><path style="opacity:1" fill="#f5f5f5" d="M 215.5,219.5 C 219.5,219.833 219.5,220.167 215.5,220.5C 215.5,226.833 215.5,233.167 215.5,239.5C 223.5,239.5 231.5,239.5 239.5,239.5C 239.5,244.5 239.5,249.5 239.5,254.5C 238.167,254.5 236.833,254.5 235.5,254.5C 232.183,253.779 228.849,253.612 225.5,254C 222.04,259.752 218.707,265.585 215.5,271.5C 214.349,272.731 213.183,272.731 212,271.5C 205.089,257.344 197.922,243.344 190.5,229.5C 194.309,226.858 197.976,224.025 201.5,221C 206.171,220.462 210.838,219.962 215.5,219.5 Z"/></g>
<g><path style="opacity:1" fill="#ededed" d="M 47.5,239.5 C 55.5,239.5 63.5,239.5 71.5,239.5C 71.5,247.5 71.5,255.5 71.5,263.5C 63.5,263.5 55.5,263.5 47.5,263.5C 47.5,255.5 47.5,247.5 47.5,239.5 Z"/></g>
<g><path style="opacity:1" fill="#ededed" d="M 287.5,239.5 C 295.5,239.5 303.5,239.5 311.5,239.5C 311.5,247.5 311.5,255.5 311.5,263.5C 303.5,263.5 295.5,263.5 287.5,263.5C 287.5,255.5 287.5,247.5 287.5,239.5 Z"/></g>
<g><path style="opacity:1" fill="#ededed" d="M -0.5,239.5 C 7.5,239.5 15.5,239.5 23.5,239.5C 23.5,247.5 23.5,255.5 23.5,263.5C 15.5,263.5 7.5,263.5 -0.5,263.5C -0.5,255.5 -0.5,247.5 -0.5,239.5 Z"/></g>
<g><path style="opacity:1" fill="#ededed" d="M 335.5,239.5 C 343.5,239.5 351.5,239.5 359.5,239.5C 359.5,247.5 359.5,255.5 359.5,263.5C 351.5,263.5 343.5,263.5 335.5,263.5C 335.5,255.5 335.5,247.5 335.5,239.5 Z"/></g>
<g><path style="opacity:1" fill="#ededed" d="M 95.5,239.5 C 98.5184,239.335 101.518,239.502 104.5,240C 105.056,240.383 105.389,240.883 105.5,241.5C 104.538,244.757 103.038,247.757 101,250.5C 100.022,253.669 100.522,256.503 102.5,259C 110.181,258.442 117.848,257.775 125.5,257C 128.192,262.215 131.025,267.382 134,272.5C 135.264,274.607 137.097,275.607 139.5,275.5C 138.391,276.29 137.058,276.79 135.5,277C 138.347,278.852 140.847,278.352 143,275.5C 143.499,279.486 143.666,283.486 143.5,287.5C 135.5,287.5 127.5,287.5 119.5,287.5C 119.5,279.5 119.5,271.5 119.5,263.5C 111.5,263.5 103.5,263.5 95.5,263.5C 95.5,255.5 95.5,247.5 95.5,239.5 Z"/></g>
<g><path style="opacity:1" fill="#fdfdfd" d="M 147.5,262.5 C 154.078,263.46 160.745,263.793 167.5,263.5C 167.5,271.5 167.5,279.5 167.5,287.5C 159.5,287.5 151.5,287.5 143.5,287.5C 143.666,283.486 143.499,279.486 143,275.5C 140.847,278.352 138.347,278.852 135.5,277C 137.058,276.79 138.391,276.29 139.5,275.5C 140.794,274.71 141.961,273.71 143,272.5C 144.24,269.022 145.74,265.689 147.5,262.5 Z"/></g>
<g><path style="opacity:1" fill="#fafafa" d="M 196.5,247.5 C 201.241,255.98 205.741,264.646 210,273.5C 210.804,274.804 211.971,275.471 213.5,275.5C 215.177,274.813 216.844,274.146 218.5,273.5C 219.525,273.897 219.692,274.563 219,275.5C 218,276.167 217,276.833 216,277.5C 215.502,280.817 215.335,284.15 215.5,287.5C 207.5,287.5 199.5,287.5 191.5,287.5C 191.5,279.5 191.5,271.5 191.5,263.5C 191.334,256.492 191.5,249.492 192,242.5C 192.612,245.115 194.112,246.781 196.5,247.5 Z"/></g>
<g><path style="opacity:1" fill="#fefffe" d="M -0.5,263.5 C 7.5,263.5 15.5,263.5 23.5,263.5C 23.5,271.5 23.5,279.5 23.5,287.5C 15.5,287.5 7.5,287.5 -0.5,287.5C -0.5,279.5 -0.5,271.5 -0.5,263.5 Z"/></g>
<g><path style="opacity:1" fill="#fefffe" d="M 47.5,263.5 C 55.5,263.5 63.5,263.5 71.5,263.5C 71.5,271.5 71.5,279.5 71.5,287.5C 63.5,287.5 55.5,287.5 47.5,287.5C 47.5,279.5 47.5,271.5 47.5,263.5 Z"/></g>
<g><path style="opacity:1" fill="#fefffe" d="M 95.5,263.5 C 103.5,263.5 111.5,263.5 119.5,263.5C 119.5,271.5 119.5,279.5 119.5,287.5C 111.5,287.5 103.5,287.5 95.5,287.5C 95.5,279.5 95.5,271.5 95.5,263.5 Z"/></g>
<g><path style="opacity:1" fill="#eeeeee" d="M 263.5,239.5 C 263.5,247.5 263.5,255.5 263.5,263.5C 255.5,263.5 247.5,263.5 239.5,263.5C 239.5,271.5 239.5,279.5 239.5,287.5C 231.5,287.5 223.5,287.5 215.5,287.5C 215.335,284.15 215.502,280.817 216,277.5C 217,276.833 218,276.167 219,275.5C 219.692,274.563 219.525,273.897 218.5,273.5C 220.523,266.76 224.023,261.093 229,256.5C 236.106,258.158 243.272,258.992 250.5,259C 251.61,256.263 251.777,253.429 251,250.5C 249.337,248.842 248.504,246.842 248.5,244.5C 248.714,242.856 248.38,241.356 247.5,240C 252.823,239.501 258.156,239.334 263.5,239.5 Z"/></g>
<g><path style="opacity:1" fill="#fefffe" d="M 263.5,263.5 C 263.5,271.5 263.5,279.5 263.5,287.5C 255.5,287.5 247.5,287.5 239.5,287.5C 239.5,279.5 239.5,271.5 239.5,263.5C 247.5,263.5 255.5,263.5 263.5,263.5 Z"/></g>
<g><path style="opacity:1" fill="#fefffe" d="M 287.5,263.5 C 295.5,263.5 303.5,263.5 311.5,263.5C 311.5,271.5 311.5,279.5 311.5,287.5C 303.5,287.5 295.5,287.5 287.5,287.5C 287.5,279.5 287.5,271.5 287.5,263.5 Z"/></g>
<g><path style="opacity:1" fill="#fefffe" d="M 335.5,263.5 C 343.5,263.5 351.5,263.5 359.5,263.5C 359.5,271.5 359.5,279.5 359.5,287.5C 351.5,287.5 343.5,287.5 335.5,287.5C 335.5,279.5 335.5,271.5 335.5,263.5 Z"/></g>
<g><path style="opacity:1" fill="#ededed" d="M 23.5,263.5 C 31.5,263.5 39.5,263.5 47.5,263.5C 47.5,271.5 47.5,279.5 47.5,287.5C 39.5,287.5 31.5,287.5 23.5,287.5C 23.5,279.5 23.5,271.5 23.5,263.5 Z"/></g>
<g><path style="opacity:1" fill="#ededed" d="M 71.5,263.5 C 79.5,263.5 87.5,263.5 95.5,263.5C 95.5,271.5 95.5,279.5 95.5,287.5C 87.5,287.5 79.5,287.5 71.5,287.5C 71.5,279.5 71.5,271.5 71.5,263.5 Z"/></g>
<g><path style="opacity:1" fill="#ededed" d="M 167.5,263.5 C 175.5,263.5 183.5,263.5 191.5,263.5C 191.5,271.5 191.5,279.5 191.5,287.5C 183.5,287.5 175.5,287.5 167.5,287.5C 167.5,279.5 167.5,271.5 167.5,263.5 Z"/></g>
<g><path style="opacity:1" fill="#ededed" d="M 263.5,263.5 C 271.5,263.5 279.5,263.5 287.5,263.5C 287.5,271.5 287.5,279.5 287.5,287.5C 279.5,287.5 271.5,287.5 263.5,287.5C 263.5,279.5 263.5,271.5 263.5,263.5 Z"/></g>
<g><path style="opacity:1" fill="#ededed" d="M 311.5,263.5 C 319.5,263.5 327.5,263.5 335.5,263.5C 335.5,271.5 335.5,279.5 335.5,287.5C 327.5,287.5 319.5,287.5 311.5,287.5C 311.5,279.5 311.5,271.5 311.5,263.5 Z"/></g>
<g><path style="opacity:1" fill="#fefffe" d="M 23.5,287.5 C 31.5,287.5 39.5,287.5 47.5,287.5C 47.5,295.5 47.5,303.5 47.5,311.5C 39.5,311.5 31.5,311.5 23.5,311.5C 23.5,303.5 23.5,295.5 23.5,287.5 Z"/></g>
<g><path style="opacity:1" fill="#fefffe" d="M 71.5,287.5 C 79.5,287.5 87.5,287.5 95.5,287.5C 95.5,295.5 95.5,303.5 95.5,311.5C 87.5,311.5 79.5,311.5 71.5,311.5C 71.5,303.5 71.5,295.5 71.5,287.5 Z"/></g>
<g><path style="opacity:1" fill="#fefffe" d="M 119.5,287.5 C 127.5,287.5 135.5,287.5 143.5,287.5C 143.5,295.5 143.5,303.5 143.5,311.5C 135.5,311.5 127.5,311.5 119.5,311.5C 119.5,303.5 119.5,295.5 119.5,287.5 Z"/></g>
<g><path style="opacity:1" fill="#fefffe" d="M 167.5,287.5 C 175.5,287.5 183.5,287.5 191.5,287.5C 191.5,295.5 191.5,303.5 191.5,311.5C 183.5,311.5 175.5,311.5 167.5,311.5C 167.5,303.5 167.5,295.5 167.5,287.5 Z"/></g>
<g><path style="opacity:1" fill="#fefffe" d="M 215.5,287.5 C 223.5,287.5 231.5,287.5 239.5,287.5C 239.5,295.5 239.5,303.5 239.5,311.5C 231.5,311.5 223.5,311.5 215.5,311.5C 215.5,303.5 215.5,295.5 215.5,287.5 Z"/></g>
<g><path style="opacity:1" fill="#fefffe" d="M 263.5,287.5 C 271.5,287.5 279.5,287.5 287.5,287.5C 287.5,295.5 287.5,303.5 287.5,311.5C 279.5,311.5 271.5,311.5 263.5,311.5C 263.5,303.5 263.5,295.5 263.5,287.5 Z"/></g>
<g><path style="opacity:1" fill="#fefffe" d="M 311.5,287.5 C 319.5,287.5 327.5,287.5 335.5,287.5C 335.5,295.5 335.5,303.5 335.5,311.5C 327.5,311.5 319.5,311.5 311.5,311.5C 311.5,303.5 311.5,295.5 311.5,287.5 Z"/></g>
<g><path style="opacity:1" fill="#ededed" d="M 47.5,287.5 C 55.5,287.5 63.5,287.5 71.5,287.5C 71.5,295.5 71.5,303.5 71.5,311.5C 63.5,311.5 55.5,311.5 47.5,311.5C 47.5,303.5 47.5,295.5 47.5,287.5 Z"/></g>
<g><path style="opacity:1" fill="#ededed" d="M 95.5,287.5 C 103.5,287.5 111.5,287.5 119.5,287.5C 119.5,295.5 119.5,303.5 119.5,311.5C 111.5,311.5 103.5,311.5 95.5,311.5C 95.5,303.5 95.5,295.5 95.5,287.5 Z"/></g>
<g><path style="opacity:1" fill="#ededed" d="M 143.5,287.5 C 151.5,287.5 159.5,287.5 167.5,287.5C 167.5,295.5 167.5,303.5 167.5,311.5C 159.5,311.5 151.5,311.5 143.5,311.5C 143.5,303.5 143.5,295.5 143.5,287.5 Z"/></g>
<g><path style="opacity:1" fill="#ededed" d="M 191.5,287.5 C 199.5,287.5 207.5,287.5 215.5,287.5C 215.5,295.5 215.5,303.5 215.5,311.5C 207.5,311.5 199.5,311.5 191.5,311.5C 191.5,303.5 191.5,295.5 191.5,287.5 Z"/></g>
<g><path style="opacity:1" fill="#ededed" d="M 239.5,287.5 C 247.5,287.5 255.5,287.5 263.5,287.5C 263.5,295.5 263.5,303.5 263.5,311.5C 255.5,311.5 247.5,311.5 239.5,311.5C 239.5,303.5 239.5,295.5 239.5,287.5 Z"/></g>
<g><path style="opacity:1" fill="#ededed" d="M 287.5,287.5 C 295.5,287.5 303.5,287.5 311.5,287.5C 311.5,295.5 311.5,303.5 311.5,311.5C 303.5,311.5 295.5,311.5 287.5,311.5C 287.5,303.5 287.5,295.5 287.5,287.5 Z"/></g>
<g><path style="opacity:1" fill="#ededed" d="M -0.5,287.5 C 7.5,287.5 15.5,287.5 23.5,287.5C 23.5,295.5 23.5,303.5 23.5,311.5C 15.5,311.5 7.5,311.5 -0.5,311.5C -0.5,303.5 -0.5,295.5 -0.5,287.5 Z"/></g>
<g><path style="opacity:1" fill="#ededed" d="M 335.5,287.5 C 343.5,287.5 351.5,287.5 359.5,287.5C 359.5,295.5 359.5,303.5 359.5,311.5C 351.5,311.5 343.5,311.5 335.5,311.5C 335.5,303.5 335.5,295.5 335.5,287.5 Z"/></g>
<g><path style="opacity:1" fill="#fefffe" d="M -0.5,311.5 C 7.5,311.5 15.5,311.5 23.5,311.5C 23.5,319.5 23.5,327.5 23.5,335.5C 15.5,335.5 7.5,335.5 -0.5,335.5C -0.5,327.5 -0.5,319.5 -0.5,311.5 Z"/></g>
<g><path style="opacity:1" fill="#fefffe" d="M 47.5,311.5 C 55.5,311.5 63.5,311.5 71.5,311.5C 71.5,319.5 71.5,327.5 71.5,335.5C 63.5,335.5 55.5,335.5 47.5,335.5C 47.5,327.5 47.5,319.5 47.5,311.5 Z"/></g>
<g><path style="opacity:1" fill="#fefffe" d="M 95.5,311.5 C 103.5,311.5 111.5,311.5 119.5,311.5C 119.5,319.5 119.5,327.5 119.5,335.5C 111.5,335.5 103.5,335.5 95.5,335.5C 95.5,327.5 95.5,319.5 95.5,311.5 Z"/></g>
<g><path style="opacity:1" fill="#fefffe" d="M 143.5,311.5 C 151.5,311.5 159.5,311.5 167.5,311.5C 167.5,319.5 167.5,327.5 167.5,335.5C 159.5,335.5 151.5,335.5 143.5,335.5C 143.5,327.5 143.5,319.5 143.5,311.5 Z"/></g>
<g><path style="opacity:1" fill="#fefffe" d="M 191.5,311.5 C 199.5,311.5 207.5,311.5 215.5,311.5C 215.5,319.5 215.5,327.5 215.5,335.5C 207.5,335.5 199.5,335.5 191.5,335.5C 191.5,327.5 191.5,319.5 191.5,311.5 Z"/></g>
<g><path style="opacity:1" fill="#fefffe" d="M 239.5,311.5 C 247.5,311.5 255.5,311.5 263.5,311.5C 263.5,319.5 263.5,327.5 263.5,335.5C 255.5,335.5 247.5,335.5 239.5,335.5C 239.5,327.5 239.5,319.5 239.5,311.5 Z"/></g>
<g><path style="opacity:1" fill="#fefffe" d="M 287.5,311.5 C 295.5,311.5 303.5,311.5 311.5,311.5C 311.5,319.5 311.5,327.5 311.5,335.5C 303.5,335.5 295.5,335.5 287.5,335.5C 287.5,327.5 287.5,319.5 287.5,311.5 Z"/></g>
<g><path style="opacity:1" fill="#fefffe" d="M 335.5,311.5 C 343.5,311.5 351.5,311.5 359.5,311.5C 359.5,319.5 359.5,327.5 359.5,335.5C 351.5,335.5 343.5,335.5 335.5,335.5C 335.5,327.5 335.5,319.5 335.5,311.5 Z"/></g>
<g><path style="opacity:1" fill="#ededed" d="M 23.5,311.5 C 31.5,311.5 39.5,311.5 47.5,311.5C 47.5,319.5 47.5,327.5 47.5,335.5C 39.5,335.5 31.5,335.5 23.5,335.5C 23.5,327.5 23.5,319.5 23.5,311.5 Z"/></g>
<g><path style="opacity:1" fill="#ededed" d="M 71.5,311.5 C 79.5,311.5 87.5,311.5 95.5,311.5C 95.5,319.5 95.5,327.5 95.5,335.5C 87.5,335.5 79.5,335.5 71.5,335.5C 71.5,327.5 71.5,319.5 71.5,311.5 Z"/></g>
<g><path style="opacity:1" fill="#ededed" d="M 119.5,311.5 C 127.5,311.5 135.5,311.5 143.5,311.5C 143.5,319.5 143.5,327.5 143.5,335.5C 135.5,335.5 127.5,335.5 119.5,335.5C 119.5,327.5 119.5,319.5 119.5,311.5 Z"/></g>
<g><path style="opacity:1" fill="#ededed" d="M 167.5,311.5 C 175.5,311.5 183.5,311.5 191.5,311.5C 191.5,319.5 191.5,327.5 191.5,335.5C 183.5,335.5 175.5,335.5 167.5,335.5C 167.5,327.5 167.5,319.5 167.5,311.5 Z"/></g>
<g><path style="opacity:1" fill="#ededed" d="M 215.5,311.5 C 223.5,311.5 231.5,311.5 239.5,311.5C 239.5,319.5 239.5,327.5 239.5,335.5C 231.5,335.5 223.5,335.5 215.5,335.5C 215.5,327.5 215.5,319.5 215.5,311.5 Z"/></g>
<g><path style="opacity:1" fill="#ededed" d="M 263.5,311.5 C 271.5,311.5 279.5,311.5 287.5,311.5C 287.5,319.5 287.5,327.5 287.5,335.5C 279.5,335.5 271.5,335.5 263.5,335.5C 263.5,327.5 263.5,319.5 263.5,311.5 Z"/></g>
<g><path style="opacity:1" fill="#ededed" d="M 311.5,311.5 C 319.5,311.5 327.5,311.5 335.5,311.5C 335.5,319.5 335.5,327.5 335.5,335.5C 327.5,335.5 319.5,335.5 311.5,335.5C 311.5,327.5 311.5,319.5 311.5,311.5 Z"/></g>
<g><path style="opacity:1" fill="#fefffe" d="M 23.5,335.5 C 31.5,335.5 39.5,335.5 47.5,335.5C 47.5,343.5 47.5,351.5 47.5,359.5C 39.5,359.5 31.5,359.5 23.5,359.5C 23.5,351.5 23.5,343.5 23.5,335.5 Z"/></g>
<g><path style="opacity:1" fill="#fefffe" d="M 71.5,335.5 C 79.5,335.5 87.5,335.5 95.5,335.5C 95.5,343.5 95.5,351.5 95.5,359.5C 87.5,359.5 79.5,359.5 71.5,359.5C 71.5,351.5 71.5,343.5 71.5,335.5 Z"/></g>
<g><path style="opacity:1" fill="#fefffe" d="M 119.5,335.5 C 127.5,335.5 135.5,335.5 143.5,335.5C 143.5,343.5 143.5,351.5 143.5,359.5C 135.5,359.5 127.5,359.5 119.5,359.5C 119.5,351.5 119.5,343.5 119.5,335.5 Z"/></g>
<g><path style="opacity:1" fill="#fefffe" d="M 167.5,335.5 C 175.5,335.5 183.5,335.5 191.5,335.5C 191.5,343.5 191.5,351.5 191.5,359.5C 183.5,359.5 175.5,359.5 167.5,359.5C 167.5,351.5 167.5,343.5 167.5,335.5 Z"/></g>
<g><path style="opacity:1" fill="#fefffe" d="M 215.5,335.5 C 223.5,335.5 231.5,335.5 239.5,335.5C 239.5,343.5 239.5,351.5 239.5,359.5C 231.5,359.5 223.5,359.5 215.5,359.5C 215.5,351.5 215.5,343.5 215.5,335.5 Z"/></g>
<g><path style="opacity:1" fill="#fefffe" d="M 263.5,335.5 C 271.5,335.5 279.5,335.5 287.5,335.5C 287.5,343.5 287.5,351.5 287.5,359.5C 279.5,359.5 271.5,359.5 263.5,359.5C 263.5,351.5 263.5,343.5 263.5,335.5 Z"/></g>
<g><path style="opacity:1" fill="#fefffe" d="M 311.5,335.5 C 319.5,335.5 327.5,335.5 335.5,335.5C 335.5,343.5 335.5,351.5 335.5,359.5C 327.5,359.5 319.5,359.5 311.5,359.5C 311.5,351.5 311.5,343.5 311.5,335.5 Z"/></g>
<g><path style="opacity:1" fill="#ededed" d="M -0.5,335.5 C 7.5,335.5 15.5,335.5 23.5,335.5C 23.5,343.5 23.5,351.5 23.5,359.5C 15.5,359.5 7.5,359.5 -0.5,359.5C -0.5,351.5 -0.5,343.5 -0.5,335.5 Z"/></g>
<g><path style="opacity:1" fill="#ededed" d="M 47.5,335.5 C 55.5,335.5 63.5,335.5 71.5,335.5C 71.5,343.5 71.5,351.5 71.5,359.5C 63.5,359.5 55.5,359.5 47.5,359.5C 47.5,351.5 47.5,343.5 47.5,335.5 Z"/></g>
<g><path style="opacity:1" fill="#ededed" d="M 95.5,335.5 C 103.5,335.5 111.5,335.5 119.5,335.5C 119.5,343.5 119.5,351.5 119.5,359.5C 111.5,359.5 103.5,359.5 95.5,359.5C 95.5,351.5 95.5,343.5 95.5,335.5 Z"/></g>
<g><path style="opacity:1" fill="#ededed" d="M 143.5,335.5 C 151.5,335.5 159.5,335.5 167.5,335.5C 167.5,343.5 167.5,351.5 167.5,359.5C 159.5,359.5 151.5,359.5 143.5,359.5C 143.5,351.5 143.5,343.5 143.5,335.5 Z"/></g>
<g><path style="opacity:1" fill="#ededed" d="M 191.5,335.5 C 199.5,335.5 207.5,335.5 215.5,335.5C 215.5,343.5 215.5,351.5 215.5,359.5C 207.5,359.5 199.5,359.5 191.5,359.5C 191.5,351.5 191.5,343.5 191.5,335.5 Z"/></g>
<g><path style="opacity:1" fill="#ededed" d="M 239.5,335.5 C 247.5,335.5 255.5,335.5 263.5,335.5C 263.5,343.5 263.5,351.5 263.5,359.5C 255.5,359.5 247.5,359.5 239.5,359.5C 239.5,351.5 239.5,343.5 239.5,335.5 Z"/></g>
<g><path style="opacity:1" fill="#ededed" d="M 287.5,335.5 C 295.5,335.5 303.5,335.5 311.5,335.5C 311.5,343.5 311.5,351.5 311.5,359.5C 303.5,359.5 295.5,359.5 287.5,359.5C 287.5,351.5 287.5,343.5 287.5,335.5 Z"/></g>
<g><path style="opacity:1" fill="#ededed" d="M 335.5,335.5 C 343.5,335.5 351.5,335.5 359.5,335.5C 359.5,343.5 359.5,351.5 359.5,359.5C 351.5,359.5 343.5,359.5 335.5,359.5C 335.5,351.5 335.5,343.5 335.5,335.5 Z"/></g>
</svg>
