<svg xmlns="http://www.w3.org/2000/svg" viewBox="0 0 24 24" fill="currentColor">
  <path d="M12,2A10,10 0 0,0 2,12A10,10 0 0,0 12,22A10,10 0 0,0 22,12A10,10 0 0,0 12,2M7.07,18.28C7.5,17.38 8.12,16.5 8.91,15.77C9.71,15.04 10.69,14.5 11.71,14.22C13.58,13.72 15.54,14.21 16.93,15.5C17.19,15.72 17.8,16.5 17.9,16.75C18.27,17.76 18.05,18.86 17.5,19.77C16.93,20.71 15.92,21.1 14.9,21.04C13.88,20.97 12.93,20.33 12.34,19.4C11.75,18.47 11.6,17.33 12,16.32C12.15,16.04 12.37,15.82 12.63,15.69C12.78,15.61 12.9,15.51 13,15.4C13.27,15.16 13.76,14.80 14.17,14.55C14.65,14.25 15.17,14.11 15.7,14.18C16.23,14.25 16.67,14.52 16.93,14.92C17.19,15.32 17.25,15.83 17.07,16.28C16.89,16.73 16.48,17.05 16,17.12C15.5,17.18 14.97,16.97 14.61,16.54C14.43,16.32 14.33,16.04 14.35,15.76C14.37,15.48 14.5,15.23 14.72,15.06C14.94,14.89 15.22,14.82 15.5,14.87C15.78,14.92 16.04,15.08 16.2,15.33C16.28,15.44 16.33,15.57 16.33,15.71C16.33,15.85 16.28,15.98 16.2,16.09C16.04,16.34 15.78,16.5 15.5,16.55C15.22,16.6 14.94,16.53 14.72,16.36C14.5,16.19 14.37,15.94 14.35,15.66C14.33,15.38 14.43,15.1 14.61,14.88C14.97,14.45 15.5,14.24 16,14.30C16.48,14.37 16.89,14.69 17.07,15.14C17.25,15.59 17.19,16.1 16.93,16.5C16.67,16.9 16.23,17.17 15.7,17.24C15.17,17.31 14.65,17.17 14.17,16.87C13.76,16.62 13.27,16.26 13,16.02C12.9,15.91 12.78,15.81 12.63,15.73C12.37,15.60 12.15,15.38 12,15.1C11.6,14.09 11.75,12.95 12.34,12.02C12.93,11.09 13.88,10.45 14.9,10.38C15.92,10.32 16.93,10.71 17.5,11.65C18.05,12.56 18.27,13.66 17.9,14.67C17.8,14.92 17.19,15.7 16.93,15.92C15.54,17.21 13.58,17.7 11.71,17.2C10.69,16.92 9.71,16.38 8.91,15.65C8.12,14.92 7.5,14.04 7.07,13.14C6.27,11.34 6.92,9.29 8.5,8.17C9.29,7.61 10.28,7.38 11.22,7.55C12.16,7.72 13,8.26 13.58,9.05C14.16,9.84 14.44,10.82 14.37,11.8C14.3,12.78 13.87,13.69 13.18,14.38C12.49,15.07 11.58,15.5 10.6,15.57C9.62,15.64 8.64,15.36 7.85,14.77C7.06,14.18 6.52,13.33 6.34,12.37C6.16,11.41 6.37,10.43 6.9,9.6C7.43,8.77 8.24,8.15 9.18,7.85C10.12,7.55 11.14,7.61 12.04,8.02C12.94,8.43 13.67,9.15 14.08,10.05C14.49,10.95 14.55,11.97 14.25,12.91C13.95,13.85 13.33,14.66 12.5,15.19C11.67,15.72 10.69,15.94 9.73,15.81C8.77,15.68 7.89,15.22 7.26,14.51C6.63,13.8 6.29,12.9 6.29,11.98C6.29,11.06 6.63,10.16 7.26,9.45C7.89,8.74 8.77,8.28 9.73,8.15C10.69,8.02 11.67,8.24 12.5,8.77C13.33,9.3 13.95,10.11 14.25,11.05C14.55,11.99 14.49,13.01 14.08,13.91C13.67,14.81 12.94,15.53 12.04,15.94C11.14,16.35 10.12,16.41 9.18,16.11C8.24,15.81 7.43,15.19 6.9,14.36C6.37,13.53 6.16,12.55 6.34,11.59C6.52,10.63 7.06,9.78 7.85,9.19C8.64,8.6 9.62,8.32 10.6,8.39C11.58,8.46 12.49,8.89 13.18,9.58C13.87,10.27 14.3,11.18 14.37,12.16C14.44,13.14 14.16,14.12 13.58,14.91C13,15.7 12.16,16.24 11.22,16.41C10.28,16.58 9.29,16.35 8.5,15.79C6.92,14.67 6.27,12.62 7.07,10.82"/>
</svg>
